<svg preserveAspectRatio="none" width="100%" height="100%" overflow="visible" style="display: block;" viewBox="0 0 246 206" fill="none" xmlns="http://www.w3.org/2000/svg">
<path id="Vector" d="M31.0942 134.901C32.5347 135.079 33.9753 135.16 35.3834 135.144C39.8022 135.095 43.3955 138.728 43.3955 143.156L43.3955 168.18C43.3955 187.415 58.9501 203 78.1466 203H208.249C227.445 203 243 187.415 243 168.18L243 37.82C243 20.1911 229.938 5.64353 212.991 3.34058C211.49 3.00016 211.489 3.00003 210.194 3.00005L78.1304 3C68.5321 3 59.8403 6.89231 53.544 13.1849C47.2639 19.4937 43.3793 28.2027 43.3793 37.82V62.8281C43.3793 67.3367 39.6565 70.856 35.1568 70.856H35.0759C16.802 70.856 2.08904 86.182 3.044 104.703C3.83711 120.126 15.7985 133.019 31.0942 134.901Z" fill="var(--fill-0, #2050F2)" stroke="var(--stroke-0, #0E0F28)" stroke-width="5"/>
</svg>
