<svg width="200" height="240" viewBox="0 0 200 240" fill="none" xmlns="http://www.w3.org/2000/svg">
<path d="M67.856 32.3834C67.8398 30.9753 67.9209 29.5347 68.0992 28.0942C69.9805 12.7985 82.8738 0.837107 98.2971 0.0439987C116.818 -0.910969 132.144 13.802 132.144 32.0759L132.144 32.1568C132.144 36.6565 135.663 40.3793 140.172 40.3793L165.18 40.3793C174.797 40.3793 183.506 44.2639 189.815 50.544C196.108 56.8403 200 65.5322 200 75.1304L200 212.112C199.87 211.416 199.741 210.704 199.659 209.991C197.356 226.938 182.809 240 165.18 240L34.82 240C15.5854 240 -2.50696e-05 224.445 -2.42305e-05 205.249L-1.85436e-05 75.1466C-1.77044e-05 55.9501 15.5854 40.3954 34.82 40.3954L59.8443 40.3954C64.2718 40.3954 67.9046 36.8022 67.856 32.3834Z" fill="#2050F2"/>
<rect x="81.1545" y="13.71" width="37.259" height="37.2851" rx="18.6295" fill="#E4EAF2"/>
<rect x="81.1545" y="13.71" width="37.259" height="37.2851" rx="18.6295" stroke="#E4EAF2"/>
<path d="M29.8336 94L26.2736 80H28.9936L31.9536 92.3H32.2336L35.1936 80H37.9136L34.3536 94H29.8336ZM39.6769 94V84.08H42.1969V94H39.6769ZM40.9369 82.92C40.4835 82.92 40.0969 82.7733 39.7769 82.48C39.4702 82.1867 39.3169 81.8 39.3169 81.32C39.3169 80.84 39.4702 80.4533 39.7769 80.16C40.0969 79.8667 40.4835 79.72 40.9369 79.72C41.4035 79.72 41.7902 79.8667 42.0969 80.16C42.4035 80.4533 42.5569 80.84 42.5569 81.32C42.5569 81.8 42.4035 82.1867 42.0969 82.48C41.7902 82.7733 41.4035 82.92 40.9369 82.92ZM49.1094 94.28C47.816 94.28 46.756 94 45.9294 93.44C45.1027 92.88 44.6027 92.08 44.4294 91.04L46.7494 90.44C46.8427 90.9067 46.996 91.2733 47.2094 91.54C47.436 91.8067 47.7094 92 48.0294 92.12C48.3627 92.2267 48.7227 92.28 49.1094 92.28C49.696 92.28 50.1294 92.18 50.4094 91.98C50.6894 91.7667 50.8294 91.5067 50.8294 91.2C50.8294 90.8933 50.696 90.66 50.4294 90.5C50.1627 90.3267 49.736 90.1867 49.1494 90.08L48.5894 89.98C47.896 89.8467 47.2627 89.6667 46.6894 89.44C46.116 89.2 45.656 88.8733 45.3094 88.46C44.9627 88.0467 44.7894 87.5133 44.7894 86.86C44.7894 85.8733 45.1494 85.12 45.8694 84.6C46.5894 84.0667 47.536 83.8 48.7094 83.8C49.816 83.8 50.736 84.0467 51.4694 84.54C52.2027 85.0333 52.6827 85.68 52.9094 86.48L50.5694 87.2C50.4627 86.6933 50.2427 86.3333 49.9094 86.12C49.5894 85.9067 49.1894 85.8 48.7094 85.8C48.2294 85.8 47.8627 85.8867 47.6094 86.06C47.356 86.22 47.2294 86.4467 47.2294 86.74C47.2294 87.06 47.3627 87.3 47.6294 87.46C47.896 87.6067 48.256 87.72 48.7094 87.8L49.2694 87.9C50.016 88.0333 50.6894 88.2133 51.2894 88.44C51.9027 88.6533 52.3827 88.9667 52.7294 89.38C53.0894 89.78 53.2694 90.3267 53.2694 91.02C53.2694 92.06 52.8894 92.8667 52.1294 93.44C51.3827 94 50.376 94.28 49.1094 94.28ZM59.2576 94.16C58.4843 94.16 57.8043 93.9867 57.2176 93.64C56.6443 93.28 56.1976 92.7867 55.8776 92.16C55.5576 91.5333 55.3976 90.8133 55.3976 90V84.08H57.9176V89.8C57.9176 90.5467 58.0976 91.1067 58.4576 91.48C58.831 91.8533 59.3576 92.04 60.0376 92.04C60.811 92.04 61.411 91.7867 61.8376 91.28C62.2643 90.76 62.4776 90.04 62.4776 89.12V84.08H64.9976V94H62.5176V92.7H62.1576C61.9976 93.0333 61.6976 93.36 61.2576 93.68C60.8176 94 60.151 94.16 59.2576 94.16ZM70.8819 94.28C70.1752 94.28 69.5419 94.16 68.9819 93.92C68.4219 93.6667 67.9752 93.3067 67.6419 92.84C67.3219 92.36 67.1619 91.78 67.1619 91.1C67.1619 90.42 67.3219 89.8533 67.6419 89.4C67.9752 88.9333 68.4285 88.5867 69.0019 88.36C69.5885 88.12 70.2552 88 71.0019 88H73.7219V87.44C73.7219 86.9733 73.5752 86.5933 73.2819 86.3C72.9885 85.9933 72.5219 85.84 71.8819 85.84C71.2552 85.84 70.7885 85.9867 70.4819 86.28C70.1752 86.56 69.9752 86.9267 69.8819 87.38L67.5619 86.6C67.7219 86.0933 67.9752 85.6333 68.3219 85.22C68.6819 84.7933 69.1552 84.4533 69.7419 84.2C70.3419 83.9333 71.0685 83.8 71.9219 83.8C73.2285 83.8 74.2619 84.1267 75.0219 84.78C75.7819 85.4333 76.1619 86.38 76.1619 87.62V91.32C76.1619 91.72 76.3485 91.92 76.7219 91.92H77.5219V94H75.8419C75.3485 94 74.9419 93.88 74.6219 93.64C74.3019 93.4 74.1419 93.08 74.1419 92.68V92.66H73.7619C73.7085 92.82 73.5885 93.0333 73.4019 93.3C73.2152 93.5533 72.9219 93.78 72.5219 93.98C72.1219 94.18 71.5752 94.28 70.8819 94.28ZM71.3219 92.24C72.0285 92.24 72.6019 92.0467 73.0419 91.66C73.4952 91.26 73.7219 90.7333 73.7219 90.08V89.88H71.1819C70.7152 89.88 70.3485 89.98 70.0819 90.18C69.8152 90.38 69.6819 90.66 69.6819 91.02C69.6819 91.38 69.8219 91.6733 70.1019 91.9C70.3819 92.1267 70.7885 92.24 71.3219 92.24ZM79.3644 94V80H81.8844V94H79.3644ZM94.535 94.28C93.455 94.28 92.5016 94.0867 91.675 93.7C90.8483 93.3133 90.2016 92.76 89.735 92.04C89.2683 91.32 89.035 90.4533 89.035 89.44V88.88H91.635V89.44C91.635 90.28 91.895 90.9133 92.415 91.34C92.935 91.7533 93.6416 91.96 94.535 91.96C95.4416 91.96 96.115 91.78 96.555 91.42C97.0083 91.06 97.235 90.6 97.235 90.04C97.235 89.6533 97.1216 89.34 96.895 89.1C96.6816 88.86 96.3616 88.6667 95.935 88.52C95.5216 88.36 95.015 88.2133 94.415 88.08L93.955 87.98C92.995 87.7667 92.1683 87.5 91.475 87.18C90.795 86.8467 90.2683 86.4133 89.895 85.88C89.535 85.3467 89.355 84.6533 89.355 83.8C89.355 82.9467 89.555 82.22 89.955 81.62C90.3683 81.0067 90.9416 80.54 91.675 80.22C92.4216 79.8867 93.295 79.72 94.295 79.72C95.295 79.72 96.1816 79.8933 96.955 80.24C97.7416 80.5733 98.355 81.08 98.795 81.76C99.2483 82.4267 99.475 83.2667 99.475 84.28V84.88H96.875V84.28C96.875 83.7467 96.7683 83.32 96.555 83C96.355 82.6667 96.0616 82.4267 95.675 82.28C95.2883 82.12 94.8283 82.04 94.295 82.04C93.495 82.04 92.9016 82.1933 92.515 82.5C92.1416 82.7933 91.955 83.2 91.955 83.72C91.955 84.0667 92.0416 84.36 92.215 84.6C92.4016 84.84 92.675 85.04 93.035 85.2C93.395 85.36 93.855 85.5 94.415 85.62L94.875 85.72C95.875 85.9333 96.7416 86.2067 97.475 86.54C98.2216 86.8733 98.8016 87.3133 99.215 87.86C99.6283 88.4067 99.835 89.1067 99.835 89.96C99.835 90.8133 99.615 91.5667 99.175 92.22C98.7483 92.86 98.135 93.3667 97.335 93.74C96.5483 94.1 95.615 94.28 94.535 94.28ZM105.684 94C105.031 94 104.497 93.8 104.084 93.4C103.684 92.9867 103.484 92.44 103.484 91.76V86.16H101.004V84.08H103.484V81H106.004V84.08H108.724V86.16H106.004V91.32C106.004 91.72 106.191 91.92 106.564 91.92H108.484V94H105.684ZM111.005 94V84.08H113.485V85.2H113.845C113.992 84.8 114.232 84.5067 114.565 84.32C114.912 84.1333 115.312 84.04 115.765 84.04H116.965V86.28H115.725C115.085 86.28 114.558 86.4533 114.145 86.8C113.732 87.1333 113.525 87.6533 113.525 88.36V94H111.005ZM121.78 94.28C121.074 94.28 120.44 94.16 119.88 93.92C119.32 93.6667 118.874 93.3067 118.54 92.84C118.22 92.36 118.06 91.78 118.06 91.1C118.06 90.42 118.22 89.8533 118.54 89.4C118.874 88.9333 119.327 88.5867 119.9 88.36C120.487 88.12 121.154 88 121.9 88H124.62V87.44C124.62 86.9733 124.474 86.5933 124.18 86.3C123.887 85.9933 123.42 85.84 122.78 85.84C122.154 85.84 121.687 85.9867 121.38 86.28C121.074 86.56 120.874 86.9267 120.78 87.38L118.46 86.6C118.62 86.0933 118.874 85.6333 119.22 85.22C119.58 84.7933 120.054 84.4533 120.64 84.2C121.24 83.9333 121.967 83.8 122.82 83.8C124.127 83.8 125.16 84.1267 125.92 84.78C126.68 85.4333 127.06 86.38 127.06 87.62V91.32C127.06 91.72 127.247 91.92 127.62 91.92H128.42V94H126.74C126.247 94 125.84 93.88 125.52 93.64C125.2 93.4 125.04 93.08 125.04 92.68V92.66H124.66C124.607 92.82 124.487 93.0333 124.3 93.3C124.114 93.5533 123.82 93.78 123.42 93.98C123.02 94.18 122.474 94.28 121.78 94.28ZM122.22 92.24C122.927 92.24 123.5 92.0467 123.94 91.66C124.394 91.26 124.62 90.7333 124.62 90.08V89.88H122.08C121.614 89.88 121.247 89.98 120.98 90.18C120.714 90.38 120.58 90.66 120.58 91.02C120.58 91.38 120.72 91.6733 121 91.9C121.28 92.1267 121.687 92.24 122.22 92.24ZM133.34 94C132.687 94 132.153 93.8 131.74 93.4C131.34 92.9867 131.14 92.44 131.14 91.76V86.16H128.66V84.08H131.14V81H133.66V84.08H136.38V86.16H133.66V91.32C133.66 91.72 133.847 91.92 134.22 91.92H136.14V94H133.34ZM142.83 94.28C141.843 94.28 140.97 94.0733 140.21 93.66C139.463 93.2333 138.876 92.64 138.45 91.88C138.036 91.1067 137.83 90.2 137.83 89.16V88.92C137.83 87.88 138.036 86.98 138.45 86.22C138.863 85.4467 139.443 84.8533 140.19 84.44C140.936 84.0133 141.803 83.8 142.79 83.8C143.763 83.8 144.61 84.02 145.33 84.46C146.05 84.8867 146.61 85.4867 147.01 86.26C147.41 87.02 147.61 87.9067 147.61 88.92V89.78H140.39C140.416 90.46 140.67 91.0133 141.15 91.44C141.63 91.8667 142.216 92.08 142.91 92.08C143.616 92.08 144.136 91.9267 144.47 91.62C144.803 91.3133 145.056 90.9733 145.23 90.6L147.29 91.68C147.103 92.0267 146.83 92.4067 146.47 92.82C146.123 93.22 145.656 93.5667 145.07 93.86C144.483 94.14 143.736 94.28 142.83 94.28ZM140.41 87.9H145.05C144.996 87.3267 144.763 86.8667 144.35 86.52C143.95 86.1733 143.423 86 142.77 86C142.09 86 141.55 86.1733 141.15 86.52C140.75 86.8667 140.503 87.3267 140.41 87.9ZM149.373 89.08V88.76C149.373 87.72 149.579 86.8333 149.993 86.1C150.406 85.3533 150.953 84.7867 151.633 84.4C152.326 84 153.079 83.8 153.893 83.8C154.799 83.8 155.486 83.96 155.953 84.28C156.419 84.6 156.759 84.9333 156.973 85.28H157.333V84.08H159.813V95.76C159.813 96.44 159.613 96.98 159.213 97.38C158.813 97.7933 158.279 98 157.613 98H150.973V95.8H156.733C157.106 95.8 157.293 95.6 157.293 95.2V92.62H156.933C156.799 92.8333 156.613 93.0533 156.373 93.28C156.133 93.4933 155.813 93.6733 155.413 93.82C155.013 93.9667 154.506 94.04 153.893 94.04C153.079 94.04 152.326 93.8467 151.633 93.46C150.953 93.06 150.406 92.4933 149.993 91.76C149.579 91.0133 149.373 90.12 149.373 89.08ZM154.613 91.84C155.386 91.84 156.033 91.5933 156.553 91.1C157.073 90.6067 157.333 89.9133 157.333 89.02V88.82C157.333 87.9133 157.073 87.22 156.553 86.74C156.046 86.2467 155.399 86 154.613 86C153.839 86 153.193 86.2467 152.673 86.74C152.153 87.22 151.893 87.9133 151.893 88.82V89.02C151.893 89.9133 152.153 90.6067 152.673 91.1C153.193 91.5933 153.839 91.84 154.613 91.84ZM163.687 98V95.8H169.087C169.46 95.8 169.647 95.6 169.647 95.2V92.7H169.287C169.18 92.9267 169.013 93.1533 168.787 93.38C168.56 93.6067 168.253 93.7933 167.867 93.94C167.48 94.0867 166.987 94.16 166.387 94.16C165.613 94.16 164.933 93.9867 164.347 93.64C163.773 93.28 163.327 92.7867 163.007 92.16C162.687 91.5333 162.527 90.8133 162.527 90V84.08H165.047V89.8C165.047 90.5467 165.227 91.1067 165.587 91.48C165.96 91.8533 166.487 92.04 167.167 92.04C167.94 92.04 168.54 91.7867 168.967 91.28C169.393 90.76 169.607 90.04 169.607 89.12V84.08H172.127V95.76C172.127 96.44 171.927 96.98 171.527 97.38C171.127 97.7933 170.593 98 169.927 98H163.687ZM66.4137 120V117.68H68.2537V108.32H66.4137V106H73.6137C74.467 106 75.207 106.147 75.8337 106.44C76.4737 106.72 76.967 107.127 77.3137 107.66C77.6737 108.18 77.8537 108.807 77.8537 109.54V109.74C77.8537 110.38 77.7337 110.907 77.4937 111.32C77.2537 111.72 76.967 112.033 76.6337 112.26C76.3137 112.473 76.007 112.627 75.7137 112.72V113.08C76.007 113.16 76.327 113.313 76.6737 113.54C77.0203 113.753 77.3137 114.067 77.5537 114.48C77.807 114.893 77.9337 115.433 77.9337 116.1V116.3C77.9337 117.073 77.7537 117.74 77.3937 118.3C77.0337 118.847 76.5337 119.267 75.8937 119.56C75.267 119.853 74.5337 120 73.6937 120H66.4137ZM70.8937 117.6H73.3737C73.947 117.6 74.407 117.46 74.7537 117.18C75.1137 116.9 75.2937 116.5 75.2937 115.98V115.78C75.2937 115.26 75.1203 114.86 74.7737 114.58C74.427 114.3 73.9603 114.16 73.3737 114.16H70.8937V117.6ZM70.8937 111.76H73.3337C73.8803 111.76 74.327 111.62 74.6737 111.34C75.0337 111.06 75.2137 110.673 75.2137 110.18V109.98C75.2137 109.473 75.0403 109.087 74.6937 108.82C74.347 108.54 73.8937 108.4 73.3337 108.4H70.8937V111.76ZM83.9549 120.16C83.1816 120.16 82.5016 119.987 81.9149 119.64C81.3416 119.28 80.8949 118.787 80.5749 118.16C80.2549 117.533 80.0949 116.813 80.0949 116V110.08H82.6149V115.8C82.6149 116.547 82.7949 117.107 83.1549 117.48C83.5282 117.853 84.0549 118.04 84.7349 118.04C85.5082 118.04 86.1082 117.787 86.5349 117.28C86.9616 116.76 87.1749 116.04 87.1749 115.12V110.08H89.6949V120H87.2149V118.7H86.8549C86.6949 119.033 86.3949 119.36 85.9549 119.68C85.5149 120 84.8482 120.16 83.9549 120.16ZM92.4991 120V110.08H95.0191V120H92.4991ZM93.7591 108.92C93.3058 108.92 92.9191 108.773 92.5991 108.48C92.2925 108.187 92.1391 107.8 92.1391 107.32C92.1391 106.84 92.2925 106.453 92.5991 106.16C92.9191 105.867 93.3058 105.72 93.7591 105.72C94.2258 105.72 94.6125 105.867 94.9191 106.16C95.2258 106.453 95.3791 106.84 95.3791 107.32C95.3791 107.8 95.2258 108.187 94.9191 108.48C94.6125 108.773 94.2258 108.92 93.7591 108.92ZM97.8116 120V106H100.332V120H97.8116ZM107.124 120.28C106.337 120.28 105.597 120.087 104.904 119.7C104.224 119.3 103.677 118.72 103.264 117.96C102.851 117.2 102.644 116.28 102.644 115.2V114.88C102.644 113.8 102.851 112.88 103.264 112.12C103.677 111.36 104.224 110.787 104.904 110.4C105.584 110 106.324 109.8 107.124 109.8C107.724 109.8 108.224 109.873 108.624 110.02C109.037 110.153 109.371 110.327 109.624 110.54C109.877 110.753 110.071 110.98 110.204 111.22H110.564V106H113.084V120H110.604V118.8H110.244C110.017 119.173 109.664 119.513 109.184 119.82C108.717 120.127 108.031 120.28 107.124 120.28ZM107.884 118.08C108.657 118.08 109.304 117.833 109.824 117.34C110.344 116.833 110.604 116.1 110.604 115.14V114.94C110.604 113.98 110.344 113.253 109.824 112.76C109.317 112.253 108.671 112 107.884 112C107.111 112 106.464 112.253 105.944 112.76C105.424 113.253 105.164 113.98 105.164 114.94V115.14C105.164 116.1 105.424 116.833 105.944 117.34C106.464 117.833 107.111 118.08 107.884 118.08ZM120.398 120.28C119.411 120.28 118.538 120.073 117.778 119.66C117.031 119.233 116.445 118.64 116.018 117.88C115.605 117.107 115.398 116.2 115.398 115.16V114.92C115.398 113.88 115.605 112.98 116.018 112.22C116.431 111.447 117.011 110.853 117.758 110.44C118.505 110.013 119.371 109.8 120.358 109.8C121.331 109.8 122.178 110.02 122.898 110.46C123.618 110.887 124.178 111.487 124.578 112.26C124.978 113.02 125.178 113.907 125.178 114.92V115.78H117.958C117.985 116.46 118.238 117.013 118.718 117.44C119.198 117.867 119.785 118.08 120.478 118.08C121.185 118.08 121.705 117.927 122.038 117.62C122.371 117.313 122.625 116.973 122.798 116.6L124.858 117.68C124.671 118.027 124.398 118.407 124.038 118.82C123.691 119.22 123.225 119.567 122.638 119.86C122.051 120.14 121.305 120.28 120.398 120.28ZM117.978 113.9H122.618C122.565 113.327 122.331 112.867 121.918 112.52C121.518 112.173 120.991 112 120.338 112C119.658 112 119.118 112.173 118.718 112.52C118.318 112.867 118.071 113.327 117.978 113.9ZM127.421 120V110.08H129.901V111.2H130.261C130.408 110.8 130.648 110.507 130.981 110.32C131.328 110.133 131.728 110.04 132.181 110.04H133.381V112.28H132.141C131.501 112.28 130.974 112.453 130.561 112.8C130.148 113.133 129.941 113.653 129.941 114.36V120H127.421Z" fill="white"/>
<path d="M35.71 143.196C34.5153 143.196 33.5633 142.86 32.854 142.188C32.1447 141.507 31.79 140.531 31.79 139.262V136.938C31.79 135.669 32.1447 134.698 32.854 134.026C33.5633 133.345 34.5153 133.004 35.71 133.004C36.9047 133.004 37.824 133.331 38.468 133.984C39.1213 134.637 39.448 135.533 39.448 136.672V136.756H37.796V136.63C37.796 136.014 37.6233 135.51 37.278 135.118C36.942 134.717 36.4193 134.516 35.71 134.516C35.0193 134.516 34.4733 134.731 34.072 135.16C33.68 135.58 33.484 136.163 33.484 136.91V139.29C33.484 140.027 33.68 140.611 34.072 141.04C34.4733 141.469 35.0193 141.684 35.71 141.684C36.4193 141.684 36.942 141.488 37.278 141.096C37.6233 140.695 37.796 140.186 37.796 139.57V139.332H39.448V139.528C39.448 140.667 39.1213 141.563 38.468 142.216C37.824 142.869 36.9047 143.196 35.71 143.196ZM41.0801 143V136.084H42.6621V136.882H42.9001C43.0028 136.593 43.1754 136.383 43.4181 136.252C43.6608 136.121 43.9501 136.056 44.2861 136.056H45.1261V137.484H44.2581C43.7914 137.484 43.4134 137.61 43.1241 137.862C42.8348 138.105 42.6901 138.483 42.6901 138.996V143H41.0801ZM49.4668 143.196C48.7761 143.196 48.1648 143.051 47.6328 142.762C47.1101 142.463 46.6994 142.048 46.4008 141.516C46.1114 140.975 45.9668 140.345 45.9668 139.626V139.458C45.9668 138.73 46.1114 138.1 46.4008 137.568C46.6901 137.036 47.0961 136.625 47.6188 136.336C48.1414 136.037 48.7434 135.888 49.4248 135.888C50.0968 135.888 50.6848 136.037 51.1888 136.336C51.6928 136.625 52.0848 137.036 52.3648 137.568C52.6448 138.1 52.7848 138.721 52.7848 139.43V140.004H47.5908C47.6094 140.545 47.8008 140.979 48.1648 141.306C48.5288 141.633 48.9768 141.796 49.5088 141.796C50.0314 141.796 50.4188 141.684 50.6708 141.46C50.9228 141.227 51.1141 140.965 51.2448 140.676L52.5748 141.362C52.4441 141.614 52.2528 141.885 52.0008 142.174C51.7581 142.454 51.4314 142.697 51.0208 142.902C50.6101 143.098 50.0921 143.196 49.4668 143.196ZM47.6048 138.786H51.1468C51.1094 138.329 50.9321 137.965 50.6148 137.694C50.3068 137.423 49.9054 137.288 49.4108 137.288C48.8974 137.288 48.4868 137.423 48.1788 137.694C47.8708 137.965 47.6794 138.329 47.6048 138.786ZM56.5795 143.196C56.0942 143.196 55.6555 143.112 55.2635 142.944C54.8715 142.767 54.5589 142.515 54.3255 142.188C54.1015 141.861 53.9895 141.46 53.9895 140.984C53.9895 140.517 54.1015 140.125 54.3255 139.808C54.5589 139.491 54.8762 139.253 55.2775 139.094C55.6789 138.926 56.1362 138.842 56.6495 138.842H58.6515V138.422C58.6515 138.058 58.5395 137.764 58.3155 137.54C58.0915 137.307 57.7415 137.19 57.2655 137.19C56.7989 137.19 56.4442 137.302 56.2015 137.526C55.9682 137.741 55.8142 138.021 55.7395 138.366L54.2555 137.876C54.3675 137.512 54.5449 137.181 54.7875 136.882C55.0395 136.583 55.3709 136.345 55.7815 136.168C56.1922 135.981 56.6962 135.888 57.2935 135.888C58.1989 135.888 58.9082 136.117 59.4215 136.574C59.9442 137.022 60.2055 137.675 60.2055 138.534V141.25C60.2055 141.53 60.3362 141.67 60.5975 141.67H61.1855V143H60.0515C59.7155 143 59.4402 142.916 59.2255 142.748C59.0109 142.58 58.9035 142.351 58.9035 142.062V142.034H58.6655C58.6095 142.165 58.5115 142.323 58.3715 142.51C58.2315 142.697 58.0169 142.86 57.7275 143C57.4475 143.131 57.0649 143.196 56.5795 143.196ZM56.8455 141.88C57.3775 141.88 57.8115 141.731 58.1475 141.432C58.4835 141.124 58.6515 140.713 58.6515 140.2V140.06H56.7475C56.4022 140.06 56.1222 140.135 55.9075 140.284C55.6929 140.433 55.5855 140.653 55.5855 140.942C55.5855 141.222 55.6975 141.451 55.9215 141.628C56.1455 141.796 56.4535 141.88 56.8455 141.88ZM64.6574 143C64.2094 143 63.8501 142.869 63.5794 142.608C63.3181 142.337 63.1874 141.973 63.1874 141.516V137.414H61.3814V136.084H63.1874V133.858H64.7974V136.084H66.7854V137.414H64.7974V141.25C64.7974 141.53 64.9281 141.67 65.1894 141.67H66.5754V143H64.6574ZM71.3418 143.196C70.6511 143.196 70.0398 143.051 69.5078 142.762C68.9851 142.463 68.5744 142.048 68.2758 141.516C67.9864 140.975 67.8418 140.345 67.8418 139.626V139.458C67.8418 138.73 67.9864 138.1 68.2758 137.568C68.5651 137.036 68.9711 136.625 69.4938 136.336C70.0164 136.037 70.6184 135.888 71.2998 135.888C71.9718 135.888 72.5598 136.037 73.0638 136.336C73.5678 136.625 73.9598 137.036 74.2398 137.568C74.5198 138.1 74.6598 138.721 74.6598 139.43V140.004H69.4658C69.4844 140.545 69.6758 140.979 70.0398 141.306C70.4038 141.633 70.8518 141.796 71.3838 141.796C71.9064 141.796 72.2938 141.684 72.5458 141.46C72.7978 141.227 72.9891 140.965 73.1198 140.676L74.4498 141.362C74.3191 141.614 74.1278 141.885 73.8758 142.174C73.6331 142.454 73.3064 142.697 72.8958 142.902C72.4851 143.098 71.9671 143.196 71.3418 143.196ZM69.4798 138.786H73.0218C72.9844 138.329 72.8071 137.965 72.4898 137.694C72.1818 137.423 71.7804 137.288 71.2858 137.288C70.7724 137.288 70.3618 137.423 70.0538 137.694C69.7458 137.965 69.5544 138.329 69.4798 138.786ZM83.1149 143.196C82.4429 143.196 81.8362 143.056 81.2949 142.776C80.7536 142.496 80.3242 142.09 80.0069 141.558C79.6989 141.026 79.5449 140.387 79.5449 139.64V139.444C79.5449 138.697 79.6989 138.058 80.0069 137.526C80.3242 136.994 80.7536 136.588 81.2949 136.308C81.8362 136.028 82.4429 135.888 83.1149 135.888C83.7776 135.888 84.3422 136.005 84.8089 136.238C85.2849 136.471 85.6676 136.793 85.9569 137.204C86.2462 137.605 86.4329 138.058 86.5169 138.562L84.9629 138.884C84.9256 138.595 84.8369 138.333 84.6969 138.1C84.5569 137.857 84.3562 137.666 84.0949 137.526C83.8429 137.386 83.5302 137.316 83.1569 137.316C82.7742 137.316 82.4289 137.4 82.1209 137.568C81.8222 137.727 81.5842 137.969 81.4069 138.296C81.2389 138.623 81.1549 139.015 81.1549 139.472V139.612C81.1549 140.069 81.2389 140.461 81.4069 140.788C81.5842 141.105 81.8222 141.348 82.1209 141.516C82.4289 141.684 82.7742 141.768 83.1569 141.768C83.7262 141.768 84.1556 141.623 84.4449 141.334C84.7436 141.035 84.9302 140.653 85.0049 140.186L86.5589 140.55C86.4469 141.035 86.2462 141.479 85.9569 141.88C85.6676 142.281 85.2849 142.603 84.8089 142.846C84.3422 143.079 83.7776 143.196 83.1149 143.196ZM91.401 143.196C90.7104 143.196 90.0897 143.056 89.539 142.776C88.9977 142.487 88.5684 142.081 88.251 141.558C87.943 141.026 87.789 140.391 87.789 139.654V139.43C87.789 138.693 87.943 138.058 88.251 137.526C88.5684 136.994 88.9977 136.588 89.539 136.308C90.0897 136.028 90.7104 135.888 91.401 135.888C92.0917 135.888 92.7077 136.028 93.249 136.308C93.7904 136.588 94.215 136.994 94.523 137.526C94.8404 138.058 94.999 138.693 94.999 139.43V139.654C94.999 140.391 94.8404 141.026 94.523 141.558C94.215 142.081 93.7904 142.487 93.249 142.776C92.7077 143.056 92.0917 143.196 91.401 143.196ZM91.401 141.768C91.989 141.768 92.4697 141.581 92.843 141.208C93.2164 140.825 93.403 140.293 93.403 139.612V139.472C93.403 138.791 93.2164 138.263 92.843 137.89C92.4697 137.507 91.989 137.316 91.401 137.316C90.813 137.316 90.3324 137.507 89.959 137.89C89.5857 138.263 89.399 138.791 89.399 139.472V139.612C89.399 140.293 89.5857 140.825 89.959 141.208C90.3324 141.581 90.813 141.768 91.401 141.768ZM96.711 143V136.084H98.293V136.854H98.531C98.6523 136.621 98.853 136.415 99.133 136.238C99.4223 136.051 99.805 135.958 100.281 135.958C100.785 135.958 101.191 136.061 101.499 136.266C101.807 136.471 102.04 136.733 102.199 137.05H102.423C102.582 136.733 102.81 136.471 103.109 136.266C103.408 136.061 103.832 135.958 104.383 135.958C104.812 135.958 105.2 136.051 105.545 136.238C105.9 136.425 106.18 136.7 106.385 137.064C106.6 137.428 106.707 137.881 106.707 138.422V143H105.097V138.534C105.097 138.133 104.99 137.829 104.775 137.624C104.56 137.409 104.262 137.302 103.879 137.302C103.459 137.302 103.123 137.442 102.871 137.722C102.628 137.993 102.507 138.385 102.507 138.898V143H100.911V138.534C100.911 138.133 100.804 137.829 100.589 137.624C100.374 137.409 100.076 137.302 99.693 137.302C99.2636 137.302 98.9276 137.442 98.685 137.722C98.4423 137.993 98.321 138.385 98.321 138.898V143H96.711ZM108.688 145.8V136.084H110.27V136.994H110.508C110.666 136.705 110.918 136.448 111.264 136.224C111.618 136 112.122 135.888 112.776 135.888C113.336 135.888 113.854 136.028 114.33 136.308C114.815 136.579 115.202 136.98 115.492 137.512C115.781 138.044 115.926 138.683 115.926 139.43V139.654C115.926 140.401 115.781 141.04 115.492 141.572C115.202 142.104 114.82 142.51 114.344 142.79C113.868 143.061 113.345 143.196 112.776 143.196C112.337 143.196 111.968 143.145 111.67 143.042C111.38 142.939 111.142 142.804 110.956 142.636C110.778 142.468 110.638 142.3 110.536 142.132H110.298V145.8H108.688ZM112.3 141.796C112.888 141.796 113.368 141.609 113.742 141.236C114.124 140.853 114.316 140.312 114.316 139.612V139.472C114.316 138.763 114.124 138.221 113.742 137.848C113.359 137.475 112.878 137.288 112.3 137.288C111.721 137.288 111.236 137.475 110.844 137.848C110.461 138.221 110.27 138.763 110.27 139.472V139.612C110.27 140.312 110.461 140.853 110.844 141.236C111.236 141.609 111.721 141.796 112.3 141.796ZM117.629 143V133.2H119.239V143H117.629ZM124.443 143.196C123.753 143.196 123.141 143.051 122.609 142.762C122.087 142.463 121.676 142.048 121.377 141.516C121.088 140.975 120.943 140.345 120.943 139.626V139.458C120.943 138.73 121.088 138.1 121.377 137.568C121.667 137.036 122.073 136.625 122.595 136.336C123.118 136.037 123.72 135.888 124.401 135.888C125.073 135.888 125.661 136.037 126.165 136.336C126.669 136.625 127.061 137.036 127.341 137.568C127.621 138.1 127.761 138.721 127.761 139.43V140.004H122.567C122.586 140.545 122.777 140.979 123.141 141.306C123.505 141.633 123.953 141.796 124.485 141.796C125.008 141.796 125.395 141.684 125.647 141.46C125.899 141.227 126.091 140.965 126.221 140.676L127.551 141.362C127.421 141.614 127.229 141.885 126.977 142.174C126.735 142.454 126.408 142.697 125.997 142.902C125.587 143.098 125.069 143.196 124.443 143.196ZM122.581 138.786H126.123C126.086 138.329 125.909 137.965 125.591 137.694C125.283 137.423 124.882 137.288 124.387 137.288C123.874 137.288 123.463 137.423 123.155 137.694C122.847 137.965 122.656 138.329 122.581 138.786ZM128.361 143L130.937 139.514L128.403 136.084H130.279L131.973 138.478H132.211L133.905 136.084H135.767L133.233 139.514L135.809 143H133.919L132.211 140.564H131.973L130.265 143H128.361ZM140.438 143V141.516H141.754V134.684H140.438V133.2H144.428C145.735 133.2 146.734 133.531 147.424 134.194C148.115 134.857 148.46 135.851 148.46 137.176V139.024C148.46 140.349 148.115 141.343 147.424 142.006C146.734 142.669 145.735 143 144.428 143H140.438ZM143.434 141.474H144.442C145.236 141.474 145.824 141.269 146.206 140.858C146.589 140.447 146.78 139.855 146.78 139.08V137.134C146.78 136.341 146.589 135.743 146.206 135.342C145.824 134.931 145.236 134.726 144.442 134.726H143.434V141.474ZM153.291 143.196C152.6 143.196 151.989 143.051 151.457 142.762C150.934 142.463 150.524 142.048 150.225 141.516C149.936 140.975 149.791 140.345 149.791 139.626V139.458C149.791 138.73 149.936 138.1 150.225 137.568C150.514 137.036 150.92 136.625 151.443 136.336C151.966 136.037 152.568 135.888 153.249 135.888C153.921 135.888 154.509 136.037 155.013 136.336C155.517 136.625 155.909 137.036 156.189 137.568C156.469 138.1 156.609 138.721 156.609 139.43V140.004H151.415C151.434 140.545 151.625 140.979 151.989 141.306C152.353 141.633 152.801 141.796 153.333 141.796C153.856 141.796 154.243 141.684 154.495 141.46C154.747 141.227 154.938 140.965 155.069 140.676L156.399 141.362C156.268 141.614 156.077 141.885 155.825 142.174C155.582 142.454 155.256 142.697 154.845 142.902C154.434 143.098 153.916 143.196 153.291 143.196ZM151.429 138.786H154.971C154.934 138.329 154.756 137.965 154.439 137.694C154.131 137.423 153.73 137.288 153.235 137.288C152.722 137.288 152.311 137.423 152.003 137.694C151.695 137.965 151.504 138.329 151.429 138.786ZM158.206 143V133.2H164.31V134.726H159.9V137.316H163.96V138.856H159.9V143H158.206ZM165.754 143V136.084H167.364V143H165.754ZM166.552 135.202C166.263 135.202 166.011 135.109 165.796 134.922C165.591 134.726 165.488 134.469 165.488 134.152C165.488 133.835 165.591 133.583 165.796 133.396C166.011 133.2 166.263 133.102 166.552 133.102C166.86 133.102 167.112 133.2 167.308 133.396C167.513 133.583 167.616 133.835 167.616 134.152C167.616 134.469 167.513 134.726 167.308 134.922C167.112 135.109 166.86 135.202 166.552 135.202ZM26.5623 161L25.4843 154.084H27.0803L27.8223 159.922H28.0603L29.1103 154.084H31.6863L32.7363 159.922H32.9743L33.7163 154.084H35.3123L34.2343 161H31.5603L30.5243 155.162H30.2863L29.2363 161H26.5623ZM40.1588 161.196C39.4682 161.196 38.8475 161.056 38.2968 160.776C37.7555 160.487 37.3262 160.081 37.0088 159.558C36.7008 159.026 36.5468 158.391 36.5468 157.654V157.43C36.5468 156.693 36.7008 156.058 37.0088 155.526C37.3262 154.994 37.7555 154.588 38.2968 154.308C38.8475 154.028 39.4682 153.888 40.1588 153.888C40.8495 153.888 41.4655 154.028 42.0068 154.308C42.5482 154.588 42.9728 154.994 43.2808 155.526C43.5982 156.058 43.7568 156.693 43.7568 157.43V157.654C43.7568 158.391 43.5982 159.026 43.2808 159.558C42.9728 160.081 42.5482 160.487 42.0068 160.776C41.4655 161.056 40.8495 161.196 40.1588 161.196ZM40.1588 159.768C40.7468 159.768 41.2275 159.581 41.6008 159.208C41.9742 158.825 42.1608 158.293 42.1608 157.612V157.472C42.1608 156.791 41.9742 156.263 41.6008 155.89C41.2275 155.507 40.7468 155.316 40.1588 155.316C39.5708 155.316 39.0902 155.507 38.7168 155.89C38.3435 156.263 38.1568 156.791 38.1568 157.472V157.612C38.1568 158.293 38.3435 158.825 38.7168 159.208C39.0902 159.581 39.5708 159.768 40.1588 159.768ZM45.4688 161V154.084H47.0508V154.882H47.2888C47.3914 154.593 47.5641 154.383 47.8068 154.252C48.0494 154.121 48.3388 154.056 48.6748 154.056H49.5148V155.484H48.6468C48.1801 155.484 47.8021 155.61 47.5128 155.862C47.2234 156.105 47.0788 156.483 47.0788 156.996V161H45.4688ZM50.9375 161V151.2H52.5475V156.702H52.7855L55.2775 154.084H57.3915L54.0455 157.43L57.5035 161H55.4175L52.7855 158.186H52.5475V161H50.9375ZM59.9482 161V155.414H58.1002V154.084H59.9482V152.684C59.9482 152.227 60.0788 151.867 60.3402 151.606C60.6108 151.335 60.9655 151.2 61.4042 151.2H63.1962V152.53H61.9362C61.6748 152.53 61.5442 152.67 61.5442 152.95V154.084H63.4482V155.414H61.5442V161H59.9482ZM64.4982 161V151.2H66.0942V161H64.4982ZM71.4127 161.196C70.7221 161.196 70.1014 161.056 69.5507 160.776C69.0094 160.487 68.5801 160.081 68.2627 159.558C67.9547 159.026 67.8007 158.391 67.8007 157.654V157.43C67.8007 156.693 67.9547 156.058 68.2627 155.526C68.5801 154.994 69.0094 154.588 69.5507 154.308C70.1014 154.028 70.7221 153.888 71.4127 153.888C72.1034 153.888 72.7194 154.028 73.2607 154.308C73.8021 154.588 74.2267 154.994 74.5347 155.526C74.8521 156.058 75.0107 156.693 75.0107 157.43V157.654C75.0107 158.391 74.8521 159.026 74.5347 159.558C74.2267 160.081 73.8021 160.487 73.2607 160.776C72.7194 161.056 72.1034 161.196 71.4127 161.196ZM71.4127 159.768C72.0007 159.768 72.4814 159.581 72.8547 159.208C73.2281 158.825 73.4147 158.293 73.4147 157.612V157.472C73.4147 156.791 73.2281 156.263 72.8547 155.89C72.4814 155.507 72.0007 155.316 71.4127 155.316C70.8247 155.316 70.3441 155.507 69.9707 155.89C69.5974 156.263 69.4107 156.791 69.4107 157.472V157.612C69.4107 158.293 69.5974 158.825 69.9707 159.208C70.3441 159.581 70.8247 159.768 71.4127 159.768ZM77.326 161L76.248 154.084H77.844L78.586 159.922H78.824L79.874 154.084H82.45L83.5 159.922H83.738L84.48 154.084H86.076L84.998 161H82.324L81.288 155.162H81.05L80 161H77.326ZM90.5435 161.196C89.6475 161.196 88.9102 161 88.3315 160.608C87.7529 160.216 87.4029 159.642 87.2815 158.886L88.7655 158.508C88.8309 158.863 88.9475 159.143 89.1155 159.348C89.2835 159.553 89.4889 159.698 89.7315 159.782C89.9835 159.866 90.2542 159.908 90.5435 159.908C90.9822 159.908 91.3089 159.829 91.5235 159.67C91.7475 159.511 91.8595 159.311 91.8595 159.068C91.8595 158.816 91.7522 158.629 91.5375 158.508C91.3322 158.387 91.0149 158.284 90.5855 158.2L90.1515 158.13C89.6755 158.037 89.2415 157.911 88.8495 157.752C88.4575 157.584 88.1402 157.36 87.8975 157.08C87.6642 156.791 87.5475 156.427 87.5475 155.988C87.5475 155.316 87.7949 154.798 88.2895 154.434C88.7935 154.07 89.4515 153.888 90.2635 153.888C91.0382 153.888 91.6775 154.061 92.1815 154.406C92.6855 154.751 93.0122 155.213 93.1615 155.792L91.6775 156.24C91.6029 155.848 91.4395 155.573 91.1875 155.414C90.9355 155.246 90.6275 155.162 90.2635 155.162C89.8902 155.162 89.6009 155.227 89.3955 155.358C89.1995 155.489 89.1015 155.675 89.1015 155.918C89.1015 156.161 89.2042 156.343 89.4095 156.464C89.6149 156.585 89.8902 156.674 90.2355 156.73L90.6695 156.814C91.1829 156.907 91.6449 157.029 92.0555 157.178C92.4755 157.327 92.8069 157.542 93.0495 157.822C93.2922 158.102 93.4135 158.48 93.4135 158.956C93.4135 159.675 93.1522 160.23 92.6295 160.622C92.1162 161.005 91.4209 161.196 90.5435 161.196ZM99.2694 161L98.1914 154.084H99.7874L100.529 159.922H100.767L101.817 154.084H104.393L105.443 159.922H105.681L106.423 154.084H108.019L106.941 161H104.267L103.231 155.162H102.993L101.943 161H99.2694ZM109.645 161V154.084H111.255V161H109.645ZM110.443 153.202C110.153 153.202 109.901 153.109 109.687 152.922C109.481 152.726 109.379 152.469 109.379 152.152C109.379 151.835 109.481 151.583 109.687 151.396C109.901 151.2 110.153 151.102 110.443 151.102C110.751 151.102 111.003 151.2 111.199 151.396C111.404 151.583 111.507 151.835 111.507 152.152C111.507 152.469 111.404 152.726 111.199 152.922C111.003 153.109 110.751 153.202 110.443 153.202ZM115.927 161C115.479 161 115.12 160.869 114.849 160.608C114.588 160.337 114.457 159.973 114.457 159.516V155.414H112.651V154.084H114.457V151.858H116.067V154.084H118.055V155.414H116.067V159.25C116.067 159.53 116.198 159.67 116.459 159.67H117.845V161H115.927ZM119.693 161V151.2H121.303V154.994H121.541C121.616 154.835 121.737 154.677 121.905 154.518C122.073 154.359 122.293 154.229 122.563 154.126C122.843 154.023 123.193 153.972 123.613 153.972C124.145 153.972 124.617 154.093 125.027 154.336C125.438 154.569 125.755 154.901 125.979 155.33C126.213 155.759 126.329 156.268 126.329 156.856V161H124.719V156.982C124.719 156.422 124.579 156.007 124.299 155.736C124.029 155.456 123.641 155.316 123.137 155.316C122.568 155.316 122.12 155.507 121.793 155.89C121.467 156.263 121.303 156.8 121.303 157.5V161H119.693ZM134.731 161.196C133.835 161.196 133.098 161 132.519 160.608C131.94 160.216 131.59 159.642 131.469 158.886L132.953 158.508C133.018 158.863 133.135 159.143 133.303 159.348C133.471 159.553 133.676 159.698 133.919 159.782C134.171 159.866 134.442 159.908 134.731 159.908C135.17 159.908 135.496 159.829 135.711 159.67C135.935 159.511 136.047 159.311 136.047 159.068C136.047 158.816 135.94 158.629 135.725 158.508C135.52 158.387 135.202 158.284 134.773 158.2L134.339 158.13C133.863 158.037 133.429 157.911 133.037 157.752C132.645 157.584 132.328 157.36 132.085 157.08C131.852 156.791 131.735 156.427 131.735 155.988C131.735 155.316 131.982 154.798 132.477 154.434C132.981 154.07 133.639 153.888 134.451 153.888C135.226 153.888 135.865 154.061 136.369 154.406C136.873 154.751 137.2 155.213 137.349 155.792L135.865 156.24C135.79 155.848 135.627 155.573 135.375 155.414C135.123 155.246 134.815 155.162 134.451 155.162C134.078 155.162 133.788 155.227 133.583 155.358C133.387 155.489 133.289 155.675 133.289 155.918C133.289 156.161 133.392 156.343 133.597 156.464C133.802 156.585 134.078 156.674 134.423 156.73L134.857 156.814C135.37 156.907 135.832 157.029 136.243 157.178C136.663 157.327 136.994 157.542 137.237 157.822C137.48 158.102 137.601 158.48 137.601 158.956C137.601 159.675 137.34 160.23 136.817 160.622C136.304 161.005 135.608 161.196 134.731 161.196ZM139.23 161V154.084H140.84V161H139.23ZM140.028 153.202C139.739 153.202 139.487 153.109 139.272 152.922C139.067 152.726 138.964 152.469 138.964 152.152C138.964 151.835 139.067 151.583 139.272 151.396C139.487 151.2 139.739 151.102 140.028 151.102C140.336 151.102 140.588 151.2 140.784 151.396C140.99 151.583 141.092 151.835 141.092 152.152C141.092 152.469 140.99 152.726 140.784 152.922C140.588 153.109 140.336 153.202 140.028 153.202ZM142.881 161V154.084H144.463V154.854H144.701C144.822 154.621 145.023 154.415 145.303 154.238C145.592 154.051 145.975 153.958 146.451 153.958C146.955 153.958 147.361 154.061 147.669 154.266C147.977 154.471 148.21 154.733 148.369 155.05H148.593C148.752 154.733 148.98 154.471 149.279 154.266C149.578 154.061 150.002 153.958 150.553 153.958C150.982 153.958 151.37 154.051 151.715 154.238C152.07 154.425 152.35 154.7 152.555 155.064C152.77 155.428 152.877 155.881 152.877 156.422V161H151.267V156.534C151.267 156.133 151.16 155.829 150.945 155.624C150.73 155.409 150.432 155.302 150.049 155.302C149.629 155.302 149.293 155.442 149.041 155.722C148.798 155.993 148.677 156.385 148.677 156.898V161H147.081V156.534C147.081 156.133 146.974 155.829 146.759 155.624C146.544 155.409 146.246 155.302 145.863 155.302C145.434 155.302 145.098 155.442 144.855 155.722C144.612 155.993 144.491 156.385 144.491 156.898V161H142.881ZM154.857 163.8V154.084H156.439V154.994H156.677C156.836 154.705 157.088 154.448 157.433 154.224C157.788 154 158.292 153.888 158.945 153.888C159.505 153.888 160.023 154.028 160.499 154.308C160.985 154.579 161.372 154.98 161.661 155.512C161.951 156.044 162.095 156.683 162.095 157.43V157.654C162.095 158.401 161.951 159.04 161.661 159.572C161.372 160.104 160.989 160.51 160.513 160.79C160.037 161.061 159.515 161.196 158.945 161.196C158.507 161.196 158.138 161.145 157.839 161.042C157.55 160.939 157.312 160.804 157.125 160.636C156.948 160.468 156.808 160.3 156.705 160.132H156.467V163.8H154.857ZM158.469 159.796C159.057 159.796 159.538 159.609 159.911 159.236C160.294 158.853 160.485 158.312 160.485 157.612V157.472C160.485 156.763 160.294 156.221 159.911 155.848C159.529 155.475 159.048 155.288 158.469 155.288C157.891 155.288 157.405 155.475 157.013 155.848C156.631 156.221 156.439 156.763 156.439 157.472V157.612C156.439 158.312 156.631 158.853 157.013 159.236C157.405 159.609 157.891 159.796 158.469 159.796ZM163.799 161V151.2H165.409V161H163.799ZM170.613 161.196C169.923 161.196 169.311 161.051 168.779 160.762C168.257 160.463 167.846 160.048 167.547 159.516C167.258 158.975 167.113 158.345 167.113 157.626V157.458C167.113 156.73 167.258 156.1 167.547 155.568C167.837 155.036 168.243 154.625 168.765 154.336C169.288 154.037 169.89 153.888 170.571 153.888C171.243 153.888 171.831 154.037 172.335 154.336C172.839 154.625 173.231 155.036 173.511 155.568C173.791 156.1 173.931 156.721 173.931 157.43V158.004H168.737C168.756 158.545 168.947 158.979 169.311 159.306C169.675 159.633 170.123 159.796 170.655 159.796C171.178 159.796 171.565 159.684 171.817 159.46C172.069 159.227 172.261 158.965 172.391 158.676L173.721 159.362C173.591 159.614 173.399 159.885 173.147 160.174C172.905 160.454 172.578 160.697 172.167 160.902C171.757 161.098 171.239 161.196 170.613 161.196ZM168.751 156.786H172.293C172.256 156.329 172.079 155.965 171.761 155.694C171.453 155.423 171.052 155.288 170.557 155.288C170.044 155.288 169.633 155.423 169.325 155.694C169.017 155.965 168.826 156.329 168.751 156.786ZM51.2499 179.196C50.6899 179.196 50.1672 179.061 49.6819 178.79C49.1966 178.51 48.8092 178.104 48.5199 177.572C48.2306 177.04 48.0859 176.401 48.0859 175.654V175.43C48.0859 174.683 48.2306 174.044 48.5199 173.512C48.8092 172.98 49.1919 172.579 49.6679 172.308C50.1532 172.028 50.6806 171.888 51.2499 171.888C51.6792 171.888 52.0432 171.939 52.3419 172.042C52.6406 172.145 52.8786 172.275 53.0559 172.434C53.2426 172.593 53.3872 172.765 53.4899 172.952H53.7279V169.2H55.3239V179H53.7559V178.09H53.5179C53.3499 178.37 53.0932 178.627 52.7479 178.86C52.4026 179.084 51.9032 179.196 51.2499 179.196ZM51.7259 177.796C52.3046 177.796 52.7852 177.609 53.1679 177.236C53.5506 176.853 53.7419 176.312 53.7419 175.612V175.472C53.7419 174.763 53.5506 174.221 53.1679 173.848C52.7946 173.475 52.3139 173.288 51.7259 173.288C51.1472 173.288 50.6619 173.475 50.2699 173.848C49.8872 174.221 49.6959 174.763 49.6959 175.472V175.612C49.6959 176.312 49.8872 176.853 50.2699 177.236C50.6619 177.609 51.1472 177.796 51.7259 177.796ZM57.3633 179V172.084H58.9453V172.882H59.1833C59.286 172.593 59.4586 172.383 59.7013 172.252C59.944 172.121 60.2333 172.056 60.5693 172.056H61.4093V173.484H60.5413C60.0746 173.484 59.6966 173.61 59.4073 173.862C59.118 174.105 58.9733 174.483 58.9733 174.996V179H57.3633ZM64.7963 179.196C64.311 179.196 63.8723 179.112 63.4803 178.944C63.0883 178.767 62.7757 178.515 62.5423 178.188C62.3183 177.861 62.2063 177.46 62.2063 176.984C62.2063 176.517 62.3183 176.125 62.5423 175.808C62.7757 175.491 63.093 175.253 63.4943 175.094C63.8957 174.926 64.353 174.842 64.8663 174.842H66.8683V174.422C66.8683 174.058 66.7563 173.764 66.5323 173.54C66.3083 173.307 65.9583 173.19 65.4823 173.19C65.0157 173.19 64.661 173.302 64.4183 173.526C64.185 173.741 64.031 174.021 63.9563 174.366L62.4723 173.876C62.5843 173.512 62.7617 173.181 63.0043 172.882C63.2563 172.583 63.5877 172.345 63.9983 172.168C64.409 171.981 64.913 171.888 65.5103 171.888C66.4157 171.888 67.125 172.117 67.6383 172.574C68.161 173.022 68.4223 173.675 68.4223 174.534V177.25C68.4223 177.53 68.553 177.67 68.8143 177.67H69.4023V179H68.2683C67.9323 179 67.657 178.916 67.4423 178.748C67.2277 178.58 67.1203 178.351 67.1203 178.062V178.034H66.8823C66.8263 178.165 66.7283 178.323 66.5883 178.51C66.4483 178.697 66.2337 178.86 65.9443 179C65.6643 179.131 65.2817 179.196 64.7963 179.196ZM65.0623 177.88C65.5943 177.88 66.0283 177.731 66.3643 177.432C66.7003 177.124 66.8683 176.713 66.8683 176.2V176.06H64.9643C64.619 176.06 64.339 176.135 64.1243 176.284C63.9097 176.433 63.8023 176.653 63.8023 176.942C63.8023 177.222 63.9143 177.451 64.1383 177.628C64.3623 177.796 64.6703 177.88 65.0623 177.88ZM70.248 175.57V175.36C70.248 174.632 70.3927 174.011 70.682 173.498C70.9713 172.975 71.3587 172.579 71.844 172.308C72.3293 172.028 72.8613 171.888 73.44 171.888C74.0933 171.888 74.588 172.005 74.924 172.238C75.2693 172.471 75.5213 172.723 75.68 172.994H75.918V172.084H77.486V180.316C77.486 180.773 77.3553 181.133 77.094 181.394C76.8327 181.665 76.478 181.8 76.03 181.8H71.382V180.4H75.484C75.7547 180.4 75.89 180.26 75.89 179.98V177.978H75.652C75.5493 178.137 75.4093 178.3 75.232 178.468C75.0547 178.627 74.8213 178.762 74.532 178.874C74.2427 178.986 73.8787 179.042 73.44 179.042C72.8613 179.042 72.3293 178.907 71.844 178.636C71.3587 178.356 70.9713 177.959 70.682 177.446C70.3927 176.923 70.248 176.298 70.248 175.57ZM73.888 177.628C74.4667 177.628 74.9473 177.446 75.33 177.082C75.7127 176.709 75.904 176.191 75.904 175.528V175.388C75.904 174.716 75.7127 174.198 75.33 173.834C74.9567 173.47 74.476 173.288 73.888 173.288C73.3093 173.288 72.824 173.47 72.432 173.834C72.0493 174.198 71.858 174.716 71.858 175.388V175.528C71.858 176.191 72.0493 176.709 72.432 177.082C72.824 177.446 73.3093 177.628 73.888 177.628ZM79.4974 176.144V174.702H83.6414V176.144H79.4974ZM87.8061 179.196C87.3208 179.196 86.8821 179.112 86.4901 178.944C86.0981 178.767 85.7854 178.515 85.5521 178.188C85.3281 177.861 85.2161 177.46 85.2161 176.984C85.2161 176.517 85.3281 176.125 85.5521 175.808C85.7854 175.491 86.1028 175.253 86.5041 175.094C86.9054 174.926 87.3628 174.842 87.8761 174.842H89.8781V174.422C89.8781 174.058 89.7661 173.764 89.5421 173.54C89.3181 173.307 88.9681 173.19 88.4921 173.19C88.0254 173.19 87.6708 173.302 87.4281 173.526C87.1948 173.741 87.0408 174.021 86.9661 174.366L85.4821 173.876C85.5941 173.512 85.7714 173.181 86.0141 172.882C86.2661 172.583 86.5974 172.345 87.0081 172.168C87.4188 171.981 87.9228 171.888 88.5201 171.888C89.4254 171.888 90.1348 172.117 90.6481 172.574C91.1708 173.022 91.4321 173.675 91.4321 174.534V177.25C91.4321 177.53 91.5628 177.67 91.8241 177.67H92.4121V179H91.2781C90.9421 179 90.6668 178.916 90.4521 178.748C90.2374 178.58 90.1301 178.351 90.1301 178.062V178.034H89.8921C89.8361 178.165 89.7381 178.323 89.5981 178.51C89.4581 178.697 89.2434 178.86 88.9541 179C88.6741 179.131 88.2914 179.196 87.8061 179.196ZM88.0721 177.88C88.6041 177.88 89.0381 177.731 89.3741 177.432C89.7101 177.124 89.8781 176.713 89.8781 176.2V176.06H87.9741C87.6288 176.06 87.3488 176.135 87.1341 176.284C86.9194 176.433 86.8121 176.653 86.8121 176.942C86.8121 177.222 86.9241 177.451 87.1481 177.628C87.3721 177.796 87.6801 177.88 88.0721 177.88ZM93.7442 179V172.084H95.3262V173.05H95.5642C95.6855 172.789 95.9048 172.541 96.2222 172.308C96.5395 172.075 97.0202 171.958 97.6642 171.958C98.1962 171.958 98.6675 172.079 99.0782 172.322C99.4888 172.565 99.8062 172.901 100.03 173.33C100.264 173.759 100.38 174.268 100.38 174.856V179H98.7702V174.982C98.7702 174.422 98.6302 174.007 98.3502 173.736C98.0795 173.456 97.6922 173.316 97.1882 173.316C96.6188 173.316 96.1708 173.507 95.8442 173.89C95.5175 174.263 95.3542 174.8 95.3542 175.5V179H93.7442ZM105.185 179.196C104.625 179.196 104.103 179.061 103.617 178.79C103.132 178.51 102.745 178.104 102.455 177.572C102.166 177.04 102.021 176.401 102.021 175.654V175.43C102.021 174.683 102.166 174.044 102.455 173.512C102.745 172.98 103.127 172.579 103.603 172.308C104.089 172.028 104.616 171.888 105.185 171.888C105.615 171.888 105.979 171.939 106.277 172.042C106.576 172.145 106.814 172.275 106.991 172.434C107.178 172.593 107.323 172.765 107.425 172.952H107.663V169.2H109.259V179H107.691V178.09H107.453C107.285 178.37 107.029 178.627 106.683 178.86C106.338 179.084 105.839 179.196 105.185 179.196ZM105.661 177.796C106.24 177.796 106.721 177.609 107.103 177.236C107.486 176.853 107.677 176.312 107.677 175.612V175.472C107.677 174.763 107.486 174.221 107.103 173.848C106.73 173.475 106.249 173.288 105.661 173.288C105.083 173.288 104.597 173.475 104.205 173.848C103.823 174.221 103.631 174.763 103.631 175.472V175.612C103.631 176.312 103.823 176.853 104.205 177.236C104.597 177.609 105.083 177.796 105.661 177.796ZM111.271 176.144V174.702H115.415V176.144H111.271ZM120.266 179.196C119.706 179.196 119.183 179.061 118.698 178.79C118.212 178.51 117.825 178.104 117.536 177.572C117.246 177.04 117.102 176.401 117.102 175.654V175.43C117.102 174.683 117.246 174.044 117.536 173.512C117.825 172.98 118.208 172.579 118.684 172.308C119.169 172.028 119.696 171.888 120.266 171.888C120.695 171.888 121.059 171.939 121.358 172.042C121.656 172.145 121.894 172.275 122.072 172.434C122.258 172.593 122.403 172.765 122.506 172.952H122.744V169.2H124.34V179H122.772V178.09H122.534C122.366 178.37 122.109 178.627 121.764 178.86C121.418 179.084 120.919 179.196 120.266 179.196ZM120.742 177.796C121.32 177.796 121.801 177.609 122.184 177.236C122.566 176.853 122.758 176.312 122.758 175.612V175.472C122.758 174.763 122.566 174.221 122.184 173.848C121.81 173.475 121.33 173.288 120.742 173.288C120.163 173.288 119.678 173.475 119.286 173.848C118.903 174.221 118.712 174.763 118.712 175.472V175.612C118.712 176.312 118.903 176.853 119.286 177.236C119.678 177.609 120.163 177.796 120.742 177.796ZM126.379 179V172.084H127.961V172.882H128.199C128.302 172.593 128.474 172.383 128.717 172.252C128.96 172.121 129.249 172.056 129.585 172.056H130.425V173.484H129.557C129.09 173.484 128.712 173.61 128.423 173.862C128.134 174.105 127.989 174.483 127.989 174.996V179H126.379ZM134.878 179.196C134.187 179.196 133.566 179.056 133.016 178.776C132.474 178.487 132.045 178.081 131.728 177.558C131.42 177.026 131.266 176.391 131.266 175.654V175.43C131.266 174.693 131.42 174.058 131.728 173.526C132.045 172.994 132.474 172.588 133.016 172.308C133.566 172.028 134.187 171.888 134.878 171.888C135.568 171.888 136.184 172.028 136.726 172.308C137.267 172.588 137.692 172.994 138 173.526C138.317 174.058 138.476 174.693 138.476 175.43V175.654C138.476 176.391 138.317 177.026 138 177.558C137.692 178.081 137.267 178.487 136.726 178.776C136.184 179.056 135.568 179.196 134.878 179.196ZM134.878 177.768C135.466 177.768 135.946 177.581 136.32 177.208C136.693 176.825 136.88 176.293 136.88 175.612V175.472C136.88 174.791 136.693 174.263 136.32 173.89C135.946 173.507 135.466 173.316 134.878 173.316C134.29 173.316 133.809 173.507 133.436 173.89C133.062 174.263 132.876 174.791 132.876 175.472V175.612C132.876 176.293 133.062 176.825 133.436 177.208C133.809 177.581 134.29 177.768 134.878 177.768ZM140.188 181.8V172.084H141.77V172.994H142.008C142.166 172.705 142.418 172.448 142.764 172.224C143.118 172 143.622 171.888 144.276 171.888C144.836 171.888 145.354 172.028 145.83 172.308C146.315 172.579 146.702 172.98 146.992 173.512C147.281 174.044 147.426 174.683 147.426 175.43V175.654C147.426 176.401 147.281 177.04 146.992 177.572C146.702 178.104 146.32 178.51 145.844 178.79C145.368 179.061 144.845 179.196 144.276 179.196C143.837 179.196 143.468 179.145 143.17 179.042C142.88 178.939 142.642 178.804 142.456 178.636C142.278 178.468 142.138 178.3 142.036 178.132H141.798V181.8H140.188ZM143.8 177.796C144.388 177.796 144.868 177.609 145.242 177.236C145.624 176.853 145.816 176.312 145.816 175.612V175.472C145.816 174.763 145.624 174.221 145.242 173.848C144.859 173.475 144.378 173.288 143.8 173.288C143.221 173.288 142.736 173.475 142.344 173.848C141.961 174.221 141.77 174.763 141.77 175.472V175.612C141.77 176.312 141.961 176.853 142.344 177.236C142.736 177.609 143.221 177.796 143.8 177.796ZM150.041 179.196C149.686 179.196 149.388 179.079 149.145 178.846C148.912 178.613 148.795 178.314 148.795 177.95C148.795 177.595 148.912 177.301 149.145 177.068C149.388 176.835 149.686 176.718 150.041 176.718C150.396 176.718 150.69 176.835 150.923 177.068C151.156 177.301 151.273 177.6 151.273 177.964C151.273 178.328 151.156 178.627 150.923 178.86C150.69 179.084 150.396 179.196 150.041 179.196Z" fill="white"/>
</svg>
