<svg width="200" height="240" viewBox="0 0 200 240" fill="none" xmlns="http://www.w3.org/2000/svg">
<path d="M67.856 32.3834C67.8398 30.9753 67.9209 29.5347 68.0992 28.0942C69.9805 12.7985 82.8738 0.837107 98.2971 0.0439987C116.818 -0.910969 132.144 13.802 132.144 32.0759L132.144 32.1568C132.144 36.6565 135.663 40.3793 140.172 40.3793L165.18 40.3793C174.797 40.3793 183.506 44.2639 189.815 50.544C196.108 56.8403 200 65.5322 200 75.1304L200 212.112C199.87 211.416 199.741 210.704 199.659 209.991C197.356 226.938 182.809 240 165.18 240L34.82 240C15.5854 240 -2.50696e-05 224.445 -2.42305e-05 205.249L-1.85436e-05 75.1466C-1.77044e-05 55.9501 15.5854 40.3954 34.82 40.3954L59.8443 40.3954C64.2718 40.3954 67.9046 36.8022 67.856 32.3834Z" fill="#2050F2"/>
<rect x="81.1545" y="13.71" width="37.259" height="37.2851" rx="18.6295" fill="#E4EAF2"/>
<rect x="81.1545" y="13.71" width="37.259" height="37.2851" rx="18.6295" stroke="#E4EAF2"/>
<path d="M52.2892 94L55.9692 80H60.5692L64.2492 94H61.5292L60.7692 90.92H55.7692L55.0092 94H52.2892ZM56.3892 88.48H60.1492L58.4492 81.66H58.0892L56.3892 88.48ZM66.005 94V80H68.525V94H66.005ZM71.3175 94V80H73.8375V94H71.3175ZM76.59 90.04V87.76H82.51V90.04H76.59ZM85.2628 94V84.08H87.7828V94H85.2628ZM86.5228 82.92C86.0695 82.92 85.6828 82.7733 85.3628 82.48C85.0561 82.1867 84.9028 81.8 84.9028 81.32C84.9028 80.84 85.0561 80.4533 85.3628 80.16C85.6828 79.8667 86.0695 79.72 86.5228 79.72C86.9895 79.72 87.3761 79.8667 87.6828 80.16C87.9895 80.4533 88.1428 80.84 88.1428 81.32C88.1428 81.8 87.9895 82.1867 87.6828 82.48C87.3761 82.7733 86.9895 82.92 86.5228 82.92ZM90.5753 94V84.08H93.0553V85.38H93.4153C93.5753 85.0333 93.8753 84.7067 94.3153 84.4C94.7553 84.08 95.422 83.92 96.3153 83.92C97.0886 83.92 97.762 84.1 98.3353 84.46C98.922 84.8067 99.3753 85.2933 99.6953 85.92C100.015 86.5333 100.175 87.2533 100.175 88.08V94H97.6553V88.28C97.6553 87.5333 97.4686 86.9733 97.0953 86.6C96.7353 86.2267 96.2153 86.04 95.5353 86.04C94.762 86.04 94.162 86.3 93.7353 86.82C93.3086 87.3267 93.0953 88.04 93.0953 88.96V94H90.5753ZM102.86 90.04V87.76H108.78V90.04H102.86ZM116.892 94.28C115.132 94.28 113.732 93.8 112.692 92.84C111.652 91.8667 111.132 90.48 111.132 88.68V85.32C111.132 83.52 111.652 82.14 112.692 81.18C113.732 80.2067 115.132 79.72 116.892 79.72C118.652 79.72 120.052 80.2067 121.092 81.18C122.132 82.14 122.652 83.52 122.652 85.32V88.68C122.652 90.48 122.132 91.8667 121.092 92.84C120.052 93.8 118.652 94.28 116.892 94.28ZM116.892 91.92C117.879 91.92 118.646 91.6333 119.192 91.06C119.739 90.4867 120.012 89.72 120.012 88.76V85.24C120.012 84.28 119.739 83.5133 119.192 82.94C118.646 82.3667 117.879 82.08 116.892 82.08C115.919 82.08 115.152 82.3667 114.592 82.94C114.046 83.5133 113.772 84.28 113.772 85.24V88.76C113.772 89.72 114.046 90.4867 114.592 91.06C115.152 91.6333 115.919 91.92 116.892 91.92ZM125.048 94V84.08H127.528V85.38H127.888C128.048 85.0333 128.348 84.7067 128.788 84.4C129.228 84.08 129.895 83.92 130.788 83.92C131.561 83.92 132.235 84.1 132.808 84.46C133.395 84.8067 133.848 85.2933 134.168 85.92C134.488 86.5333 134.648 87.2533 134.648 88.08V94H132.128V88.28C132.128 87.5333 131.941 86.9733 131.568 86.6C131.208 86.2267 130.688 86.04 130.008 86.04C129.235 86.04 128.635 86.3 128.208 86.82C127.781 87.3267 127.568 88.04 127.568 88.96V94H125.048ZM141.892 94.28C140.906 94.28 140.032 94.0733 139.272 93.66C138.526 93.2333 137.939 92.64 137.512 91.88C137.099 91.1067 136.892 90.2 136.892 89.16V88.92C136.892 87.88 137.099 86.98 137.512 86.22C137.926 85.4467 138.506 84.8533 139.252 84.44C139.999 84.0133 140.866 83.8 141.852 83.8C142.826 83.8 143.672 84.02 144.392 84.46C145.112 84.8867 145.672 85.4867 146.072 86.26C146.472 87.02 146.672 87.9067 146.672 88.92V89.78H139.452C139.479 90.46 139.732 91.0133 140.212 91.44C140.692 91.8667 141.279 92.08 141.972 92.08C142.679 92.08 143.199 91.9267 143.532 91.62C143.866 91.3133 144.119 90.9733 144.292 90.6L146.352 91.68C146.166 92.0267 145.892 92.4067 145.532 92.82C145.186 93.22 144.719 93.5667 144.132 93.86C143.546 94.14 142.799 94.28 141.892 94.28ZM139.472 87.9H144.112C144.059 87.3267 143.826 86.8667 143.412 86.52C143.012 86.1733 142.486 86 141.832 86C141.152 86 140.612 86.1733 140.212 86.52C139.812 86.8667 139.566 87.3267 139.472 87.9ZM48.3863 120V117.68H50.2263V108.32H48.3863V106H54.1463C56.0263 106 57.453 106.48 58.4263 107.44C59.413 108.387 59.9063 109.8 59.9063 111.68V114.32C59.9063 116.2 59.413 117.62 58.4263 118.58C57.453 119.527 56.0263 120 54.1463 120H48.3863ZM52.8663 117.6H54.1863C55.253 117.6 56.033 117.32 56.5263 116.76C57.0196 116.2 57.2663 115.413 57.2663 114.4V111.6C57.2663 110.573 57.0196 109.787 56.5263 109.24C56.033 108.68 55.253 108.4 54.1863 108.4H52.8663V117.6ZM65.2666 120.28C64.56 120.28 63.9266 120.16 63.3666 119.92C62.8066 119.667 62.36 119.307 62.0266 118.84C61.7066 118.36 61.5466 117.78 61.5466 117.1C61.5466 116.42 61.7066 115.853 62.0266 115.4C62.36 114.933 62.8133 114.587 63.3866 114.36C63.9733 114.12 64.64 114 65.3866 114H68.1066V113.44C68.1066 112.973 67.96 112.593 67.6666 112.3C67.3733 111.993 66.9066 111.84 66.2666 111.84C65.64 111.84 65.1733 111.987 64.8666 112.28C64.56 112.56 64.36 112.927 64.2666 113.38L61.9466 112.6C62.1066 112.093 62.36 111.633 62.7066 111.22C63.0666 110.793 63.54 110.453 64.1266 110.2C64.7266 109.933 65.4533 109.8 66.3066 109.8C67.6133 109.8 68.6466 110.127 69.4066 110.78C70.1666 111.433 70.5466 112.38 70.5466 113.62V117.32C70.5466 117.72 70.7333 117.92 71.1066 117.92H71.9066V120H70.2266C69.7333 120 69.3266 119.88 69.0066 119.64C68.6866 119.4 68.5266 119.08 68.5266 118.68V118.66H68.1466C68.0933 118.82 67.9733 119.033 67.7866 119.3C67.6 119.553 67.3066 119.78 66.9066 119.98C66.5066 120.18 65.96 120.28 65.2666 120.28ZM65.7066 118.24C66.4133 118.24 66.9866 118.047 67.4266 117.66C67.88 117.26 68.1066 116.733 68.1066 116.08V115.88H65.5666C65.1 115.88 64.7333 115.98 64.4666 116.18C64.2 116.38 64.0666 116.66 64.0666 117.02C64.0666 117.38 64.2066 117.673 64.4866 117.9C64.7666 118.127 65.1733 118.24 65.7066 118.24ZM77.791 120.28C76.4977 120.28 75.4377 120 74.611 119.44C73.7843 118.88 73.2843 118.08 73.111 117.04L75.431 116.44C75.5243 116.907 75.6777 117.273 75.891 117.54C76.1177 117.807 76.391 118 76.711 118.12C77.0443 118.227 77.4043 118.28 77.791 118.28C78.3777 118.28 78.811 118.18 79.091 117.98C79.371 117.767 79.511 117.507 79.511 117.2C79.511 116.893 79.3777 116.66 79.111 116.5C78.8443 116.327 78.4177 116.187 77.831 116.08L77.271 115.98C76.5777 115.847 75.9443 115.667 75.371 115.44C74.7977 115.2 74.3377 114.873 73.991 114.46C73.6443 114.047 73.471 113.513 73.471 112.86C73.471 111.873 73.831 111.12 74.551 110.6C75.271 110.067 76.2177 109.8 77.391 109.8C78.4977 109.8 79.4177 110.047 80.151 110.54C80.8843 111.033 81.3643 111.68 81.591 112.48L79.251 113.2C79.1443 112.693 78.9243 112.333 78.591 112.12C78.271 111.907 77.871 111.8 77.391 111.8C76.911 111.8 76.5443 111.887 76.291 112.06C76.0377 112.22 75.911 112.447 75.911 112.74C75.911 113.06 76.0443 113.3 76.311 113.46C76.5777 113.607 76.9377 113.72 77.391 113.8L77.951 113.9C78.6977 114.033 79.371 114.213 79.971 114.44C80.5843 114.653 81.0643 114.967 81.411 115.38C81.771 115.78 81.951 116.327 81.951 117.02C81.951 118.06 81.571 118.867 80.811 119.44C80.0643 120 79.0577 120.28 77.791 120.28ZM84.1593 120V106H86.6793V111.3H87.0393C87.1459 111.087 87.3126 110.873 87.5393 110.66C87.7659 110.447 88.0659 110.273 88.4393 110.14C88.8259 109.993 89.3126 109.92 89.8993 109.92C90.6726 109.92 91.3459 110.1 91.9193 110.46C92.5059 110.807 92.9593 111.293 93.2793 111.92C93.5993 112.533 93.7593 113.253 93.7593 114.08V120H91.2393V114.28C91.2393 113.533 91.0526 112.973 90.6793 112.6C90.3193 112.227 89.7993 112.04 89.1193 112.04C88.3459 112.04 87.7459 112.3 87.3193 112.82C86.8926 113.327 86.6793 114.04 86.6793 114.96V120H84.1593ZM102.443 120.28C101.55 120.28 100.863 120.127 100.383 119.82C99.9035 119.513 99.5502 119.173 99.3235 118.8H98.9635V120H96.4835V106H99.0035V111.22H99.3635C99.5102 110.98 99.7035 110.753 99.9435 110.54C100.197 110.327 100.523 110.153 100.923 110.02C101.337 109.873 101.843 109.8 102.443 109.8C103.243 109.8 103.983 110 104.663 110.4C105.343 110.787 105.89 111.36 106.303 112.12C106.717 112.88 106.923 113.8 106.923 114.88V115.2C106.923 116.28 106.717 117.2 106.303 117.96C105.89 118.72 105.343 119.3 104.663 119.7C103.983 120.087 103.243 120.28 102.443 120.28ZM101.683 118.08C102.457 118.08 103.103 117.833 103.623 117.34C104.143 116.833 104.403 116.1 104.403 115.14V114.94C104.403 113.98 104.143 113.253 103.623 112.76C103.117 112.253 102.47 112 101.683 112C100.91 112 100.263 112.253 99.7435 112.76C99.2235 113.253 98.9635 113.98 98.9635 114.94V115.14C98.9635 116.1 99.2235 116.833 99.7435 117.34C100.263 117.833 100.91 118.08 101.683 118.08ZM113.957 120.28C112.971 120.28 112.084 120.08 111.297 119.68C110.511 119.28 109.891 118.7 109.437 117.94C108.984 117.18 108.757 116.267 108.757 115.2V114.88C108.757 113.813 108.984 112.9 109.437 112.14C109.891 111.38 110.511 110.8 111.297 110.4C112.084 110 112.971 109.8 113.957 109.8C114.944 109.8 115.831 110 116.617 110.4C117.404 110.8 118.024 111.38 118.477 112.14C118.931 112.9 119.157 113.813 119.157 114.88V115.2C119.157 116.267 118.931 117.18 118.477 117.94C118.024 118.7 117.404 119.28 116.617 119.68C115.831 120.08 114.944 120.28 113.957 120.28ZM113.957 118.04C114.731 118.04 115.371 117.793 115.877 117.3C116.384 116.793 116.637 116.073 116.637 115.14V114.94C116.637 114.007 116.384 113.293 115.877 112.8C115.384 112.293 114.744 112.04 113.957 112.04C113.184 112.04 112.544 112.293 112.037 112.8C111.531 113.293 111.277 114.007 111.277 114.94V115.14C111.277 116.073 111.531 116.793 112.037 117.3C112.544 117.793 113.184 118.04 113.957 118.04ZM124.563 120.28C123.857 120.28 123.223 120.16 122.663 119.92C122.103 119.667 121.657 119.307 121.323 118.84C121.003 118.36 120.843 117.78 120.843 117.1C120.843 116.42 121.003 115.853 121.323 115.4C121.657 114.933 122.11 114.587 122.683 114.36C123.27 114.12 123.937 114 124.683 114H127.403V113.44C127.403 112.973 127.257 112.593 126.963 112.3C126.67 111.993 126.203 111.84 125.563 111.84C124.937 111.84 124.47 111.987 124.163 112.28C123.857 112.56 123.657 112.927 123.563 113.38L121.243 112.6C121.403 112.093 121.657 111.633 122.003 111.22C122.363 110.793 122.837 110.453 123.423 110.2C124.023 109.933 124.75 109.8 125.603 109.8C126.91 109.8 127.943 110.127 128.703 110.78C129.463 111.433 129.843 112.38 129.843 113.62V117.32C129.843 117.72 130.03 117.92 130.403 117.92H131.203V120H129.523C129.03 120 128.623 119.88 128.303 119.64C127.983 119.4 127.823 119.08 127.823 118.68V118.66H127.443C127.39 118.82 127.27 119.033 127.083 119.3C126.897 119.553 126.603 119.78 126.203 119.98C125.803 120.18 125.257 120.28 124.563 120.28ZM125.003 118.24C125.71 118.24 126.283 118.047 126.723 117.66C127.177 117.26 127.403 116.733 127.403 116.08V115.88H124.863C124.397 115.88 124.03 115.98 123.763 116.18C123.497 116.38 123.363 116.66 123.363 117.02C123.363 117.38 123.503 117.673 123.783 117.9C124.063 118.127 124.47 118.24 125.003 118.24ZM133.046 120V110.08H135.526V111.2H135.886C136.033 110.8 136.273 110.507 136.606 110.32C136.953 110.133 137.353 110.04 137.806 110.04H139.006V112.28H137.766C137.126 112.28 136.599 112.453 136.186 112.8C135.773 113.133 135.566 113.653 135.566 114.36V120H133.046ZM144.624 120.28C143.837 120.28 143.097 120.087 142.404 119.7C141.724 119.3 141.177 118.72 140.764 117.96C140.351 117.2 140.144 116.28 140.144 115.2V114.88C140.144 113.8 140.351 112.88 140.764 112.12C141.177 111.36 141.724 110.787 142.404 110.4C143.084 110 143.824 109.8 144.624 109.8C145.224 109.8 145.724 109.873 146.124 110.02C146.537 110.153 146.871 110.327 147.124 110.54C147.377 110.753 147.571 110.98 147.704 111.22H148.064V106H150.584V120H148.104V118.8H147.744C147.517 119.173 147.164 119.513 146.684 119.82C146.217 120.127 145.531 120.28 144.624 120.28ZM145.384 118.08C146.157 118.08 146.804 117.833 147.324 117.34C147.844 116.833 148.104 116.1 148.104 115.14V114.94C148.104 113.98 147.844 113.253 147.324 112.76C146.817 112.253 146.171 112 145.384 112C144.611 112 143.964 112.253 143.444 112.76C142.924 113.253 142.664 113.98 142.664 114.94V115.14C142.664 116.1 142.924 116.833 143.444 117.34C143.964 117.833 144.611 118.08 145.384 118.08Z" fill="white"/>
<path d="M30.7155 143V133.2H33.8655L35.7695 141.866H36.0075L37.9255 133.2H41.0615V143H39.4375V134.418H39.1995L37.2955 143H34.4955L32.5915 134.418H32.3535V143H30.7155ZM45.2045 143.196C44.7192 143.196 44.2805 143.112 43.8885 142.944C43.4965 142.767 43.1839 142.515 42.9505 142.188C42.7265 141.861 42.6145 141.46 42.6145 140.984C42.6145 140.517 42.7265 140.125 42.9505 139.808C43.1839 139.491 43.5012 139.253 43.9025 139.094C44.3039 138.926 44.7612 138.842 45.2745 138.842H47.2765V138.422C47.2765 138.058 47.1645 137.764 46.9405 137.54C46.7165 137.307 46.3665 137.19 45.8905 137.19C45.4239 137.19 45.0692 137.302 44.8265 137.526C44.5932 137.741 44.4392 138.021 44.3645 138.366L42.8805 137.876C42.9925 137.512 43.1699 137.181 43.4125 136.882C43.6645 136.583 43.9959 136.345 44.4065 136.168C44.8172 135.981 45.3212 135.888 45.9185 135.888C46.8239 135.888 47.5332 136.117 48.0465 136.574C48.5692 137.022 48.8305 137.675 48.8305 138.534V141.25C48.8305 141.53 48.9612 141.67 49.2225 141.67H49.8105V143H48.6765C48.3405 143 48.0652 142.916 47.8505 142.748C47.6359 142.58 47.5285 142.351 47.5285 142.062V142.034H47.2905C47.2345 142.165 47.1365 142.323 46.9965 142.51C46.8565 142.697 46.6419 142.86 46.3525 143C46.0725 143.131 45.6899 143.196 45.2045 143.196ZM45.4705 141.88C46.0025 141.88 46.4365 141.731 46.7725 141.432C47.1085 141.124 47.2765 140.713 47.2765 140.2V140.06H45.3725C45.0272 140.06 44.7472 140.135 44.5325 140.284C44.3179 140.433 44.2105 140.653 44.2105 140.942C44.2105 141.222 44.3225 141.451 44.5465 141.628C44.7705 141.796 45.0785 141.88 45.4705 141.88ZM51.1426 143V136.084H52.7246V137.05H52.9626C53.0839 136.789 53.3033 136.541 53.6206 136.308C53.9379 136.075 54.4186 135.958 55.0626 135.958C55.5946 135.958 56.0659 136.079 56.4766 136.322C56.8873 136.565 57.2046 136.901 57.4286 137.33C57.6619 137.759 57.7786 138.268 57.7786 138.856V143H56.1686V138.982C56.1686 138.422 56.0286 138.007 55.7486 137.736C55.4779 137.456 55.0906 137.316 54.5866 137.316C54.0173 137.316 53.5693 137.507 53.2426 137.89C52.9159 138.263 52.7526 138.8 52.7526 139.5V143H51.1426ZM61.8979 143.196C61.4126 143.196 60.9739 143.112 60.5819 142.944C60.1899 142.767 59.8772 142.515 59.6439 142.188C59.4199 141.861 59.3079 141.46 59.3079 140.984C59.3079 140.517 59.4199 140.125 59.6439 139.808C59.8772 139.491 60.1946 139.253 60.5959 139.094C60.9972 138.926 61.4546 138.842 61.9679 138.842H63.9699V138.422C63.9699 138.058 63.8579 137.764 63.6339 137.54C63.4099 137.307 63.0599 137.19 62.5839 137.19C62.1172 137.19 61.7626 137.302 61.5199 137.526C61.2866 137.741 61.1326 138.021 61.0579 138.366L59.5739 137.876C59.6859 137.512 59.8632 137.181 60.1059 136.882C60.3579 136.583 60.6892 136.345 61.0999 136.168C61.5106 135.981 62.0146 135.888 62.6119 135.888C63.5172 135.888 64.2266 136.117 64.7399 136.574C65.2626 137.022 65.5239 137.675 65.5239 138.534V141.25C65.5239 141.53 65.6546 141.67 65.9159 141.67H66.5039V143H65.3699C65.0339 143 64.7586 142.916 64.5439 142.748C64.3292 142.58 64.2219 142.351 64.2219 142.062V142.034H63.9839C63.9279 142.165 63.8299 142.323 63.6899 142.51C63.5499 142.697 63.3352 142.86 63.0459 143C62.7659 143.131 62.3832 143.196 61.8979 143.196ZM62.1639 141.88C62.6959 141.88 63.1299 141.731 63.4659 141.432C63.8019 141.124 63.9699 140.713 63.9699 140.2V140.06H62.0659C61.7206 140.06 61.4406 140.135 61.2259 140.284C61.0112 140.433 60.9039 140.653 60.9039 140.942C60.9039 141.222 61.0159 141.451 61.2399 141.628C61.4639 141.796 61.7719 141.88 62.1639 141.88ZM67.3496 139.57V139.36C67.3496 138.632 67.4942 138.011 67.7836 137.498C68.0729 136.975 68.4602 136.579 68.9456 136.308C69.4309 136.028 69.9629 135.888 70.5416 135.888C71.1949 135.888 71.6896 136.005 72.0256 136.238C72.3709 136.471 72.6229 136.723 72.7816 136.994H73.0196V136.084H74.5876V144.316C74.5876 144.773 74.4569 145.133 74.1956 145.394C73.9342 145.665 73.5796 145.8 73.1316 145.8H68.4836V144.4H72.5856C72.8562 144.4 72.9916 144.26 72.9916 143.98V141.978H72.7536C72.6509 142.137 72.5109 142.3 72.3336 142.468C72.1562 142.627 71.9229 142.762 71.6336 142.874C71.3442 142.986 70.9802 143.042 70.5416 143.042C69.9629 143.042 69.4309 142.907 68.9456 142.636C68.4602 142.356 68.0729 141.959 67.7836 141.446C67.4942 140.923 67.3496 140.298 67.3496 139.57ZM70.9896 141.628C71.5682 141.628 72.0489 141.446 72.4316 141.082C72.8142 140.709 73.0056 140.191 73.0056 139.528V139.388C73.0056 138.716 72.8142 138.198 72.4316 137.834C72.0582 137.47 71.5776 137.288 70.9896 137.288C70.4109 137.288 69.9256 137.47 69.5336 137.834C69.1509 138.198 68.9596 138.716 68.9596 139.388V139.528C68.9596 140.191 69.1509 140.709 69.5336 141.082C69.9256 141.446 70.4109 141.628 70.9896 141.628ZM79.791 143.196C79.1003 143.196 78.489 143.051 77.957 142.762C77.4343 142.463 77.0236 142.048 76.725 141.516C76.4356 140.975 76.291 140.345 76.291 139.626V139.458C76.291 138.73 76.4356 138.1 76.725 137.568C77.0143 137.036 77.4203 136.625 77.943 136.336C78.4656 136.037 79.0676 135.888 79.749 135.888C80.421 135.888 81.009 136.037 81.513 136.336C82.017 136.625 82.409 137.036 82.689 137.568C82.969 138.1 83.109 138.721 83.109 139.43V140.004H77.915C77.9336 140.545 78.125 140.979 78.489 141.306C78.853 141.633 79.301 141.796 79.833 141.796C80.3556 141.796 80.743 141.684 80.995 141.46C81.247 141.227 81.4383 140.965 81.569 140.676L82.899 141.362C82.7683 141.614 82.577 141.885 82.325 142.174C82.0823 142.454 81.7556 142.697 81.345 142.902C80.9343 143.098 80.4163 143.196 79.791 143.196ZM77.929 138.786H81.471C81.4336 138.329 81.2563 137.965 80.939 137.694C80.631 137.423 80.2296 137.288 79.735 137.288C79.2216 137.288 78.811 137.423 78.503 137.694C78.195 137.965 78.0036 138.329 77.929 138.786ZM90.4721 143.196C89.9868 143.196 89.5481 143.112 89.1561 142.944C88.7641 142.767 88.4514 142.515 88.2181 142.188C87.9941 141.861 87.8821 141.46 87.8821 140.984C87.8821 140.517 87.9941 140.125 88.2181 139.808C88.4514 139.491 88.7688 139.253 89.1701 139.094C89.5714 138.926 90.0288 138.842 90.5421 138.842H92.5441V138.422C92.5441 138.058 92.4321 137.764 92.2081 137.54C91.9841 137.307 91.6341 137.19 91.1581 137.19C90.6914 137.19 90.3368 137.302 90.0941 137.526C89.8608 137.741 89.7068 138.021 89.6321 138.366L88.1481 137.876C88.2601 137.512 88.4374 137.181 88.6801 136.882C88.9321 136.583 89.2634 136.345 89.6741 136.168C90.0848 135.981 90.5888 135.888 91.1861 135.888C92.0914 135.888 92.8008 136.117 93.3141 136.574C93.8368 137.022 94.0981 137.675 94.0981 138.534V141.25C94.0981 141.53 94.2288 141.67 94.4901 141.67H95.0781V143H93.9441C93.6081 143 93.3328 142.916 93.1181 142.748C92.9034 142.58 92.7961 142.351 92.7961 142.062V142.034H92.5581C92.5021 142.165 92.4041 142.323 92.2641 142.51C92.1241 142.697 91.9094 142.86 91.6201 143C91.3401 143.131 90.9574 143.196 90.4721 143.196ZM90.7381 141.88C91.2701 141.88 91.7041 141.731 92.0401 141.432C92.3761 141.124 92.5441 140.713 92.5441 140.2V140.06H90.6401C90.2948 140.06 90.0148 140.135 89.8001 140.284C89.5854 140.433 89.4781 140.653 89.4781 140.942C89.4781 141.222 89.5901 141.451 89.8141 141.628C90.0381 141.796 90.3461 141.88 90.7381 141.88ZM96.4102 143V133.2H98.0202V143H96.4102ZM100.061 143V133.2H101.671V143H100.061ZM108.049 145.8V144.4H111.871C112.133 144.4 112.263 144.26 112.263 143.98V142.048H112.025C111.951 142.216 111.829 142.384 111.661 142.552C111.493 142.711 111.269 142.846 110.989 142.958C110.709 143.061 110.355 143.112 109.925 143.112C109.393 143.112 108.922 142.995 108.511 142.762C108.101 142.519 107.783 142.183 107.559 141.754C107.335 141.315 107.223 140.807 107.223 140.228V136.084H108.819V140.102C108.819 140.662 108.955 141.077 109.225 141.348C109.505 141.619 109.897 141.754 110.401 141.754C110.971 141.754 111.419 141.567 111.745 141.194C112.081 140.821 112.249 140.284 112.249 139.584V136.084H113.845V144.316C113.845 144.773 113.715 145.133 113.453 145.394C113.192 145.665 112.837 145.8 112.389 145.8H108.049ZM119.169 143.196C118.478 143.196 117.857 143.056 117.307 142.776C116.765 142.487 116.336 142.081 116.019 141.558C115.711 141.026 115.557 140.391 115.557 139.654V139.43C115.557 138.693 115.711 138.058 116.019 137.526C116.336 136.994 116.765 136.588 117.307 136.308C117.857 136.028 118.478 135.888 119.169 135.888C119.859 135.888 120.475 136.028 121.017 136.308C121.558 136.588 121.983 136.994 122.291 137.526C122.608 138.058 122.767 138.693 122.767 139.43V139.654C122.767 140.391 122.608 141.026 122.291 141.558C121.983 142.081 121.558 142.487 121.017 142.776C120.475 143.056 119.859 143.196 119.169 143.196ZM119.169 141.768C119.757 141.768 120.237 141.581 120.611 141.208C120.984 140.825 121.171 140.293 121.171 139.612V139.472C121.171 138.791 120.984 138.263 120.611 137.89C120.237 137.507 119.757 137.316 119.169 137.316C118.581 137.316 118.1 137.507 117.727 137.89C117.353 138.263 117.167 138.791 117.167 139.472V139.612C117.167 140.293 117.353 140.825 117.727 141.208C118.1 141.581 118.581 141.768 119.169 141.768ZM127.125 143.112C126.593 143.112 126.121 142.995 125.711 142.762C125.3 142.519 124.983 142.183 124.759 141.754C124.535 141.315 124.423 140.807 124.423 140.228V136.084H126.019V140.102C126.019 140.662 126.154 141.077 126.425 141.348C126.705 141.619 127.097 141.754 127.601 141.754C128.17 141.754 128.618 141.567 128.945 141.194C129.281 140.821 129.449 140.284 129.449 139.584V136.084H131.045V143H129.477V142.034H129.239C129.117 142.286 128.893 142.529 128.567 142.762C128.249 142.995 127.769 143.112 127.125 143.112ZM133.092 143V136.084H134.674V136.882H134.912C135.014 136.593 135.187 136.383 135.43 136.252C135.672 136.121 135.962 136.056 136.298 136.056H137.138V137.484H136.27C135.803 137.484 135.425 137.61 135.136 137.862C134.846 138.105 134.702 138.483 134.702 138.996V143H133.092ZM141.751 143V141.516H143.067V134.684H141.751V133.2H145.741C147.048 133.2 148.046 133.531 148.737 134.194C149.428 134.857 149.773 135.851 149.773 137.176V139.024C149.773 140.349 149.428 141.343 148.737 142.006C148.046 142.669 147.048 143 145.741 143H141.751ZM144.747 141.474H145.755C146.548 141.474 147.136 141.269 147.519 140.858C147.902 140.447 148.093 139.855 148.093 139.08V137.134C148.093 136.341 147.902 135.743 147.519 135.342C147.136 134.931 146.548 134.726 145.755 134.726H144.747V141.474ZM154.603 143.196C153.913 143.196 153.301 143.051 152.769 142.762C152.247 142.463 151.836 142.048 151.537 141.516C151.248 140.975 151.103 140.345 151.103 139.626V139.458C151.103 138.73 151.248 138.1 151.537 137.568C151.827 137.036 152.233 136.625 152.755 136.336C153.278 136.037 153.88 135.888 154.561 135.888C155.233 135.888 155.821 136.037 156.325 136.336C156.829 136.625 157.221 137.036 157.501 137.568C157.781 138.1 157.921 138.721 157.921 139.43V140.004H152.727C152.746 140.545 152.937 140.979 153.301 141.306C153.665 141.633 154.113 141.796 154.645 141.796C155.168 141.796 155.555 141.684 155.807 141.46C156.059 141.227 156.251 140.965 156.381 140.676L157.711 141.362C157.581 141.614 157.389 141.885 157.137 142.174C156.895 142.454 156.568 142.697 156.157 142.902C155.747 143.098 155.229 143.196 154.603 143.196ZM152.741 138.786H156.283C156.246 138.329 156.069 137.965 155.751 137.694C155.443 137.423 155.042 137.288 154.547 137.288C154.034 137.288 153.623 137.423 153.315 137.694C153.007 137.965 152.816 138.329 152.741 138.786ZM159.518 143V133.2H165.622V134.726H161.212V137.316H165.272V138.856H161.212V143H159.518ZM167.066 143V136.084H168.676V143H167.066ZM167.864 135.202C167.575 135.202 167.323 135.109 167.108 134.922C166.903 134.726 166.8 134.469 166.8 134.152C166.8 133.835 166.903 133.583 167.108 133.396C167.323 133.2 167.575 133.102 167.864 133.102C168.172 133.102 168.424 133.2 168.62 133.396C168.826 133.583 168.928 133.835 168.928 134.152C168.928 134.469 168.826 134.726 168.62 134.922C168.424 135.109 168.172 135.202 167.864 135.202ZM39.2914 161.196C38.8061 161.196 38.3674 161.112 37.9754 160.944C37.5834 160.767 37.2708 160.515 37.0374 160.188C36.8134 159.861 36.7014 159.46 36.7014 158.984C36.7014 158.517 36.8134 158.125 37.0374 157.808C37.2708 157.491 37.5881 157.253 37.9894 157.094C38.3908 156.926 38.8481 156.842 39.3614 156.842H41.3634V156.422C41.3634 156.058 41.2514 155.764 41.0274 155.54C40.8034 155.307 40.4534 155.19 39.9774 155.19C39.5108 155.19 39.1561 155.302 38.9134 155.526C38.6801 155.741 38.5261 156.021 38.4514 156.366L36.9674 155.876C37.0794 155.512 37.2568 155.181 37.4994 154.882C37.7514 154.583 38.0828 154.345 38.4934 154.168C38.9041 153.981 39.4081 153.888 40.0054 153.888C40.9108 153.888 41.6201 154.117 42.1334 154.574C42.6561 155.022 42.9174 155.675 42.9174 156.534V159.25C42.9174 159.53 43.0481 159.67 43.3094 159.67H43.8974V161H42.7634C42.4274 161 42.1521 160.916 41.9374 160.748C41.7228 160.58 41.6154 160.351 41.6154 160.062V160.034H41.3774C41.3214 160.165 41.2234 160.323 41.0834 160.51C40.9434 160.697 40.7288 160.86 40.4394 161C40.1594 161.131 39.7768 161.196 39.2914 161.196ZM39.5574 159.88C40.0894 159.88 40.5234 159.731 40.8594 159.432C41.1954 159.124 41.3634 158.713 41.3634 158.2V158.06H39.4594C39.1141 158.06 38.8341 158.135 38.6194 158.284C38.4048 158.433 38.2974 158.653 38.2974 158.942C38.2974 159.222 38.4094 159.451 38.6334 159.628C38.8574 159.796 39.1654 159.88 39.5574 159.88ZM48.3131 161.196C47.6411 161.196 47.0345 161.056 46.4931 160.776C45.9518 160.496 45.5225 160.09 45.2051 159.558C44.8971 159.026 44.7431 158.387 44.7431 157.64V157.444C44.7431 156.697 44.8971 156.058 45.2051 155.526C45.5225 154.994 45.9518 154.588 46.4931 154.308C47.0345 154.028 47.6411 153.888 48.3131 153.888C48.9758 153.888 49.5405 154.005 50.0071 154.238C50.4831 154.471 50.8658 154.793 51.1551 155.204C51.4445 155.605 51.6311 156.058 51.7151 156.562L50.1611 156.884C50.1238 156.595 50.0351 156.333 49.8951 156.1C49.7551 155.857 49.5545 155.666 49.2931 155.526C49.0411 155.386 48.7285 155.316 48.3551 155.316C47.9725 155.316 47.6271 155.4 47.3191 155.568C47.0205 155.727 46.7825 155.969 46.6051 156.296C46.4371 156.623 46.3531 157.015 46.3531 157.472V157.612C46.3531 158.069 46.4371 158.461 46.6051 158.788C46.7825 159.105 47.0205 159.348 47.3191 159.516C47.6271 159.684 47.9725 159.768 48.3551 159.768C48.9245 159.768 49.3538 159.623 49.6431 159.334C49.9418 159.035 50.1285 158.653 50.2031 158.186L51.7571 158.55C51.6451 159.035 51.4445 159.479 51.1551 159.88C50.8658 160.281 50.4831 160.603 50.0071 160.846C49.5405 161.079 48.9758 161.196 48.3131 161.196ZM55.7228 161C55.2748 161 54.9155 160.869 54.6448 160.608C54.3835 160.337 54.2528 159.973 54.2528 159.516V155.414H52.4468V154.084H54.2528V151.858H55.8628V154.084H57.8508V155.414H55.8628V159.25C55.8628 159.53 55.9935 159.67 56.2548 159.67H57.6408V161H55.7228ZM59.4893 161V154.084H61.0993V161H59.4893ZM60.2873 153.202C59.998 153.202 59.746 153.109 59.5313 152.922C59.326 152.726 59.2233 152.469 59.2233 152.152C59.2233 151.835 59.326 151.583 59.5313 151.396C59.746 151.2 59.998 151.102 60.2873 151.102C60.5953 151.102 60.8473 151.2 61.0433 151.396C61.2486 151.583 61.3513 151.835 61.3513 152.152C61.3513 152.469 61.2486 152.726 61.0433 152.922C60.8473 153.109 60.5953 153.202 60.2873 153.202ZM64.6657 161L62.3977 154.084H64.1057L65.8137 159.824H66.0517L67.7737 154.084H69.4817L67.2137 161H64.6657ZM70.7823 161V154.084H72.3923V161H70.7823ZM71.5803 153.202C71.2909 153.202 71.0389 153.109 70.8243 152.922C70.6189 152.726 70.5163 152.469 70.5163 152.152C70.5163 151.835 70.6189 151.583 70.8243 151.396C71.0389 151.2 71.2909 151.102 71.5803 151.102C71.8883 151.102 72.1403 151.2 72.3363 151.396C72.5416 151.583 72.6443 151.835 72.6443 152.152C72.6443 152.469 72.5416 152.726 72.3363 152.922C72.1403 153.109 71.8883 153.202 71.5803 153.202ZM77.0646 161C76.6166 161 76.2573 160.869 75.9866 160.608C75.7253 160.337 75.5946 159.973 75.5946 159.516V155.414H73.7886V154.084H75.5946V151.858H77.2046V154.084H79.1926V155.414H77.2046V159.25C77.2046 159.53 77.3353 159.67 77.5966 159.67H78.9826V161H77.0646ZM80.8311 161V154.084H82.4411V161H80.8311ZM81.6291 153.202C81.3397 153.202 81.0877 153.109 80.8731 152.922C80.6677 152.726 80.5651 152.469 80.5651 152.152C80.5651 151.835 80.6677 151.583 80.8731 151.396C81.0877 151.2 81.3397 151.102 81.6291 151.102C81.9371 151.102 82.1891 151.2 82.3851 151.396C82.5904 151.583 82.6931 151.835 82.6931 152.152C82.6931 152.469 82.5904 152.726 82.3851 152.922C82.1891 153.109 81.9371 153.202 81.6291 153.202ZM87.6455 161.196C86.9548 161.196 86.3435 161.051 85.8115 160.762C85.2888 160.463 84.8781 160.048 84.5795 159.516C84.2901 158.975 84.1455 158.345 84.1455 157.626V157.458C84.1455 156.73 84.2901 156.1 84.5795 155.568C84.8688 155.036 85.2748 154.625 85.7975 154.336C86.3201 154.037 86.9221 153.888 87.6035 153.888C88.2755 153.888 88.8635 154.037 89.3675 154.336C89.8715 154.625 90.2635 155.036 90.5435 155.568C90.8235 156.1 90.9635 156.721 90.9635 157.43V158.004H85.7695C85.7881 158.545 85.9795 158.979 86.3435 159.306C86.7075 159.633 87.1555 159.796 87.6875 159.796C88.2101 159.796 88.5975 159.684 88.8495 159.46C89.1015 159.227 89.2928 158.965 89.4235 158.676L90.7535 159.362C90.6228 159.614 90.4315 159.885 90.1795 160.174C89.9368 160.454 89.6101 160.697 89.1995 160.902C88.7888 161.098 88.2708 161.196 87.6455 161.196ZM85.7835 156.786H89.3255C89.2881 156.329 89.1108 155.965 88.7935 155.694C88.4855 155.423 88.0841 155.288 87.5895 155.288C87.0761 155.288 86.6655 155.423 86.3575 155.694C86.0495 155.965 85.8581 156.329 85.7835 156.786ZM95.4722 161.196C94.5762 161.196 93.8389 161 93.2602 160.608C92.6816 160.216 92.3316 159.642 92.2102 158.886L93.6942 158.508C93.7596 158.863 93.8762 159.143 94.0442 159.348C94.2122 159.553 94.4176 159.698 94.6602 159.782C94.9122 159.866 95.1829 159.908 95.4722 159.908C95.9109 159.908 96.2376 159.829 96.4522 159.67C96.6762 159.511 96.7882 159.311 96.7882 159.068C96.7882 158.816 96.6809 158.629 96.4662 158.508C96.2609 158.387 95.9436 158.284 95.5142 158.2L95.0802 158.13C94.6042 158.037 94.1702 157.911 93.7782 157.752C93.3862 157.584 93.0689 157.36 92.8262 157.08C92.5929 156.791 92.4762 156.427 92.4762 155.988C92.4762 155.316 92.7236 154.798 93.2182 154.434C93.7222 154.07 94.3802 153.888 95.1922 153.888C95.9669 153.888 96.6062 154.061 97.1102 154.406C97.6142 154.751 97.9409 155.213 98.0902 155.792L96.6062 156.24C96.5316 155.848 96.3682 155.573 96.1162 155.414C95.8642 155.246 95.5562 155.162 95.1922 155.162C94.8189 155.162 94.5296 155.227 94.3242 155.358C94.1282 155.489 94.0302 155.675 94.0302 155.918C94.0302 156.161 94.1329 156.343 94.3382 156.464C94.5436 156.585 94.8189 156.674 95.1642 156.73L95.5982 156.814C96.1116 156.907 96.5736 157.029 96.9842 157.178C97.4042 157.327 97.7356 157.542 97.9782 157.822C98.2209 158.102 98.3422 158.48 98.3422 158.956C98.3422 159.675 98.0809 160.23 97.5582 160.622C97.0449 161.005 96.3496 161.196 95.4722 161.196ZM104.744 161V155.414H102.896V154.084H104.744V152.684C104.744 152.227 104.875 151.867 105.136 151.606C105.407 151.335 105.761 151.2 106.2 151.2H107.992V152.53H106.732C106.471 152.53 106.34 152.67 106.34 152.95V154.084H108.244V155.414H106.34V161H104.744ZM109.651 161V154.084H111.233V154.882H111.471C111.574 154.593 111.747 154.383 111.989 154.252C112.232 154.121 112.521 154.056 112.857 154.056H113.697V155.484H112.829C112.363 155.484 111.985 155.61 111.695 155.862C111.406 156.105 111.261 156.483 111.261 156.996V161H109.651ZM118.15 161.196C117.459 161.196 116.839 161.056 116.288 160.776C115.747 160.487 115.317 160.081 115 159.558C114.692 159.026 114.538 158.391 114.538 157.654V157.43C114.538 156.693 114.692 156.058 115 155.526C115.317 154.994 115.747 154.588 116.288 154.308C116.839 154.028 117.459 153.888 118.15 153.888C118.841 153.888 119.457 154.028 119.998 154.308C120.539 154.588 120.964 154.994 121.272 155.526C121.589 156.058 121.748 156.693 121.748 157.43V157.654C121.748 158.391 121.589 159.026 121.272 159.558C120.964 160.081 120.539 160.487 119.998 160.776C119.457 161.056 118.841 161.196 118.15 161.196ZM118.15 159.768C118.738 159.768 119.219 159.581 119.592 159.208C119.965 158.825 120.152 158.293 120.152 157.612V157.472C120.152 156.791 119.965 156.263 119.592 155.89C119.219 155.507 118.738 155.316 118.15 155.316C117.562 155.316 117.081 155.507 116.708 155.89C116.335 156.263 116.148 156.791 116.148 157.472V157.612C116.148 158.293 116.335 158.825 116.708 159.208C117.081 159.581 117.562 159.768 118.15 159.768ZM123.46 161V154.084H125.042V154.854H125.28C125.401 154.621 125.602 154.415 125.882 154.238C126.171 154.051 126.554 153.958 127.03 153.958C127.534 153.958 127.94 154.061 128.248 154.266C128.556 154.471 128.789 154.733 128.948 155.05H129.172C129.331 154.733 129.559 154.471 129.858 154.266C130.157 154.061 130.581 153.958 131.132 153.958C131.561 153.958 131.949 154.051 132.294 154.238C132.649 154.425 132.929 154.7 133.134 155.064C133.349 155.428 133.456 155.881 133.456 156.422V161H131.846V156.534C131.846 156.133 131.739 155.829 131.524 155.624C131.309 155.409 131.011 155.302 130.628 155.302C130.208 155.302 129.872 155.442 129.62 155.722C129.377 155.993 129.256 156.385 129.256 156.898V161H127.66V156.534C127.66 156.133 127.553 155.829 127.338 155.624C127.123 155.409 126.825 155.302 126.442 155.302C126.013 155.302 125.677 155.442 125.434 155.722C125.191 155.993 125.07 156.385 125.07 156.898V161H123.46ZM142.281 161.196C141.59 161.196 140.97 161.056 140.419 160.776C139.878 160.487 139.448 160.081 139.131 159.558C138.823 159.026 138.669 158.391 138.669 157.654V157.43C138.669 156.693 138.823 156.058 139.131 155.526C139.448 154.994 139.878 154.588 140.419 154.308C140.97 154.028 141.59 153.888 142.281 153.888C142.972 153.888 143.588 154.028 144.129 154.308C144.67 154.588 145.095 154.994 145.403 155.526C145.72 156.058 145.879 156.693 145.879 157.43V157.654C145.879 158.391 145.72 159.026 145.403 159.558C145.095 160.081 144.67 160.487 144.129 160.776C143.588 161.056 142.972 161.196 142.281 161.196ZM142.281 159.768C142.869 159.768 143.35 159.581 143.723 159.208C144.096 158.825 144.283 158.293 144.283 157.612V157.472C144.283 156.791 144.096 156.263 143.723 155.89C143.35 155.507 142.869 155.316 142.281 155.316C141.693 155.316 141.212 155.507 140.839 155.89C140.466 156.263 140.279 156.791 140.279 157.472V157.612C140.279 158.293 140.466 158.825 140.839 159.208C141.212 159.581 141.693 159.768 142.281 159.768ZM147.591 161V154.084H149.173V155.05H149.411C149.532 154.789 149.752 154.541 150.069 154.308C150.386 154.075 150.867 153.958 151.511 153.958C152.043 153.958 152.514 154.079 152.925 154.322C153.336 154.565 153.653 154.901 153.877 155.33C154.11 155.759 154.227 156.268 154.227 156.856V161H152.617V156.982C152.617 156.422 152.477 156.007 152.197 155.736C151.926 155.456 151.539 155.316 151.035 155.316C150.466 155.316 150.018 155.507 149.691 155.89C149.364 156.263 149.201 156.8 149.201 157.5V161H147.591ZM159.368 161.196C158.677 161.196 158.066 161.051 157.534 160.762C157.011 160.463 156.601 160.048 156.302 159.516C156.013 158.975 155.868 158.345 155.868 157.626V157.458C155.868 156.73 156.013 156.1 156.302 155.568C156.591 155.036 156.997 154.625 157.52 154.336C158.043 154.037 158.645 153.888 159.326 153.888C159.998 153.888 160.586 154.037 161.09 154.336C161.594 154.625 161.986 155.036 162.266 155.568C162.546 156.1 162.686 156.721 162.686 157.43V158.004H157.492C157.511 158.545 157.702 158.979 158.066 159.306C158.43 159.633 158.878 159.796 159.41 159.796C159.933 159.796 160.32 159.684 160.572 159.46C160.824 159.227 161.015 158.965 161.146 158.676L162.476 159.362C162.345 159.614 162.154 159.885 161.902 160.174C161.659 160.454 161.333 160.697 160.922 160.902C160.511 161.098 159.993 161.196 159.368 161.196ZM157.506 156.786H161.048C161.011 156.329 160.833 155.965 160.516 155.694C160.208 155.423 159.807 155.288 159.312 155.288C158.799 155.288 158.388 155.423 158.08 155.694C157.772 155.965 157.581 156.329 157.506 156.786ZM35.7071 181.8V172.084H37.2891V172.994H37.5271C37.6857 172.705 37.9377 172.448 38.2831 172.224C38.6377 172 39.1417 171.888 39.7951 171.888C40.3551 171.888 40.8731 172.028 41.3491 172.308C41.8344 172.579 42.2217 172.98 42.5111 173.512C42.8004 174.044 42.9451 174.683 42.9451 175.43V175.654C42.9451 176.401 42.8004 177.04 42.5111 177.572C42.2217 178.104 41.8391 178.51 41.3631 178.79C40.8871 179.061 40.3644 179.196 39.7951 179.196C39.3564 179.196 38.9877 179.145 38.6891 179.042C38.3997 178.939 38.1617 178.804 37.9751 178.636C37.7977 178.468 37.6577 178.3 37.5551 178.132H37.3171V181.8H35.7071ZM39.3191 177.796C39.9071 177.796 40.3877 177.609 40.7611 177.236C41.1437 176.853 41.3351 176.312 41.3351 175.612V175.472C41.3351 174.763 41.1437 174.221 40.7611 173.848C40.3784 173.475 39.8977 173.288 39.3191 173.288C38.7404 173.288 38.2551 173.475 37.8631 173.848C37.4804 174.221 37.2891 174.763 37.2891 175.472V175.612C37.2891 176.312 37.4804 176.853 37.8631 177.236C38.2551 177.609 38.7404 177.796 39.3191 177.796ZM47.9245 179.196C47.2338 179.196 46.6131 179.056 46.0625 178.776C45.5211 178.487 45.0918 178.081 44.7745 177.558C44.4665 177.026 44.3125 176.391 44.3125 175.654V175.43C44.3125 174.693 44.4665 174.058 44.7745 173.526C45.0918 172.994 45.5211 172.588 46.0625 172.308C46.6131 172.028 47.2338 171.888 47.9245 171.888C48.6151 171.888 49.2311 172.028 49.7725 172.308C50.3138 172.588 50.7385 172.994 51.0465 173.526C51.3638 174.058 51.5225 174.693 51.5225 175.43V175.654C51.5225 176.391 51.3638 177.026 51.0465 177.558C50.7385 178.081 50.3138 178.487 49.7725 178.776C49.2311 179.056 48.6151 179.196 47.9245 179.196ZM47.9245 177.768C48.5125 177.768 48.9931 177.581 49.3665 177.208C49.7398 176.825 49.9265 176.293 49.9265 175.612V175.472C49.9265 174.791 49.7398 174.263 49.3665 173.89C48.9931 173.507 48.5125 173.316 47.9245 173.316C47.3365 173.316 46.8558 173.507 46.4825 173.89C46.1091 174.263 45.9225 174.791 45.9225 175.472V175.612C45.9225 176.293 46.1091 176.825 46.4825 177.208C46.8558 177.581 47.3365 177.768 47.9245 177.768ZM53.8377 179L52.7597 172.084H54.3557L55.0977 177.922H55.3357L56.3857 172.084H58.9617L60.0117 177.922H60.2497L60.9917 172.084H62.5877L61.5097 179H58.8357L57.7997 173.162H57.5617L56.5117 179H53.8377ZM67.3222 179.196C66.6316 179.196 66.0202 179.051 65.4882 178.762C64.9656 178.463 64.5549 178.048 64.2562 177.516C63.9669 176.975 63.8222 176.345 63.8222 175.626V175.458C63.8222 174.73 63.9669 174.1 64.2562 173.568C64.5456 173.036 64.9516 172.625 65.4742 172.336C65.9969 172.037 66.5989 171.888 67.2802 171.888C67.9522 171.888 68.5402 172.037 69.0442 172.336C69.5482 172.625 69.9402 173.036 70.2202 173.568C70.5002 174.1 70.6402 174.721 70.6402 175.43V176.004H65.4462C65.4649 176.545 65.6562 176.979 66.0202 177.306C66.3842 177.633 66.8322 177.796 67.3642 177.796C67.8869 177.796 68.2742 177.684 68.5262 177.46C68.7782 177.227 68.9696 176.965 69.1002 176.676L70.4302 177.362C70.2996 177.614 70.1082 177.885 69.8562 178.174C69.6136 178.454 69.2869 178.697 68.8762 178.902C68.4656 179.098 67.9476 179.196 67.3222 179.196ZM65.4602 174.786H69.0022C68.9649 174.329 68.7876 173.965 68.4702 173.694C68.1622 173.423 67.7609 173.288 67.2662 173.288C66.7529 173.288 66.3422 173.423 66.0342 173.694C65.7262 173.965 65.5349 174.329 65.4602 174.786ZM72.293 179V172.084H73.875V172.882H74.113C74.2157 172.593 74.3883 172.383 74.631 172.252C74.8737 172.121 75.163 172.056 75.499 172.056H76.339V173.484H75.471C75.0043 173.484 74.6263 173.61 74.337 173.862C74.0477 174.105 73.903 174.483 73.903 174.996V179H72.293ZM78.9657 179V173.414H77.1177V172.084H78.9657V170.684C78.9657 170.227 79.0964 169.867 79.3577 169.606C79.6284 169.335 79.9831 169.2 80.4217 169.2H82.2137V170.53H80.9537C80.6924 170.53 80.5617 170.67 80.5617 170.95V172.084H82.4657V173.414H80.5617V179H78.9657ZM86.5191 179.112C85.9871 179.112 85.5157 178.995 85.1051 178.762C84.6944 178.519 84.3771 178.183 84.1531 177.754C83.9291 177.315 83.8171 176.807 83.8171 176.228V172.084H85.4131V176.102C85.4131 176.662 85.5484 177.077 85.8191 177.348C86.0991 177.619 86.4911 177.754 86.9951 177.754C87.5644 177.754 88.0124 177.567 88.3391 177.194C88.6751 176.821 88.8431 176.284 88.8431 175.584V172.084H90.4391V179H88.8711V178.034H88.6331C88.5117 178.286 88.2877 178.529 87.9611 178.762C87.6437 178.995 87.1631 179.112 86.5191 179.112ZM92.4864 179V169.2H94.0964V179H92.4864ZM99.7051 179V172.084H101.315V179H99.7051ZM100.503 171.202C100.214 171.202 99.9618 171.109 99.7471 170.922C99.5418 170.726 99.4391 170.469 99.4391 170.152C99.4391 169.835 99.5418 169.583 99.7471 169.396C99.9618 169.2 100.214 169.102 100.503 169.102C100.811 169.102 101.063 169.2 101.259 169.396C101.464 169.583 101.567 169.835 101.567 170.152C101.567 170.469 101.464 170.726 101.259 170.922C101.063 171.109 100.811 171.202 100.503 171.202ZM103.355 179V172.084H104.937V173.05H105.175C105.297 172.789 105.516 172.541 105.833 172.308C106.151 172.075 106.631 171.958 107.275 171.958C107.807 171.958 108.279 172.079 108.689 172.322C109.1 172.565 109.417 172.901 109.641 173.33C109.875 173.759 109.991 174.268 109.991 174.856V179H108.381V174.982C108.381 174.422 108.241 174.007 107.961 173.736C107.691 173.456 107.303 173.316 106.799 173.316C106.23 173.316 105.782 173.507 105.455 173.89C105.129 174.263 104.965 174.8 104.965 175.5V179H103.355ZM114.409 179C113.961 179 113.602 178.869 113.331 178.608C113.07 178.337 112.939 177.973 112.939 177.516V173.414H111.133V172.084H112.939V169.858H114.549V172.084H116.537V173.414H114.549V177.25C114.549 177.53 114.68 177.67 114.941 177.67H116.327V179H114.409ZM121.094 179.196C120.403 179.196 119.792 179.051 119.26 178.762C118.737 178.463 118.326 178.048 118.028 177.516C117.738 176.975 117.594 176.345 117.594 175.626V175.458C117.594 174.73 117.738 174.1 118.028 173.568C118.317 173.036 118.723 172.625 119.246 172.336C119.768 172.037 120.37 171.888 121.052 171.888C121.724 171.888 122.312 172.037 122.816 172.336C123.32 172.625 123.712 173.036 123.992 173.568C124.272 174.1 124.412 174.721 124.412 175.43V176.004H119.218C119.236 176.545 119.428 176.979 119.792 177.306C120.156 177.633 120.604 177.796 121.136 177.796C121.658 177.796 122.046 177.684 122.298 177.46C122.55 177.227 122.741 176.965 122.872 176.676L124.202 177.362C124.071 177.614 123.88 177.885 123.628 178.174C123.385 178.454 123.058 178.697 122.648 178.902C122.237 179.098 121.719 179.196 121.094 179.196ZM119.232 174.786H122.774C122.736 174.329 122.559 173.965 122.242 173.694C121.934 173.423 121.532 173.288 121.038 173.288C120.524 173.288 120.114 173.423 119.806 173.694C119.498 173.965 119.306 174.329 119.232 174.786ZM126.064 179V172.084H127.646V172.882H127.884C127.987 172.593 128.16 172.383 128.402 172.252C128.645 172.121 128.934 172.056 129.27 172.056H130.11V173.484H129.242C128.776 173.484 128.398 173.61 128.108 173.862C127.819 174.105 127.674 174.483 127.674 174.996V179H126.064ZM132.737 179V173.414H130.889V172.084H132.737V170.684C132.737 170.227 132.868 169.867 133.129 169.606C133.4 169.335 133.755 169.2 134.193 169.2H135.985V170.53H134.725C134.464 170.53 134.333 170.67 134.333 170.95V172.084H136.237V173.414H134.333V179H132.737ZM139.677 179.196C139.192 179.196 138.753 179.112 138.361 178.944C137.969 178.767 137.657 178.515 137.423 178.188C137.199 177.861 137.087 177.46 137.087 176.984C137.087 176.517 137.199 176.125 137.423 175.808C137.657 175.491 137.974 175.253 138.375 175.094C138.777 174.926 139.234 174.842 139.747 174.842H141.749V174.422C141.749 174.058 141.637 173.764 141.413 173.54C141.189 173.307 140.839 173.19 140.363 173.19C139.897 173.19 139.542 173.302 139.299 173.526C139.066 173.741 138.912 174.021 138.837 174.366L137.353 173.876C137.465 173.512 137.643 173.181 137.885 172.882C138.137 172.583 138.469 172.345 138.879 172.168C139.29 171.981 139.794 171.888 140.391 171.888C141.297 171.888 142.006 172.117 142.519 172.574C143.042 173.022 143.303 173.675 143.303 174.534V177.25C143.303 177.53 143.434 177.67 143.695 177.67H144.283V179H143.149C142.813 179 142.538 178.916 142.323 178.748C142.109 178.58 142.001 178.351 142.001 178.062V178.034H141.763C141.707 178.165 141.609 178.323 141.469 178.51C141.329 178.697 141.115 178.86 140.825 179C140.545 179.131 140.163 179.196 139.677 179.196ZM139.943 177.88C140.475 177.88 140.909 177.731 141.245 177.432C141.581 177.124 141.749 176.713 141.749 176.2V176.06H139.845C139.5 176.06 139.22 176.135 139.005 176.284C138.791 176.433 138.683 176.653 138.683 176.942C138.683 177.222 138.795 177.451 139.019 177.628C139.243 177.796 139.551 177.88 139.943 177.88ZM148.699 179.196C148.027 179.196 147.42 179.056 146.879 178.776C146.338 178.496 145.908 178.09 145.591 177.558C145.283 177.026 145.129 176.387 145.129 175.64V175.444C145.129 174.697 145.283 174.058 145.591 173.526C145.908 172.994 146.338 172.588 146.879 172.308C147.42 172.028 148.027 171.888 148.699 171.888C149.362 171.888 149.926 172.005 150.393 172.238C150.869 172.471 151.252 172.793 151.541 173.204C151.83 173.605 152.017 174.058 152.101 174.562L150.547 174.884C150.51 174.595 150.421 174.333 150.281 174.1C150.141 173.857 149.94 173.666 149.679 173.526C149.427 173.386 149.114 173.316 148.741 173.316C148.358 173.316 148.013 173.4 147.705 173.568C147.406 173.727 147.168 173.969 146.991 174.296C146.823 174.623 146.739 175.015 146.739 175.472V175.612C146.739 176.069 146.823 176.461 146.991 176.788C147.168 177.105 147.406 177.348 147.705 177.516C148.013 177.684 148.358 177.768 148.741 177.768C149.31 177.768 149.74 177.623 150.029 177.334C150.328 177.035 150.514 176.653 150.589 176.186L152.143 176.55C152.031 177.035 151.83 177.479 151.541 177.88C151.252 178.281 150.869 178.603 150.393 178.846C149.926 179.079 149.362 179.196 148.699 179.196ZM156.873 179.196C156.182 179.196 155.571 179.051 155.039 178.762C154.516 178.463 154.106 178.048 153.807 177.516C153.518 176.975 153.373 176.345 153.373 175.626V175.458C153.373 174.73 153.518 174.1 153.807 173.568C154.096 173.036 154.502 172.625 155.025 172.336C155.548 172.037 156.15 171.888 156.831 171.888C157.503 171.888 158.091 172.037 158.595 172.336C159.099 172.625 159.491 173.036 159.771 173.568C160.051 174.1 160.191 174.721 160.191 175.43V176.004H154.997C155.016 176.545 155.207 176.979 155.571 177.306C155.935 177.633 156.383 177.796 156.915 177.796C157.438 177.796 157.825 177.684 158.077 177.46C158.329 177.227 158.52 176.965 158.651 176.676L159.981 177.362C159.85 177.614 159.659 177.885 159.407 178.174C159.164 178.454 158.838 178.697 158.427 178.902C158.016 179.098 157.498 179.196 156.873 179.196ZM155.011 174.786H158.553C158.516 174.329 158.338 173.965 158.021 173.694C157.713 173.423 157.312 173.288 156.817 173.288C156.304 173.288 155.893 173.423 155.585 173.694C155.277 173.965 155.086 174.329 155.011 174.786ZM162.756 179.196C162.401 179.196 162.102 179.079 161.86 178.846C161.626 178.613 161.51 178.314 161.51 177.95C161.51 177.595 161.626 177.301 161.86 177.068C162.102 176.835 162.401 176.718 162.756 176.718C163.11 176.718 163.404 176.835 163.638 177.068C163.871 177.301 163.988 177.6 163.988 177.964C163.988 178.328 163.871 178.627 163.638 178.86C163.404 179.084 163.11 179.196 162.756 179.196Z" fill="white"/>
</svg>
