<svg width="253" height="50" viewBox="0 0 253 50" fill="none" xmlns="http://www.w3.org/2000/svg">
<path d="M239.384 50C237.402 50 235.468 49.7237 233.583 49.1712C231.73 48.6512 230.008 47.7574 228.415 46.4899L230.56 41.7122C231.665 42.5898 232.9 43.2723 234.265 43.7598C235.63 44.2798 237.125 44.5398 238.75 44.5398C241.318 44.5398 243.187 43.8898 244.357 42.5898C245.559 41.2897 246.161 39.5184 246.161 37.2758V35.3745C245.576 36.122 244.861 36.7396 244.016 37.2271C243.171 37.7146 242.261 38.0721 241.286 38.2996C240.311 38.5271 239.319 38.6409 238.312 38.6409C235.809 38.6409 233.81 38.1371 232.315 37.1296C230.853 36.0895 229.796 34.6758 229.146 32.8882C228.496 31.0681 228.171 29.0043 228.171 26.6967V12.5588H234.07V25.3804C234.07 26.2905 234.135 27.2168 234.265 28.1593C234.395 29.1018 234.655 29.9631 235.045 30.7431C235.435 31.5231 236.004 32.1569 236.752 32.6444C237.532 33.0994 238.555 33.327 239.823 33.327C241.481 33.327 242.764 32.9207 243.674 32.1082C244.584 31.2956 245.202 30.2394 245.527 28.9393C245.884 27.6393 246.063 26.258 246.063 24.7954V12.5588H252.011V35.8133C252.011 37.9909 251.783 39.9409 251.328 41.6635C250.873 43.4185 250.142 44.9136 249.135 46.1486C248.127 47.3837 246.827 48.3262 245.234 48.9762C243.642 49.6587 241.692 50 239.384 50Z" fill="#000000"/>
<path d="M209.574 38.5921C208.371 38.5921 207.234 38.4296 206.161 38.1046C205.089 37.7796 204.13 37.3083 203.285 36.6908C202.44 36.0408 201.757 35.2445 201.237 34.302C200.75 33.327 200.506 32.1894 200.506 30.8894C200.506 29.2318 200.831 27.883 201.481 26.843C202.131 25.7705 203.008 24.9579 204.113 24.4054C205.251 23.8529 206.535 23.4791 207.965 23.2841C209.395 23.0566 210.89 22.9429 212.45 22.9429H217.471C217.471 21.8053 217.293 20.8303 216.935 20.0178C216.578 19.1727 216.009 18.5065 215.229 18.019C214.481 17.5314 213.506 17.2877 212.304 17.2877C211.524 17.2877 210.792 17.3852 210.11 17.5802C209.46 17.7427 208.891 18.019 208.404 18.409C207.949 18.7665 207.624 19.2377 207.429 19.8228H201.335C201.562 18.4902 202.017 17.3527 202.7 16.4102C203.415 15.4351 204.276 14.6388 205.284 14.0213C206.324 13.4038 207.461 12.9488 208.696 12.6563C209.931 12.3313 211.182 12.1688 212.45 12.1688C216.188 12.1688 218.901 13.2413 220.592 15.3864C222.314 17.5314 223.175 20.5378 223.175 24.4054V38.2509H217.91L217.764 34.9358C217.016 36.0408 216.123 36.8533 215.083 37.3733C214.043 37.8934 213.035 38.2184 212.06 38.3484C211.085 38.5109 210.256 38.5921 209.574 38.5921ZM210.744 33.7657C212.044 33.7657 213.198 33.522 214.205 33.0344C215.213 32.5469 216.009 31.8644 216.594 30.9869C217.211 30.1093 217.52 29.1018 217.52 27.9643V27.1355H212.84C212.06 27.1355 211.28 27.168 210.5 27.233C209.752 27.2655 209.07 27.3955 208.452 27.623C207.835 27.818 207.331 28.1268 206.941 28.5493C206.584 28.9718 206.405 29.5731 206.405 30.3531C206.405 31.1331 206.6 31.7669 206.99 32.2544C207.412 32.7419 207.949 33.1157 208.599 33.3757C209.281 33.6357 209.996 33.7657 210.744 33.7657Z" fill="#000000"/>
<path d="M165.728 38.2509L157.684 12.5588H164.265L169.433 31.7182L174.942 12.5588H181.962L187.471 31.7182L192.59 12.5588H199.074L191.03 38.2509H183.912L178.354 19.7253L172.845 38.2509H165.728Z" fill="#000000"/>
<path d="M144.656 38.5921C141.991 38.5921 139.716 38.0396 137.831 36.9346C135.979 35.8295 134.565 34.302 133.59 32.3519C132.647 30.3694 132.176 28.078 132.176 25.4779C132.176 22.8779 132.664 20.5865 133.639 18.604C134.646 16.5889 136.076 15.0126 137.929 13.8751C139.814 12.7375 142.073 12.1688 144.705 12.1688C146.655 12.1688 148.362 12.5263 149.824 13.2413C151.287 13.9238 152.505 14.8664 153.48 16.0689C154.488 17.2714 155.236 18.6365 155.723 20.164C156.211 21.6916 156.438 23.3004 156.406 24.9904C156.373 25.3804 156.341 25.7705 156.308 26.1605C156.276 26.518 156.227 26.908 156.162 27.3305H138.124C138.221 28.468 138.514 29.5081 139.001 30.4506C139.521 31.3931 140.236 32.1407 141.146 32.6932C142.089 33.2457 143.259 33.522 144.656 33.522C145.469 33.522 146.249 33.4245 146.997 33.2294C147.744 33.0019 148.394 32.6769 148.947 32.2544C149.532 31.8319 149.922 31.2956 150.117 30.6456H156.064C155.642 32.4982 154.862 34.0095 153.724 35.1795C152.587 36.3496 151.222 37.2108 149.629 37.7633C148.069 38.3159 146.411 38.5921 144.656 38.5921ZM138.221 22.8941H150.604C150.604 21.8216 150.36 20.8465 149.873 19.969C149.385 19.0915 148.687 18.409 147.777 17.9214C146.899 17.4014 145.826 17.1414 144.559 17.1414C143.194 17.1414 142.056 17.4177 141.146 17.9702C140.236 18.5227 139.538 19.2377 139.05 20.1153C138.562 20.9928 138.286 21.9191 138.221 22.8941Z" fill="#000000"/>
<path d="M124.079 38.5434C121.251 38.5434 119.188 37.7634 117.887 36.2033C116.587 34.6433 115.937 32.482 115.937 29.7194V17.824H111.989V12.5588H115.937V5.34357H121.885V12.5588H129.685V17.824H121.885V28.5981C121.885 29.4431 121.983 30.2069 122.178 30.8894C122.373 31.5719 122.73 32.1082 123.25 32.4982C123.77 32.8882 124.485 33.0995 125.395 33.132C126.175 33.132 126.842 33.002 127.394 32.742C127.947 32.482 128.402 32.1894 128.759 31.8644L130.758 36.3983C130.14 36.9184 129.442 37.3409 128.662 37.6659C127.914 37.9909 127.15 38.2184 126.37 38.3484C125.59 38.4784 124.826 38.5434 124.079 38.5434Z" fill="#000000"/>
<path d="M95.3898 38.5921C94.1873 38.5921 93.0497 38.4296 91.9772 38.1046C90.9047 37.7796 89.9459 37.3083 89.1009 36.6908C88.2558 36.0408 87.5733 35.2445 87.0533 34.302C86.5658 33.327 86.322 32.1894 86.322 30.8894C86.322 29.2318 86.647 27.883 87.2971 26.843C87.9471 25.7705 88.8246 24.9579 89.9296 24.4054C91.0672 23.8529 92.351 23.4791 93.781 23.2841C95.2111 23.0566 96.7061 22.9429 98.2662 22.9429H103.288C103.288 21.8053 103.109 20.8303 102.751 20.0178C102.394 19.1727 101.825 18.5065 101.045 18.019C100.297 17.5314 99.3224 17.2877 98.1199 17.2877C97.3399 17.2877 96.6086 17.3852 95.9261 17.5802C95.2761 17.7427 94.7073 18.019 94.2198 18.409C93.7648 18.7665 93.4398 19.2377 93.2447 19.8228H87.1508C87.3783 18.4902 87.8333 17.3527 88.5158 16.4102C89.2309 15.4351 90.0921 14.6388 91.0997 14.0213C92.1397 13.4038 93.2772 12.9488 94.5123 12.6563C95.7473 12.3313 96.9986 12.1688 98.2662 12.1688C102.004 12.1688 104.718 13.2413 106.408 15.3864C108.13 17.5314 108.992 20.5378 108.992 24.4054V38.2509H103.726L103.58 34.9358C102.833 36.0408 101.939 36.8533 100.899 37.3733C99.8587 37.8934 98.8512 38.2184 97.8761 38.3484C96.9011 38.5109 96.0723 38.5921 95.3898 38.5921ZM96.5599 33.7657C97.8599 33.7657 99.0137 33.522 100.021 33.0344C101.029 32.5469 101.825 31.8644 102.41 30.9869C103.028 30.1093 103.336 29.1018 103.336 27.9643V27.1355H98.6562C97.8761 27.1355 97.0961 27.168 96.3161 27.233C95.5686 27.2655 94.8861 27.3955 94.2685 27.623C93.651 27.818 93.1472 28.1268 92.7572 28.5493C92.3997 28.9718 92.221 29.5731 92.221 30.3531C92.221 31.1331 92.416 31.7669 92.806 32.2544C93.2285 32.7419 93.7648 33.1157 94.4148 33.3757C95.0973 33.6357 95.8123 33.7657 96.5599 33.7657Z" fill="#000000"/>
<path d="M69.8359 50C67.9509 50 66.1796 49.6912 64.522 49.0737C62.8969 48.4887 61.5156 47.5462 60.3781 46.2461C59.2731 44.9786 58.5256 43.3373 58.1355 41.3222H64.2295C64.4245 42.1022 64.8145 42.736 65.3995 43.2235C65.9845 43.711 66.6671 44.0523 67.4471 44.2473C68.2596 44.4748 69.0884 44.5886 69.9334 44.5886C71.526 44.5886 72.7773 44.2636 73.6873 43.6135C74.6298 42.9635 75.2961 42.0697 75.6861 40.9322C76.0761 39.8272 76.2711 38.6084 76.2711 37.2758V34.8383C75.6861 35.7808 74.9386 36.5283 74.0286 37.0808C73.151 37.6333 72.2085 38.0234 71.201 38.2509C70.2259 38.4459 69.2509 38.5434 68.2759 38.5434C65.6108 38.5434 63.4332 37.9584 61.7432 36.7883C60.0856 35.6183 58.8668 34.0582 58.0868 32.1082C57.3068 30.1256 56.9167 27.948 56.9167 25.5755C56.9167 23.1054 57.3393 20.8628 58.1843 18.8477C59.0618 16.8002 60.3619 15.1751 62.0844 13.9726C63.8395 12.77 66.0333 12.1688 68.6659 12.1688C70.1934 12.1688 71.6235 12.445 72.956 12.9975C74.3211 13.5176 75.4586 14.3138 76.3686 15.3864L76.7586 12.5588H82.2676V36.0083C82.2676 38.9009 81.8451 41.3872 81 43.4673C80.1875 45.5799 78.8712 47.1887 77.0512 48.2937C75.2311 49.4312 72.826 50 69.8359 50ZM69.4947 33.2782C71.0222 33.2782 72.2898 32.9207 73.2973 32.2057C74.3048 31.4581 75.0686 30.4831 75.5886 29.2806C76.1086 28.0455 76.3686 26.713 76.3686 25.2829C76.3686 23.8204 76.1086 22.5041 75.5886 21.3341C75.1011 20.164 74.3536 19.2377 73.346 18.5552C72.371 17.8727 71.1035 17.5314 69.5434 17.5314C67.8859 17.5314 66.5696 17.9052 65.5945 18.6527C64.6195 19.4002 63.9045 20.3915 63.4495 21.6266C63.0269 22.8291 62.8157 24.1129 62.8157 25.4779C62.8157 26.908 63.0432 28.2243 63.4982 29.4268C63.9532 30.5969 64.6683 31.5394 65.6433 32.2544C66.6183 32.9369 67.9021 33.2782 69.4947 33.2782Z" fill="#000000"/>
<path d="M3.69686 23.8527C3.69687 31.1119 5.66063 37.8715 9.05588 42.9386C9.3749 43.4147 9.70977 43.88 10.06 44.3318C4.22897 41.592 -4.46818e-07 33.4596 0 23.8523L0.0045584 23.2985C0.163554 13.9329 4.34179 6.05794 10.0612 3.37164C9.71049 3.8241 9.37534 4.29009 9.05588 4.76684C5.66063 9.83403 3.69686 16.5935 3.69686 23.8527Z" fill="#000000"/>
<path d="M23.8534 6.10352e-05C28.5238 0.000112145 32.7258 2.99006 35.6481 7.75696C35.0981 7.70288 34.5309 7.67508 33.9474 7.67508C33.0744 7.6751 32.1964 7.73784 31.3197 7.85739C29.0105 4.91 26.3439 3.55486 23.8534 3.55482C21.0788 3.55486 18.0849 5.23628 15.611 8.9283C13.1589 12.5879 11.523 17.8545 11.523 23.8528C11.523 29.851 13.1589 35.1177 15.611 38.7773C18.0849 42.4693 21.0788 44.1507 23.8534 44.1508C23.8824 44.1508 23.9115 44.1495 23.9405 44.1492H32.2512C29.8108 46.4032 26.9344 47.7055 23.8534 47.7055L23.6466 47.7035C14.9151 47.5382 7.87087 36.9232 7.87085 23.8528L7.87624 23.2373C8.09325 10.4507 15.0525 0.164783 23.6466 0.0020778L23.8534 6.10352e-05Z" fill="#000000"/>
<path d="M29.6846 27.1123C31.7287 27.1123 33.4821 27.4588 34.7254 28.0319C35.4613 28.3712 35.3329 29.4011 34.4738 30.0031H34.4747C32.5443 31.3558 30.2327 32.1909 27.9893 32.1909C25.7459 32.1909 23.9923 31.3559 22.9647 30.0031C22.5075 29.4014 23.0669 28.3712 24.0293 28.0319C25.6553 27.4587 27.6404 27.1123 29.6846 27.1123Z" fill="#000000"/>
<path fill-rule="evenodd" clip-rule="evenodd" d="M33.9471 7.67505C42.5761 7.67505 47.6528 13.7354 45.9332 21.5089C47.643 23.2791 48.2175 25.948 47.2208 28.9338C45.4416 34.2637 39.3314 38.5844 33.5738 38.5845L33.5729 38.5841L33.5725 38.5853H12.9076L12.5641 38.5812C12.1064 38.5704 11.6618 38.5375 11.231 38.4844C9.12545 34.4444 7.87061 29.3673 7.87061 23.8528C7.87061 22.3391 7.96639 20.8585 8.14701 19.4231C10.9161 16.7769 14.5172 14.8411 18.2049 14.1428C22.5406 10.2272 28.348 7.67522 33.9471 7.67505ZM39.0588 22.3362C37.7017 22.3363 33.9046 23.0565 31.0389 23.0565C28.1729 23.0565 24.8564 22.3362 23.4997 22.3362C22.143 22.3363 20.7032 23.3548 20.284 24.6107C18.5372 29.8438 21.7038 34.0861 27.3569 34.0863C33.0102 34.0863 39.0095 29.8439 40.7566 24.6107C41.1758 23.3547 40.4155 22.3362 39.0588 22.3362ZM28.0337 14.8874C26.4506 14.8874 24.7704 16.0757 24.2813 17.5411C23.7922 19.0064 24.6792 20.1943 26.2621 20.1943C27.845 20.1943 29.5248 19.0064 30.0141 17.5411C30.5032 16.0757 29.6166 14.8875 28.0337 14.8874ZM39.4997 14.887C37.9166 14.887 36.2365 16.0752 35.7473 17.5407C35.2583 19.006 36.1452 20.1939 37.7281 20.1939C39.311 20.1938 40.9904 19.0059 41.4797 17.5407C41.9689 16.0753 41.0826 14.8871 39.4997 14.887Z" fill="#000000"/>
</svg>
