<svg width="200" height="240" viewBox="0 0 200 240" fill="none" xmlns="http://www.w3.org/2000/svg">
<path d="M67.856 32.3834C67.8398 30.9753 67.9209 29.5347 68.0992 28.0942C69.9805 12.7985 82.8738 0.837107 98.2971 0.0439987C116.818 -0.910969 132.144 13.802 132.144 32.0759L132.144 32.1568C132.144 36.6565 135.663 40.3793 140.172 40.3793L165.18 40.3793C174.797 40.3793 183.506 44.2639 189.815 50.544C196.108 56.8403 200 65.5322 200 75.1304L200 212.112C199.87 211.416 199.741 210.704 199.659 209.991C197.356 226.938 182.809 240 165.18 240L34.82 240C15.5854 240 -2.50696e-05 224.445 -2.42305e-05 205.249L-1.85436e-05 75.1466C-1.77044e-05 55.9501 15.5854 40.3954 34.82 40.3954L59.8443 40.3954C64.2718 40.3954 67.9046 36.8022 67.856 32.3834Z" fill="#2050F2"/>
<rect x="81.1545" y="13.71" width="37.259" height="37.2851" rx="18.6295" fill="#E4EAF2"/>
<rect x="81.1545" y="13.71" width="37.259" height="37.2851" rx="18.6295" stroke="#E4EAF2"/>
<path d="M11.8201 94.28C10.7401 94.28 9.7868 94.0867 8.96014 93.7C8.13347 93.3133 7.4868 92.76 7.02014 92.04C6.55347 91.32 6.32014 90.4533 6.32014 89.44V88.88H8.92014V89.44C8.92014 90.28 9.18014 90.9133 9.70014 91.34C10.2201 91.7533 10.9268 91.96 11.8201 91.96C12.7268 91.96 13.4001 91.78 13.8401 91.42C14.2935 91.06 14.5201 90.6 14.5201 90.04C14.5201 89.6533 14.4068 89.34 14.1801 89.1C13.9668 88.86 13.6468 88.6667 13.2201 88.52C12.8068 88.36 12.3001 88.2133 11.7001 88.08L11.2401 87.98C10.2801 87.7667 9.45347 87.5 8.76014 87.18C8.08014 86.8467 7.55347 86.4133 7.18014 85.88C6.82014 85.3467 6.64014 84.6533 6.64014 83.8C6.64014 82.9467 6.84014 82.22 7.24014 81.62C7.65347 81.0067 8.2268 80.54 8.96014 80.22C9.7068 79.8867 10.5801 79.72 11.5801 79.72C12.5801 79.72 13.4668 79.8933 14.2401 80.24C15.0268 80.5733 15.6401 81.08 16.0801 81.76C16.5335 82.4267 16.7601 83.2667 16.7601 84.28V84.88H14.1601V84.28C14.1601 83.7467 14.0535 83.32 13.8401 83C13.6401 82.6667 13.3468 82.4267 12.9601 82.28C12.5735 82.12 12.1135 82.04 11.5801 82.04C10.7801 82.04 10.1868 82.1933 9.80014 82.5C9.4268 82.7933 9.24014 83.2 9.24014 83.72C9.24014 84.0667 9.3268 84.36 9.50014 84.6C9.6868 84.84 9.96014 85.04 10.3201 85.2C10.6801 85.36 11.1401 85.5 11.7001 85.62L12.1601 85.72C13.1601 85.9333 14.0268 86.2067 14.7601 86.54C15.5068 86.8733 16.0868 87.3133 16.5001 87.86C16.9135 88.4067 17.1201 89.1067 17.1201 89.96C17.1201 90.8133 16.9001 91.5667 16.4601 92.22C16.0335 92.86 15.4201 93.3667 14.6201 93.74C13.8335 94.1 12.9001 94.28 11.8201 94.28ZM19.169 94V84.08H21.649V85.16H22.009C22.1824 84.8267 22.469 84.54 22.869 84.3C23.269 84.0467 23.7957 83.92 24.449 83.92C25.1557 83.92 25.7224 84.06 26.149 84.34C26.5757 84.6067 26.9024 84.96 27.129 85.4H27.489C27.7157 84.9733 28.0357 84.62 28.449 84.34C28.8624 84.06 29.449 83.92 30.209 83.92C30.8224 83.92 31.3757 84.0533 31.869 84.32C32.3757 84.5733 32.7757 84.9667 33.069 85.5C33.3757 86.02 33.529 86.68 33.529 87.48V94H31.009V87.66C31.009 87.1133 30.869 86.7067 30.589 86.44C30.309 86.16 29.9157 86.02 29.409 86.02C28.8357 86.02 28.389 86.2067 28.069 86.58C27.7624 86.94 27.609 87.46 27.609 88.14V94H25.089V87.66C25.089 87.1133 24.949 86.7067 24.669 86.44C24.389 86.16 23.9957 86.02 23.489 86.02C22.9157 86.02 22.469 86.2067 22.149 86.58C21.8424 86.94 21.689 87.46 21.689 88.14V94H19.169ZM39.3194 94.28C38.6127 94.28 37.9794 94.16 37.4194 93.92C36.8594 93.6667 36.4127 93.3067 36.0794 92.84C35.7594 92.36 35.5994 91.78 35.5994 91.1C35.5994 90.42 35.7594 89.8533 36.0794 89.4C36.4127 88.9333 36.866 88.5867 37.4394 88.36C38.026 88.12 38.6927 88 39.4394 88H42.1594V87.44C42.1594 86.9733 42.0127 86.5933 41.7194 86.3C41.426 85.9933 40.9594 85.84 40.3194 85.84C39.6927 85.84 39.226 85.9867 38.9194 86.28C38.6127 86.56 38.4127 86.9267 38.3194 87.38L35.9994 86.6C36.1594 86.0933 36.4127 85.6333 36.7594 85.22C37.1194 84.7933 37.5927 84.4533 38.1794 84.2C38.7794 83.9333 39.506 83.8 40.3594 83.8C41.666 83.8 42.6994 84.1267 43.4594 84.78C44.2194 85.4333 44.5994 86.38 44.5994 87.62V91.32C44.5994 91.72 44.786 91.92 45.1594 91.92H45.9594V94H44.2794C43.786 94 43.3794 93.88 43.0594 93.64C42.7394 93.4 42.5794 93.08 42.5794 92.68V92.66H42.1994C42.146 92.82 42.026 93.0333 41.8394 93.3C41.6527 93.5533 41.3594 93.78 40.9594 93.98C40.5594 94.18 40.0127 94.28 39.3194 94.28ZM39.7594 92.24C40.466 92.24 41.0394 92.0467 41.4794 91.66C41.9327 91.26 42.1594 90.7333 42.1594 90.08V89.88H39.6194C39.1527 89.88 38.786 89.98 38.5194 90.18C38.2527 90.38 38.1194 90.66 38.1194 91.02C38.1194 91.38 38.2594 91.6733 38.5394 91.9C38.8194 92.1267 39.226 92.24 39.7594 92.24ZM47.8019 94V84.08H50.2819V85.2H50.6419C50.7885 84.8 51.0285 84.5067 51.3619 84.32C51.7085 84.1333 52.1085 84.04 52.5619 84.04H53.7619V86.28H52.5219C51.8819 86.28 51.3552 86.4533 50.9419 86.8C50.5285 87.1333 50.3219 87.6533 50.3219 88.36V94H47.8019ZM59.5315 94C58.8782 94 58.3449 93.8 57.9315 93.4C57.5315 92.9867 57.3315 92.44 57.3315 91.76V86.16H54.8515V84.08H57.3315V81H59.8515V84.08H62.5715V86.16H59.8515V91.32C59.8515 91.72 60.0382 91.92 60.4115 91.92H62.3315V94H59.5315ZM69.8508 94V80H74.8708L77.6508 92.2H78.0108V80H80.6108V94H75.5908L72.8108 81.8H72.4508V94H69.8508ZM88.0492 94.28C87.0625 94.28 86.1759 94.08 85.3892 93.68C84.6025 93.28 83.9825 92.7 83.5292 91.94C83.0759 91.18 82.8492 90.2667 82.8492 89.2V88.88C82.8492 87.8133 83.0759 86.9 83.5292 86.14C83.9825 85.38 84.6025 84.8 85.3892 84.4C86.1759 84 87.0625 83.8 88.0492 83.8C89.0359 83.8 89.9225 84 90.7092 84.4C91.4959 84.8 92.1159 85.38 92.5692 86.14C93.0225 86.9 93.2492 87.8133 93.2492 88.88V89.2C93.2492 90.2667 93.0225 91.18 92.5692 91.94C92.1159 92.7 91.4959 93.28 90.7092 93.68C89.9225 94.08 89.0359 94.28 88.0492 94.28ZM88.0492 92.04C88.8225 92.04 89.4625 91.7933 89.9692 91.3C90.4759 90.7933 90.7292 90.0733 90.7292 89.14V88.94C90.7292 88.0067 90.4759 87.2933 89.9692 86.8C89.4759 86.2933 88.8359 86.04 88.0492 86.04C87.2759 86.04 86.6359 86.2933 86.1292 86.8C85.6225 87.2933 85.3692 88.0067 85.3692 88.94V89.14C85.3692 90.0733 85.6225 90.7933 86.1292 91.3C86.6359 91.7933 87.2759 92.04 88.0492 92.04ZM99.0433 94C98.3899 94 97.8566 93.8 97.4433 93.4C97.0433 92.9867 96.8433 92.44 96.8433 91.76V86.16H94.3633V84.08H96.8433V81H99.3633V84.08H102.083V86.16H99.3633V91.32C99.3633 91.72 99.5499 91.92 99.9233 91.92H101.843V94H99.0433ZM104.364 94V84.08H106.884V94H104.364ZM105.624 82.92C105.171 82.92 104.784 82.7733 104.464 82.48C104.158 82.1867 104.004 81.8 104.004 81.32C104.004 80.84 104.158 80.4533 104.464 80.16C104.784 79.8667 105.171 79.72 105.624 79.72C106.091 79.72 106.478 79.8667 106.784 80.16C107.091 80.4533 107.244 80.84 107.244 81.32C107.244 81.8 107.091 82.1867 106.784 82.48C106.478 82.7733 106.091 82.92 105.624 82.92ZM111.317 94V86.16H108.797V84.08H111.317V82.24C111.317 81.56 111.517 81.02 111.917 80.62C112.33 80.2067 112.864 80 113.517 80H115.917V82.08H114.397C114.024 82.08 113.837 82.28 113.837 82.68V84.08H117.837V86.16H113.837V94H111.317ZM117.837 94V84.08H120.357V94H117.837ZM119.097 83C118.644 83 118.257 82.8533 117.937 82.56C117.63 82.2667 117.477 81.88 117.477 81.4C117.477 80.92 117.63 80.5333 117.937 80.24C118.257 79.9467 118.644 79.8 119.097 79.8C119.564 79.8 119.95 79.9467 120.257 80.24C120.564 80.5333 120.717 80.92 120.717 81.4C120.717 81.88 120.564 82.2667 120.257 82.56C119.95 82.8533 119.564 83 119.097 83ZM127.813 94.28C126.853 94.28 125.98 94.08 125.193 93.68C124.42 93.28 123.807 92.7 123.353 91.94C122.9 91.18 122.673 90.26 122.673 89.18V88.9C122.673 87.82 122.9 86.9 123.353 86.14C123.807 85.38 124.42 84.8 125.193 84.4C125.98 84 126.853 83.8 127.813 83.8C128.76 83.8 129.573 83.9667 130.253 84.3C130.933 84.6333 131.48 85.0933 131.893 85.68C132.32 86.2533 132.6 86.9067 132.733 87.64L130.293 88.16C130.24 87.76 130.12 87.4 129.933 87.08C129.747 86.76 129.48 86.5067 129.133 86.32C128.8 86.1333 128.38 86.04 127.873 86.04C127.367 86.04 126.907 86.1533 126.493 86.38C126.093 86.5933 125.773 86.92 125.533 87.36C125.307 87.7867 125.193 88.3133 125.193 88.94V89.14C125.193 89.7667 125.307 90.3 125.533 90.74C125.773 91.1667 126.093 91.4933 126.493 91.72C126.907 91.9333 127.367 92.04 127.873 92.04C128.633 92.04 129.207 91.8467 129.593 91.46C129.993 91.06 130.247 90.54 130.353 89.9L132.793 90.48C132.62 91.1867 132.32 91.8333 131.893 92.42C131.48 92.9933 130.933 93.4467 130.253 93.78C129.573 94.1133 128.76 94.28 127.813 94.28ZM137.952 94.28C137.246 94.28 136.612 94.16 136.052 93.92C135.492 93.6667 135.046 93.3067 134.712 92.84C134.392 92.36 134.232 91.78 134.232 91.1C134.232 90.42 134.392 89.8533 134.712 89.4C135.046 88.9333 135.499 88.5867 136.072 88.36C136.659 88.12 137.326 88 138.072 88H140.792V87.44C140.792 86.9733 140.646 86.5933 140.352 86.3C140.059 85.9933 139.592 85.84 138.952 85.84C138.326 85.84 137.859 85.9867 137.552 86.28C137.246 86.56 137.046 86.9267 136.952 87.38L134.632 86.6C134.792 86.0933 135.046 85.6333 135.392 85.22C135.752 84.7933 136.226 84.4533 136.812 84.2C137.412 83.9333 138.139 83.8 138.992 83.8C140.299 83.8 141.332 84.1267 142.092 84.78C142.852 85.4333 143.232 86.38 143.232 87.62V91.32C143.232 91.72 143.419 91.92 143.792 91.92H144.592V94H142.912C142.419 94 142.012 93.88 141.692 93.64C141.372 93.4 141.212 93.08 141.212 92.68V92.66H140.832C140.779 92.82 140.659 93.0333 140.472 93.3C140.286 93.5533 139.992 93.78 139.592 93.98C139.192 94.18 138.646 94.28 137.952 94.28ZM138.392 92.24C139.099 92.24 139.672 92.0467 140.112 91.66C140.566 91.26 140.792 90.7333 140.792 90.08V89.88H138.252C137.786 89.88 137.419 89.98 137.152 90.18C136.886 90.38 136.752 90.66 136.752 91.02C136.752 91.38 136.892 91.6733 137.172 91.9C137.452 92.1267 137.859 92.24 138.392 92.24ZM149.512 94C148.859 94 148.325 93.8 147.912 93.4C147.512 92.9867 147.312 92.44 147.312 91.76V86.16H144.832V84.08H147.312V81H149.832V84.08H152.552V86.16H149.832V91.32C149.832 91.72 150.019 91.92 150.392 91.92H152.312V94H149.512ZM154.833 94V84.08H157.353V94H154.833ZM156.093 82.92C155.64 82.92 155.253 82.7733 154.933 82.48C154.626 82.1867 154.473 81.8 154.473 81.32C154.473 80.84 154.626 80.4533 154.933 80.16C155.253 79.8667 155.64 79.72 156.093 79.72C156.56 79.72 156.946 79.8667 157.253 80.16C157.56 80.4533 157.713 80.84 157.713 81.32C157.713 81.8 157.56 82.1867 157.253 82.48C156.946 82.7733 156.56 82.92 156.093 82.92ZM164.866 94.28C163.879 94.28 162.992 94.08 162.206 93.68C161.419 93.28 160.799 92.7 160.346 91.94C159.892 91.18 159.666 90.2667 159.666 89.2V88.88C159.666 87.8133 159.892 86.9 160.346 86.14C160.799 85.38 161.419 84.8 162.206 84.4C162.992 84 163.879 83.8 164.866 83.8C165.852 83.8 166.739 84 167.526 84.4C168.312 84.8 168.932 85.38 169.386 86.14C169.839 86.9 170.066 87.8133 170.066 88.88V89.2C170.066 90.2667 169.839 91.18 169.386 91.94C168.932 92.7 168.312 93.28 167.526 93.68C166.739 94.08 165.852 94.28 164.866 94.28ZM164.866 92.04C165.639 92.04 166.279 91.7933 166.786 91.3C167.292 90.7933 167.546 90.0733 167.546 89.14V88.94C167.546 88.0067 167.292 87.2933 166.786 86.8C166.292 86.2933 165.652 86.04 164.866 86.04C164.092 86.04 163.452 86.2933 162.946 86.8C162.439 87.2933 162.186 88.0067 162.186 88.94V89.14C162.186 90.0733 162.439 90.7933 162.946 91.3C163.452 91.7933 164.092 92.04 164.866 92.04ZM172.392 94V84.08H174.872V85.38H175.232C175.392 85.0333 175.692 84.7067 176.132 84.4C176.572 84.08 177.238 83.92 178.132 83.92C178.905 83.92 179.578 84.1 180.152 84.46C180.738 84.8067 181.192 85.2933 181.512 85.92C181.832 86.5333 181.992 87.2533 181.992 88.08V94H179.472V88.28C179.472 87.5333 179.285 86.9733 178.912 86.6C178.552 86.2267 178.032 86.04 177.352 86.04C176.578 86.04 175.978 86.3 175.552 86.82C175.125 87.3267 174.912 88.04 174.912 88.96V94H172.392ZM188.836 94.28C187.543 94.28 186.483 94 185.656 93.44C184.829 92.88 184.329 92.08 184.156 91.04L186.476 90.44C186.569 90.9067 186.723 91.2733 186.936 91.54C187.163 91.8067 187.436 92 187.756 92.12C188.089 92.2267 188.449 92.28 188.836 92.28C189.423 92.28 189.856 92.18 190.136 91.98C190.416 91.7667 190.556 91.5067 190.556 91.2C190.556 90.8933 190.423 90.66 190.156 90.5C189.889 90.3267 189.463 90.1867 188.876 90.08L188.316 89.98C187.623 89.8467 186.989 89.6667 186.416 89.44C185.843 89.2 185.383 88.8733 185.036 88.46C184.689 88.0467 184.516 87.5133 184.516 86.86C184.516 85.8733 184.876 85.12 185.596 84.6C186.316 84.0667 187.263 83.8 188.436 83.8C189.543 83.8 190.463 84.0467 191.196 84.54C191.929 85.0333 192.409 85.68 192.636 86.48L190.296 87.2C190.189 86.6933 189.969 86.3333 189.636 86.12C189.316 85.9067 188.916 85.8 188.436 85.8C187.956 85.8 187.589 85.8867 187.336 86.06C187.083 86.22 186.956 86.4467 186.956 86.74C186.956 87.06 187.089 87.3 187.356 87.46C187.623 87.6067 187.983 87.72 188.436 87.8L188.996 87.9C189.743 88.0333 190.416 88.2133 191.016 88.44C191.629 88.6533 192.109 88.9667 192.456 89.38C192.816 89.78 192.996 90.3267 192.996 91.02C192.996 92.06 192.616 92.8667 191.856 93.44C191.109 94 190.103 94.28 188.836 94.28Z" fill="white"/>
<path d="M33.468 143L36.156 133.2H39.082L41.77 143H40.034L39.446 140.76H35.792L35.204 143H33.468ZM36.184 139.22H39.054L37.738 134.25H37.5L36.184 139.22ZM45.7154 143.112C45.1834 143.112 44.712 142.995 44.3014 142.762C43.8907 142.519 43.5734 142.183 43.3494 141.754C43.1254 141.315 43.0134 140.807 43.0134 140.228V136.084H44.6094V140.102C44.6094 140.662 44.7447 141.077 45.0154 141.348C45.2954 141.619 45.6874 141.754 46.1914 141.754C46.7607 141.754 47.2087 141.567 47.5354 141.194C47.8714 140.821 48.0394 140.284 48.0394 139.584V136.084H49.6354V143H48.0674V142.034H47.8294C47.708 142.286 47.484 142.529 47.1574 142.762C46.84 142.995 46.3594 143.112 45.7154 143.112ZM54.3146 143C53.8666 143 53.5073 142.869 53.2366 142.608C52.9753 142.337 52.8446 141.973 52.8446 141.516V137.414H51.0386V136.084H52.8446V133.858H54.4546V136.084H56.4426V137.414H54.4546V141.25C54.4546 141.53 54.5853 141.67 54.8466 141.67H56.2326V143H54.3146ZM61.111 143.196C60.4203 143.196 59.7997 143.056 59.249 142.776C58.7077 142.487 58.2783 142.081 57.961 141.558C57.653 141.026 57.499 140.391 57.499 139.654V139.43C57.499 138.693 57.653 138.058 57.961 137.526C58.2783 136.994 58.7077 136.588 59.249 136.308C59.7997 136.028 60.4203 135.888 61.111 135.888C61.8017 135.888 62.4177 136.028 62.959 136.308C63.5003 136.588 63.925 136.994 64.233 137.526C64.5503 138.058 64.709 138.693 64.709 139.43V139.654C64.709 140.391 64.5503 141.026 64.233 141.558C63.925 142.081 63.5003 142.487 62.959 142.776C62.4177 143.056 61.8017 143.196 61.111 143.196ZM61.111 141.768C61.699 141.768 62.1797 141.581 62.553 141.208C62.9263 140.825 63.113 140.293 63.113 139.612V139.472C63.113 138.791 62.9263 138.263 62.553 137.89C62.1797 137.507 61.699 137.316 61.111 137.316C60.523 137.316 60.0423 137.507 59.669 137.89C59.2957 138.263 59.109 138.791 59.109 139.472V139.612C59.109 140.293 59.2957 140.825 59.669 141.208C60.0423 141.581 60.523 141.768 61.111 141.768ZM66.4209 143V136.084H68.0029V136.854H68.2409C68.3623 136.621 68.5629 136.415 68.8429 136.238C69.1323 136.051 69.5149 135.958 69.9909 135.958C70.4949 135.958 70.9009 136.061 71.2089 136.266C71.5169 136.471 71.7503 136.733 71.9089 137.05H72.1329C72.2916 136.733 72.5203 136.471 72.8189 136.266C73.1176 136.061 73.5423 135.958 74.0929 135.958C74.5223 135.958 74.9096 136.051 75.2549 136.238C75.6096 136.425 75.8896 136.7 76.0949 137.064C76.3096 137.428 76.4169 137.881 76.4169 138.422V143H74.8069V138.534C74.8069 138.133 74.6996 137.829 74.4849 137.624C74.2703 137.409 73.9716 137.302 73.5889 137.302C73.1689 137.302 72.8329 137.442 72.5809 137.722C72.3383 137.993 72.2169 138.385 72.2169 138.898V143H70.6209V138.534C70.6209 138.133 70.5136 137.829 70.2989 137.624C70.0843 137.409 69.7856 137.302 69.4029 137.302C68.9736 137.302 68.6376 137.442 68.3949 137.722C68.1523 137.993 68.0309 138.385 68.0309 138.898V143H66.4209ZM80.5395 143.196C80.0542 143.196 79.6155 143.112 79.2235 142.944C78.8315 142.767 78.5188 142.515 78.2855 142.188C78.0615 141.861 77.9495 141.46 77.9495 140.984C77.9495 140.517 78.0615 140.125 78.2855 139.808C78.5188 139.491 78.8362 139.253 79.2375 139.094C79.6388 138.926 80.0962 138.842 80.6095 138.842H82.6115V138.422C82.6115 138.058 82.4995 137.764 82.2755 137.54C82.0515 137.307 81.7015 137.19 81.2255 137.19C80.7588 137.19 80.4042 137.302 80.1615 137.526C79.9282 137.741 79.7742 138.021 79.6995 138.366L78.2155 137.876C78.3275 137.512 78.5048 137.181 78.7475 136.882C78.9995 136.583 79.3308 136.345 79.7415 136.168C80.1522 135.981 80.6562 135.888 81.2535 135.888C82.1588 135.888 82.8682 136.117 83.3815 136.574C83.9042 137.022 84.1655 137.675 84.1655 138.534V141.25C84.1655 141.53 84.2962 141.67 84.5575 141.67H85.1455V143H84.0115C83.6755 143 83.4002 142.916 83.1855 142.748C82.9708 142.58 82.8635 142.351 82.8635 142.062V142.034H82.6255C82.5695 142.165 82.4715 142.323 82.3315 142.51C82.1915 142.697 81.9768 142.86 81.6875 143C81.4075 143.131 81.0248 143.196 80.5395 143.196ZM80.8055 141.88C81.3375 141.88 81.7715 141.731 82.1075 141.432C82.4435 141.124 82.6115 140.713 82.6115 140.2V140.06H80.7075C80.3622 140.06 80.0822 140.135 79.8675 140.284C79.6528 140.433 79.5455 140.653 79.5455 140.942C79.5455 141.222 79.6575 141.451 79.8815 141.628C80.1055 141.796 80.4135 141.88 80.8055 141.88ZM88.6174 143C88.1694 143 87.81 142.869 87.5394 142.608C87.278 142.337 87.1474 141.973 87.1474 141.516V137.414H85.3414V136.084H87.1474V133.858H88.7574V136.084H90.7454V137.414H88.7574V141.25C88.7574 141.53 88.888 141.67 89.1494 141.67H90.5354V143H88.6174ZM95.3017 143.196C94.6111 143.196 93.9997 143.051 93.4677 142.762C92.9451 142.463 92.5344 142.048 92.2357 141.516C91.9464 140.975 91.8017 140.345 91.8017 139.626V139.458C91.8017 138.73 91.9464 138.1 92.2357 137.568C92.5251 137.036 92.9311 136.625 93.4537 136.336C93.9764 136.037 94.5784 135.888 95.2597 135.888C95.9317 135.888 96.5197 136.037 97.0237 136.336C97.5277 136.625 97.9197 137.036 98.1997 137.568C98.4797 138.1 98.6197 138.721 98.6197 139.43V140.004H93.4257C93.4444 140.545 93.6357 140.979 93.9997 141.306C94.3637 141.633 94.8117 141.796 95.3437 141.796C95.8664 141.796 96.2537 141.684 96.5057 141.46C96.7577 141.227 96.9491 140.965 97.0797 140.676L98.4097 141.362C98.2791 141.614 98.0877 141.885 97.8357 142.174C97.5931 142.454 97.2664 142.697 96.8557 142.902C96.4451 143.098 95.9271 143.196 95.3017 143.196ZM93.4397 138.786H96.9817C96.9444 138.329 96.7671 137.965 96.4497 137.694C96.1417 137.423 95.7404 137.288 95.2457 137.288C94.7324 137.288 94.3217 137.423 94.0137 137.694C93.7057 137.965 93.5144 138.329 93.4397 138.786ZM104.611 145.8V144.4H108.433C108.694 144.4 108.825 144.26 108.825 143.98V142.048H108.587C108.512 142.216 108.391 142.384 108.223 142.552C108.055 142.711 107.831 142.846 107.551 142.958C107.271 143.061 106.916 143.112 106.487 143.112C105.955 143.112 105.484 142.995 105.073 142.762C104.662 142.519 104.345 142.183 104.121 141.754C103.897 141.315 103.785 140.807 103.785 140.228V136.084H105.381V140.102C105.381 140.662 105.516 141.077 105.787 141.348C106.067 141.619 106.459 141.754 106.963 141.754C107.532 141.754 107.98 141.567 108.307 141.194C108.643 140.821 108.811 140.284 108.811 139.584V136.084H110.407V144.316C110.407 144.773 110.276 145.133 110.015 145.394C109.754 145.665 109.399 145.8 108.951 145.8H104.611ZM115.73 143.196C115.039 143.196 114.419 143.056 113.868 142.776C113.327 142.487 112.897 142.081 112.58 141.558C112.272 141.026 112.118 140.391 112.118 139.654V139.43C112.118 138.693 112.272 138.058 112.58 137.526C112.897 136.994 113.327 136.588 113.868 136.308C114.419 136.028 115.039 135.888 115.73 135.888C116.421 135.888 117.037 136.028 117.578 136.308C118.119 136.588 118.544 136.994 118.852 137.526C119.169 138.058 119.328 138.693 119.328 139.43V139.654C119.328 140.391 119.169 141.026 118.852 141.558C118.544 142.081 118.119 142.487 117.578 142.776C117.037 143.056 116.421 143.196 115.73 143.196ZM115.73 141.768C116.318 141.768 116.799 141.581 117.172 141.208C117.545 140.825 117.732 140.293 117.732 139.612V139.472C117.732 138.791 117.545 138.263 117.172 137.89C116.799 137.507 116.318 137.316 115.73 137.316C115.142 137.316 114.661 137.507 114.288 137.89C113.915 138.263 113.728 138.791 113.728 139.472V139.612C113.728 140.293 113.915 140.825 114.288 141.208C114.661 141.581 115.142 141.768 115.73 141.768ZM123.686 143.112C123.154 143.112 122.683 142.995 122.272 142.762C121.861 142.519 121.544 142.183 121.32 141.754C121.096 141.315 120.984 140.807 120.984 140.228V136.084H122.58V140.102C122.58 140.662 122.715 141.077 122.986 141.348C123.266 141.619 123.658 141.754 124.162 141.754C124.731 141.754 125.179 141.567 125.506 141.194C125.842 140.821 126.01 140.284 126.01 139.584V136.084H127.606V143H126.038V142.034H125.8C125.679 142.286 125.455 142.529 125.128 142.762C124.811 142.995 124.33 143.112 123.686 143.112ZM129.653 143V136.084H131.235V136.882H131.473C131.576 136.593 131.749 136.383 131.991 136.252C132.234 136.121 132.523 136.056 132.859 136.056H133.699V137.484H132.831C132.365 137.484 131.987 137.61 131.697 137.862C131.408 138.105 131.263 138.483 131.263 138.996V143H129.653ZM138.312 143V141.516H139.628V134.684H138.312V133.2H142.302C143.609 133.2 144.608 133.531 145.298 134.194C145.989 134.857 146.334 135.851 146.334 137.176V139.024C146.334 140.349 145.989 141.343 145.298 142.006C144.608 142.669 143.609 143 142.302 143H138.312ZM141.308 141.474H142.316C143.11 141.474 143.698 141.269 144.08 140.858C144.463 140.447 144.654 139.855 144.654 139.08V137.134C144.654 136.341 144.463 135.743 144.08 135.342C143.698 134.931 143.11 134.726 142.316 134.726H141.308V141.474ZM151.165 143.196C150.474 143.196 149.863 143.051 149.331 142.762C148.808 142.463 148.398 142.048 148.099 141.516C147.81 140.975 147.665 140.345 147.665 139.626V139.458C147.665 138.73 147.81 138.1 148.099 137.568C148.388 137.036 148.794 136.625 149.317 136.336C149.84 136.037 150.442 135.888 151.123 135.888C151.795 135.888 152.383 136.037 152.887 136.336C153.391 136.625 153.783 137.036 154.063 137.568C154.343 138.1 154.483 138.721 154.483 139.43V140.004H149.289C149.308 140.545 149.499 140.979 149.863 141.306C150.227 141.633 150.675 141.796 151.207 141.796C151.73 141.796 152.117 141.684 152.369 141.46C152.621 141.227 152.812 140.965 152.943 140.676L154.273 141.362C154.142 141.614 153.951 141.885 153.699 142.174C153.456 142.454 153.13 142.697 152.719 142.902C152.308 143.098 151.79 143.196 151.165 143.196ZM149.303 138.786H152.845C152.808 138.329 152.63 137.965 152.313 137.694C152.005 137.423 151.604 137.288 151.109 137.288C150.596 137.288 150.185 137.423 149.877 137.694C149.569 137.965 149.378 138.329 149.303 138.786ZM156.08 143V133.2H162.184V134.726H157.774V137.316H161.834V138.856H157.774V143H156.08ZM163.628 143V136.084H165.238V143H163.628ZM164.426 135.202C164.137 135.202 163.885 135.109 163.67 134.922C163.465 134.726 163.362 134.469 163.362 134.152C163.362 133.835 163.465 133.583 163.67 133.396C163.885 133.2 164.137 133.102 164.426 133.102C164.734 133.102 164.986 133.2 165.182 133.396C165.387 133.583 165.49 133.835 165.49 134.152C165.49 134.469 165.387 134.726 165.182 134.922C164.986 135.109 164.734 135.202 164.426 135.202ZM25.356 161.196C24.46 161.196 23.7227 161 23.144 160.608C22.5654 160.216 22.2154 159.642 22.094 158.886L23.578 158.508C23.6434 158.863 23.76 159.143 23.928 159.348C24.096 159.553 24.3014 159.698 24.544 159.782C24.796 159.866 25.0667 159.908 25.356 159.908C25.7947 159.908 26.1214 159.829 26.336 159.67C26.56 159.511 26.672 159.311 26.672 159.068C26.672 158.816 26.5647 158.629 26.35 158.508C26.1447 158.387 25.8274 158.284 25.398 158.2L24.964 158.13C24.488 158.037 24.054 157.911 23.662 157.752C23.27 157.584 22.9527 157.36 22.71 157.08C22.4767 156.791 22.36 156.427 22.36 155.988C22.36 155.316 22.6074 154.798 23.102 154.434C23.606 154.07 24.264 153.888 25.076 153.888C25.8507 153.888 26.49 154.061 26.994 154.406C27.498 154.751 27.8247 155.213 27.974 155.792L26.49 156.24C26.4154 155.848 26.252 155.573 26 155.414C25.748 155.246 25.44 155.162 25.076 155.162C24.7027 155.162 24.4134 155.227 24.208 155.358C24.012 155.489 23.914 155.675 23.914 155.918C23.914 156.161 24.0167 156.343 24.222 156.464C24.4274 156.585 24.7027 156.674 25.048 156.73L25.482 156.814C25.9954 156.907 26.4574 157.029 26.868 157.178C27.288 157.327 27.6194 157.542 27.862 157.822C28.1047 158.102 28.226 158.48 28.226 158.956C28.226 159.675 27.9647 160.23 27.442 160.622C26.9287 161.005 26.2334 161.196 25.356 161.196ZM32.3508 161C31.9028 161 31.5434 160.869 31.2728 160.608C31.0114 160.337 30.8808 159.973 30.8808 159.516V155.414H29.0748V154.084H30.8808V151.858H32.4908V154.084H34.4788V155.414H32.4908V159.25C32.4908 159.53 32.6214 159.67 32.8828 159.67H34.2688V161H32.3508ZM36.1172 161V154.084H37.6992V154.882H37.9372C38.0399 154.593 38.2125 154.383 38.4552 154.252C38.6979 154.121 38.9872 154.056 39.3232 154.056H40.1632V155.484H39.2952C38.8285 155.484 38.4505 155.61 38.1612 155.862C37.8719 156.105 37.7272 156.483 37.7272 156.996V161H36.1172ZM43.5502 161.196C43.0649 161.196 42.6262 161.112 42.2342 160.944C41.8422 160.767 41.5296 160.515 41.2962 160.188C41.0722 159.861 40.9602 159.46 40.9602 158.984C40.9602 158.517 41.0722 158.125 41.2962 157.808C41.5296 157.491 41.8469 157.253 42.2482 157.094C42.6496 156.926 43.1069 156.842 43.6202 156.842H45.6222V156.422C45.6222 156.058 45.5102 155.764 45.2862 155.54C45.0622 155.307 44.7122 155.19 44.2362 155.19C43.7696 155.19 43.4149 155.302 43.1722 155.526C42.9389 155.741 42.7849 156.021 42.7102 156.366L41.2262 155.876C41.3382 155.512 41.5156 155.181 41.7582 154.882C42.0102 154.583 42.3416 154.345 42.7522 154.168C43.1629 153.981 43.6669 153.888 44.2642 153.888C45.1696 153.888 45.8789 154.117 46.3922 154.574C46.9149 155.022 47.1762 155.675 47.1762 156.534V159.25C47.1762 159.53 47.3069 159.67 47.5682 159.67H48.1562V161H47.0222C46.6862 161 46.4109 160.916 46.1962 160.748C45.9816 160.58 45.8742 160.351 45.8742 160.062V160.034H45.6362C45.5802 160.165 45.4822 160.323 45.3422 160.51C45.2022 160.697 44.9876 160.86 44.6982 161C44.4182 161.131 44.0356 161.196 43.5502 161.196ZM43.8162 159.88C44.3482 159.88 44.7822 159.731 45.1182 159.432C45.4542 159.124 45.6222 158.713 45.6222 158.2V158.06H43.7182C43.3729 158.06 43.0929 158.135 42.8782 158.284C42.6636 158.433 42.5562 158.653 42.5562 158.942C42.5562 159.222 42.6682 159.451 42.8922 159.628C43.1162 159.796 43.4242 159.88 43.8162 159.88ZM51.6281 161C51.1801 161 50.8208 160.869 50.5501 160.608C50.2888 160.337 50.1581 159.973 50.1581 159.516V155.414H48.3521V154.084H50.1581V151.858H51.7681V154.084H53.7561V155.414H51.7681V159.25C51.7681 159.53 51.8988 159.67 52.1601 159.67H53.5461V161H51.6281ZM58.3125 161.196C57.6218 161.196 57.0105 161.051 56.4785 160.762C55.9558 160.463 55.5451 160.048 55.2465 159.516C54.9571 158.975 54.8125 158.345 54.8125 157.626V157.458C54.8125 156.73 54.9571 156.1 55.2465 155.568C55.5358 155.036 55.9418 154.625 56.4645 154.336C56.9871 154.037 57.5891 153.888 58.2705 153.888C58.9425 153.888 59.5305 154.037 60.0345 154.336C60.5385 154.625 60.9305 155.036 61.2105 155.568C61.4905 156.1 61.6305 156.721 61.6305 157.43V158.004H56.4365C56.4551 158.545 56.6465 158.979 57.0105 159.306C57.3745 159.633 57.8225 159.796 58.3545 159.796C58.8771 159.796 59.2645 159.684 59.5165 159.46C59.7685 159.227 59.9598 158.965 60.0905 158.676L61.4205 159.362C61.2898 159.614 61.0985 159.885 60.8465 160.174C60.6038 160.454 60.2771 160.697 59.8665 160.902C59.4558 161.098 58.9378 161.196 58.3125 161.196ZM56.4505 156.786H59.9925C59.9551 156.329 59.7778 155.965 59.4605 155.694C59.1525 155.423 58.7511 155.288 58.2565 155.288C57.7431 155.288 57.3325 155.423 57.0245 155.694C56.7165 155.965 56.5251 156.329 56.4505 156.786ZM62.9472 157.57V157.36C62.9472 156.632 63.0919 156.011 63.3812 155.498C63.6706 154.975 64.0579 154.579 64.5432 154.308C65.0286 154.028 65.5606 153.888 66.1392 153.888C66.7926 153.888 67.2872 154.005 67.6232 154.238C67.9686 154.471 68.2206 154.723 68.3792 154.994H68.6172V154.084H70.1852V162.316C70.1852 162.773 70.0546 163.133 69.7932 163.394C69.5319 163.665 69.1772 163.8 68.7292 163.8H64.0812V162.4H68.1832C68.4539 162.4 68.5892 162.26 68.5892 161.98V159.978H68.3512C68.2486 160.137 68.1086 160.3 67.9312 160.468C67.7539 160.627 67.5206 160.762 67.2312 160.874C66.9419 160.986 66.5779 161.042 66.1392 161.042C65.5606 161.042 65.0286 160.907 64.5432 160.636C64.0579 160.356 63.6706 159.959 63.3812 159.446C63.0919 158.923 62.9472 158.298 62.9472 157.57ZM66.5872 159.628C67.1659 159.628 67.6466 159.446 68.0292 159.082C68.4119 158.709 68.6032 158.191 68.6032 157.528V157.388C68.6032 156.716 68.4119 156.198 68.0292 155.834C67.6559 155.47 67.1752 155.288 66.5872 155.288C66.0086 155.288 65.5232 155.47 65.1312 155.834C64.7486 156.198 64.5572 156.716 64.5572 157.388V157.528C64.5572 158.191 64.7486 158.709 65.1312 159.082C65.5232 159.446 66.0086 159.628 66.5872 159.628ZM72.2246 161V154.084H73.8346V161H72.2246ZM73.0226 153.202C72.7333 153.202 72.4813 153.109 72.2666 152.922C72.0613 152.726 71.9586 152.469 71.9586 152.152C71.9586 151.835 72.0613 151.583 72.2666 151.396C72.4813 151.2 72.7333 151.102 73.0226 151.102C73.3306 151.102 73.5826 151.2 73.7786 151.396C73.984 151.583 74.0866 151.835 74.0866 152.152C74.0866 152.469 73.984 152.726 73.7786 152.922C73.5826 153.109 73.3306 153.202 73.0226 153.202ZM79.039 161.196C78.3484 161.196 77.737 161.051 77.205 160.762C76.6824 160.463 76.2717 160.048 75.973 159.516C75.6837 158.975 75.539 158.345 75.539 157.626V157.458C75.539 156.73 75.6837 156.1 75.973 155.568C76.2624 155.036 76.6684 154.625 77.191 154.336C77.7137 154.037 78.3157 153.888 78.997 153.888C79.669 153.888 80.257 154.037 80.761 154.336C81.265 154.625 81.657 155.036 81.937 155.568C82.217 156.1 82.357 156.721 82.357 157.43V158.004H77.163C77.1817 158.545 77.373 158.979 77.737 159.306C78.101 159.633 78.549 159.796 79.081 159.796C79.6037 159.796 79.991 159.684 80.243 159.46C80.495 159.227 80.6864 158.965 80.817 158.676L82.147 159.362C82.0164 159.614 81.825 159.885 81.573 160.174C81.3304 160.454 81.0037 160.697 80.593 160.902C80.1824 161.098 79.6644 161.196 79.039 161.196ZM77.177 156.786H80.719C80.6817 156.329 80.5044 155.965 80.187 155.694C79.879 155.423 79.4777 155.288 78.983 155.288C78.4697 155.288 78.059 155.423 77.751 155.694C77.443 155.965 77.2517 156.329 77.177 156.786ZM86.8658 161.196C85.9698 161.196 85.2325 161 84.6538 160.608C84.0751 160.216 83.7251 159.642 83.6038 158.886L85.0878 158.508C85.1531 158.863 85.2698 159.143 85.4378 159.348C85.6058 159.553 85.8111 159.698 86.0538 159.782C86.3058 159.866 86.5765 159.908 86.8658 159.908C87.3045 159.908 87.6311 159.829 87.8458 159.67C88.0698 159.511 88.1818 159.311 88.1818 159.068C88.1818 158.816 88.0745 158.629 87.8598 158.508C87.6545 158.387 87.3371 158.284 86.9078 158.2L86.4738 158.13C85.9978 158.037 85.5638 157.911 85.1718 157.752C84.7798 157.584 84.4625 157.36 84.2198 157.08C83.9865 156.791 83.8698 156.427 83.8698 155.988C83.8698 155.316 84.1171 154.798 84.6118 154.434C85.1158 154.07 85.7738 153.888 86.5858 153.888C87.3605 153.888 87.9998 154.061 88.5038 154.406C89.0078 154.751 89.3345 155.213 89.4838 155.792L87.9998 156.24C87.9251 155.848 87.7618 155.573 87.5098 155.414C87.2578 155.246 86.9498 155.162 86.5858 155.162C86.2125 155.162 85.9231 155.227 85.7178 155.358C85.5218 155.489 85.4238 155.675 85.4238 155.918C85.4238 156.161 85.5265 156.343 85.7318 156.464C85.9371 156.585 86.2125 156.674 86.5578 156.73L86.9918 156.814C87.5051 156.907 87.9671 157.029 88.3778 157.178C88.7978 157.327 89.1291 157.542 89.3718 157.822C89.6145 158.102 89.7358 158.48 89.7358 158.956C89.7358 159.675 89.4745 160.23 88.9518 160.622C88.4385 161.005 87.7431 161.196 86.8658 161.196ZM95.5916 161L94.5136 154.084H96.1096L96.8516 159.922H97.0896L98.1396 154.084H100.716L101.766 159.922H102.004L102.746 154.084H104.342L103.264 161H100.59L99.5536 155.162H99.3156L98.2656 161H95.5916ZM105.967 161V154.084H107.577V161H105.967ZM106.765 153.202C106.475 153.202 106.223 153.109 106.009 152.922C105.803 152.726 105.701 152.469 105.701 152.152C105.701 151.835 105.803 151.583 106.009 151.396C106.223 151.2 106.475 151.102 106.765 151.102C107.073 151.102 107.325 151.2 107.521 151.396C107.726 151.583 107.829 151.835 107.829 152.152C107.829 152.469 107.726 152.726 107.521 152.922C107.325 153.109 107.073 153.202 106.765 153.202ZM112.249 161C111.801 161 111.442 160.869 111.171 160.608C110.91 160.337 110.779 159.973 110.779 159.516V155.414H108.973V154.084H110.779V151.858H112.389V154.084H114.377V155.414H112.389V159.25C112.389 159.53 112.52 159.67 112.781 159.67H114.167V161H112.249ZM116.016 161V151.2H117.626V154.994H117.864C117.938 154.835 118.06 154.677 118.228 154.518C118.396 154.359 118.615 154.229 118.886 154.126C119.166 154.023 119.516 153.972 119.936 153.972C120.468 153.972 120.939 154.093 121.35 154.336C121.76 154.569 122.078 154.901 122.302 155.33C122.535 155.759 122.652 156.268 122.652 156.856V161H121.042V156.982C121.042 156.422 120.902 156.007 120.622 155.736C120.351 155.456 119.964 155.316 119.46 155.316C118.89 155.316 118.442 155.507 118.116 155.89C117.789 156.263 117.626 156.8 117.626 157.5V161H116.016ZM131.431 161.196C130.759 161.196 130.153 161.056 129.611 160.776C129.07 160.496 128.641 160.09 128.323 159.558C128.015 159.026 127.861 158.387 127.861 157.64V157.444C127.861 156.697 128.015 156.058 128.323 155.526C128.641 154.994 129.07 154.588 129.611 154.308C130.153 154.028 130.759 153.888 131.431 153.888C132.094 153.888 132.659 154.005 133.125 154.238C133.601 154.471 133.984 154.793 134.273 155.204C134.563 155.605 134.749 156.058 134.833 156.562L133.279 156.884C133.242 156.595 133.153 156.333 133.013 156.1C132.873 155.857 132.673 155.666 132.411 155.526C132.159 155.386 131.847 155.316 131.473 155.316C131.091 155.316 130.745 155.4 130.437 155.568C130.139 155.727 129.901 155.969 129.723 156.296C129.555 156.623 129.471 157.015 129.471 157.472V157.612C129.471 158.069 129.555 158.461 129.723 158.788C129.901 159.105 130.139 159.348 130.437 159.516C130.745 159.684 131.091 159.768 131.473 159.768C132.043 159.768 132.472 159.623 132.761 159.334C133.06 159.035 133.247 158.653 133.321 158.186L134.875 158.55C134.763 159.035 134.563 159.479 134.273 159.88C133.984 160.281 133.601 160.603 133.125 160.846C132.659 161.079 132.094 161.196 131.431 161.196ZM139.087 161.112C138.555 161.112 138.084 160.995 137.673 160.762C137.263 160.519 136.945 160.183 136.721 159.754C136.497 159.315 136.385 158.807 136.385 158.228V154.084H137.981V158.102C137.981 158.662 138.117 159.077 138.387 159.348C138.667 159.619 139.059 159.754 139.563 159.754C140.133 159.754 140.581 159.567 140.907 159.194C141.243 158.821 141.411 158.284 141.411 157.584V154.084H143.007V161H141.439V160.034H141.201C141.08 160.286 140.856 160.529 140.529 160.762C140.212 160.995 139.731 161.112 139.087 161.112ZM147.911 161.196C147.015 161.196 146.277 161 145.699 160.608C145.12 160.216 144.77 159.642 144.649 158.886L146.133 158.508C146.198 158.863 146.315 159.143 146.483 159.348C146.651 159.553 146.856 159.698 147.099 159.782C147.351 159.866 147.621 159.908 147.911 159.908C148.349 159.908 148.676 159.829 148.891 159.67C149.115 159.511 149.227 159.311 149.227 159.068C149.227 158.816 149.119 158.629 148.905 158.508C148.699 158.387 148.382 158.284 147.953 158.2L147.519 158.13C147.043 158.037 146.609 157.911 146.217 157.752C145.825 157.584 145.507 157.36 145.265 157.08C145.031 156.791 144.915 156.427 144.915 155.988C144.915 155.316 145.162 154.798 145.657 154.434C146.161 154.07 146.819 153.888 147.631 153.888C148.405 153.888 149.045 154.061 149.549 154.406C150.053 154.751 150.379 155.213 150.529 155.792L149.045 156.24C148.97 155.848 148.807 155.573 148.555 155.414C148.303 155.246 147.995 155.162 147.631 155.162C147.257 155.162 146.968 155.227 146.763 155.358C146.567 155.489 146.469 155.675 146.469 155.918C146.469 156.161 146.571 156.343 146.777 156.464C146.982 156.585 147.257 156.674 147.603 156.73L148.037 156.814C148.55 156.907 149.012 157.029 149.423 157.178C149.843 157.327 150.174 157.542 150.417 157.822C150.659 158.102 150.781 158.48 150.781 158.956C150.781 159.675 150.519 160.23 149.997 160.622C149.483 161.005 148.788 161.196 147.911 161.196ZM154.905 161C154.457 161 154.098 160.869 153.827 160.608C153.566 160.337 153.435 159.973 153.435 159.516V155.414H151.629V154.084H153.435V151.858H155.045V154.084H157.033V155.414H155.045V159.25C155.045 159.53 155.176 159.67 155.437 159.67H156.823V161H154.905ZM161.702 161.196C161.011 161.196 160.39 161.056 159.84 160.776C159.298 160.487 158.869 160.081 158.552 159.558C158.244 159.026 158.09 158.391 158.09 157.654V157.43C158.09 156.693 158.244 156.058 158.552 155.526C158.869 154.994 159.298 154.588 159.84 154.308C160.39 154.028 161.011 153.888 161.702 153.888C162.392 153.888 163.008 154.028 163.55 154.308C164.091 154.588 164.516 154.994 164.824 155.526C165.141 156.058 165.3 156.693 165.3 157.43V157.654C165.3 158.391 165.141 159.026 164.824 159.558C164.516 160.081 164.091 160.487 163.55 160.776C163.008 161.056 162.392 161.196 161.702 161.196ZM161.702 159.768C162.29 159.768 162.77 159.581 163.144 159.208C163.517 158.825 163.704 158.293 163.704 157.612V157.472C163.704 156.791 163.517 156.263 163.144 155.89C162.77 155.507 162.29 155.316 161.702 155.316C161.114 155.316 160.633 155.507 160.26 155.89C159.886 156.263 159.7 156.791 159.7 157.472V157.612C159.7 158.293 159.886 158.825 160.26 159.208C160.633 159.581 161.114 159.768 161.702 159.768ZM167.012 161V154.084H168.594V154.854H168.832C168.953 154.621 169.154 154.415 169.434 154.238C169.723 154.051 170.106 153.958 170.582 153.958C171.086 153.958 171.492 154.061 171.8 154.266C172.108 154.471 172.341 154.733 172.5 155.05H172.724C172.882 154.733 173.111 154.471 173.41 154.266C173.708 154.061 174.133 153.958 174.684 153.958C175.113 153.958 175.5 154.051 175.846 154.238C176.2 154.425 176.48 154.7 176.686 155.064C176.9 155.428 177.008 155.881 177.008 156.422V161H175.398V156.534C175.398 156.133 175.29 155.829 175.076 155.624C174.861 155.409 174.562 155.302 174.18 155.302C173.76 155.302 173.424 155.442 173.172 155.722C172.929 155.993 172.808 156.385 172.808 156.898V161H171.212V156.534C171.212 156.133 171.104 155.829 170.89 155.624C170.675 155.409 170.376 155.302 169.994 155.302C169.564 155.302 169.228 155.442 168.986 155.722C168.743 155.993 168.622 156.385 168.622 156.898V161H167.012ZM19.7385 179C19.2905 179 18.9311 178.869 18.6605 178.608C18.3991 178.337 18.2685 177.973 18.2685 177.516V173.414H16.4625V172.084H18.2685V169.858H19.8785V172.084H21.8665V173.414H19.8785V177.25C19.8785 177.53 20.0091 177.67 20.2705 177.67H21.6565V179H19.7385ZM23.5049 179V172.084H25.0869V172.882H25.3249C25.4276 172.593 25.6002 172.383 25.8429 172.252C26.0856 172.121 26.3749 172.056 26.7109 172.056H27.5509V173.484H26.6829C26.2162 173.484 25.8382 173.61 25.5489 173.862C25.2596 174.105 25.1149 174.483 25.1149 174.996V179H23.5049ZM28.9737 179V172.084H30.5837V179H28.9737ZM29.7717 171.202C29.4823 171.202 29.2303 171.109 29.0157 170.922C28.8103 170.726 28.7077 170.469 28.7077 170.152C28.7077 169.835 28.8103 169.583 29.0157 169.396C29.2303 169.2 29.4823 169.102 29.7717 169.102C30.0797 169.102 30.3317 169.2 30.5277 169.396C30.733 169.583 30.8357 169.835 30.8357 170.152C30.8357 170.469 30.733 170.726 30.5277 170.922C30.3317 171.109 30.0797 171.202 29.7717 171.202ZM32.2881 175.57V175.36C32.2881 174.632 32.4327 174.011 32.7221 173.498C33.0114 172.975 33.3987 172.579 33.8841 172.308C34.3694 172.028 34.9014 171.888 35.4801 171.888C36.1334 171.888 36.6281 172.005 36.9641 172.238C37.3094 172.471 37.5614 172.723 37.7201 172.994H37.9581V172.084H39.5261V180.316C39.5261 180.773 39.3954 181.133 39.1341 181.394C38.8727 181.665 38.5181 181.8 38.0701 181.8H33.4221V180.4H37.5241C37.7947 180.4 37.9301 180.26 37.9301 179.98V177.978H37.6921C37.5894 178.137 37.4494 178.3 37.2721 178.468C37.0947 178.627 36.8614 178.762 36.5721 178.874C36.2827 178.986 35.9187 179.042 35.4801 179.042C34.9014 179.042 34.3694 178.907 33.8841 178.636C33.3987 178.356 33.0114 177.959 32.7221 177.446C32.4327 176.923 32.2881 176.298 32.2881 175.57ZM35.9281 177.628C36.5067 177.628 36.9874 177.446 37.3701 177.082C37.7527 176.709 37.9441 176.191 37.9441 175.528V175.388C37.9441 174.716 37.7527 174.198 37.3701 173.834C36.9967 173.47 36.5161 173.288 35.9281 173.288C35.3494 173.288 34.8641 173.47 34.4721 173.834C34.0894 174.198 33.8981 174.716 33.8981 175.388V175.528C33.8981 176.191 34.0894 176.709 34.4721 177.082C34.8641 177.446 35.3494 177.628 35.9281 177.628ZM41.2295 175.57V175.36C41.2295 174.632 41.3741 174.011 41.6635 173.498C41.9528 172.975 42.3401 172.579 42.8255 172.308C43.3108 172.028 43.8428 171.888 44.4215 171.888C45.0748 171.888 45.5695 172.005 45.9055 172.238C46.2508 172.471 46.5028 172.723 46.6615 172.994H46.8995V172.084H48.4675V180.316C48.4675 180.773 48.3368 181.133 48.0755 181.394C47.8141 181.665 47.4595 181.8 47.0115 181.8H42.3635V180.4H46.4655C46.7361 180.4 46.8715 180.26 46.8715 179.98V177.978H46.6335C46.5308 178.137 46.3908 178.3 46.2135 178.468C46.0361 178.627 45.8028 178.762 45.5135 178.874C45.2241 178.986 44.8601 179.042 44.4215 179.042C43.8428 179.042 43.3108 178.907 42.8255 178.636C42.3401 178.356 41.9528 177.959 41.6635 177.446C41.3741 176.923 41.2295 176.298 41.2295 175.57ZM44.8695 177.628C45.4481 177.628 45.9288 177.446 46.3115 177.082C46.6941 176.709 46.8855 176.191 46.8855 175.528V175.388C46.8855 174.716 46.6941 174.198 46.3115 173.834C45.9381 173.47 45.4575 173.288 44.8695 173.288C44.2908 173.288 43.8055 173.47 43.4135 173.834C43.0308 174.198 42.8395 174.716 42.8395 175.388V175.528C42.8395 176.191 43.0308 176.709 43.4135 177.082C43.8055 177.446 44.2908 177.628 44.8695 177.628ZM53.6709 179.196C52.9802 179.196 52.3689 179.051 51.8369 178.762C51.3142 178.463 50.9035 178.048 50.6049 177.516C50.3155 176.975 50.1709 176.345 50.1709 175.626V175.458C50.1709 174.73 50.3155 174.1 50.6049 173.568C50.8942 173.036 51.3002 172.625 51.8229 172.336C52.3455 172.037 52.9475 171.888 53.6289 171.888C54.3009 171.888 54.8889 172.037 55.3929 172.336C55.8969 172.625 56.2889 173.036 56.5689 173.568C56.8489 174.1 56.9889 174.721 56.9889 175.43V176.004H51.7949C51.8135 176.545 52.0049 176.979 52.3689 177.306C52.7329 177.633 53.1809 177.796 53.7129 177.796C54.2355 177.796 54.6229 177.684 54.8749 177.46C55.1269 177.227 55.3182 176.965 55.4489 176.676L56.7789 177.362C56.6482 177.614 56.4569 177.885 56.2049 178.174C55.9622 178.454 55.6355 178.697 55.2249 178.902C54.8142 179.098 54.2962 179.196 53.6709 179.196ZM51.8089 174.786H55.3509C55.3135 174.329 55.1362 173.965 54.8189 173.694C54.5109 173.423 54.1095 173.288 53.6149 173.288C53.1015 173.288 52.6909 173.423 52.3829 173.694C52.0749 173.965 51.8835 174.329 51.8089 174.786ZM58.6416 179V172.084H60.2236V172.882H60.4616C60.5643 172.593 60.737 172.383 60.9796 172.252C61.2223 172.121 61.5116 172.056 61.8476 172.056H62.6876V173.484H61.8196C61.353 173.484 60.975 173.61 60.6856 173.862C60.3963 174.105 60.2516 174.483 60.2516 174.996V179H58.6416ZM66.816 179.196C65.92 179.196 65.1827 179 64.604 178.608C64.0253 178.216 63.6753 177.642 63.554 176.886L65.038 176.508C65.1033 176.863 65.22 177.143 65.388 177.348C65.556 177.553 65.7613 177.698 66.004 177.782C66.256 177.866 66.5267 177.908 66.816 177.908C67.2547 177.908 67.5813 177.829 67.796 177.67C68.02 177.511 68.132 177.311 68.132 177.068C68.132 176.816 68.0247 176.629 67.81 176.508C67.6047 176.387 67.2873 176.284 66.858 176.2L66.424 176.13C65.948 176.037 65.514 175.911 65.122 175.752C64.73 175.584 64.4127 175.36 64.17 175.08C63.9367 174.791 63.82 174.427 63.82 173.988C63.82 173.316 64.0673 172.798 64.562 172.434C65.066 172.07 65.724 171.888 66.536 171.888C67.3107 171.888 67.95 172.061 68.454 172.406C68.958 172.751 69.2847 173.213 69.434 173.792L67.95 174.24C67.8753 173.848 67.712 173.573 67.46 173.414C67.208 173.246 66.9 173.162 66.536 173.162C66.1627 173.162 65.8733 173.227 65.668 173.358C65.472 173.489 65.374 173.675 65.374 173.918C65.374 174.161 65.4767 174.343 65.682 174.464C65.8873 174.585 66.1627 174.674 66.508 174.73L66.942 174.814C67.4553 174.907 67.9173 175.029 68.328 175.178C68.748 175.327 69.0793 175.542 69.322 175.822C69.5647 176.102 69.686 176.48 69.686 176.956C69.686 177.675 69.4247 178.23 68.902 178.622C68.3887 179.005 67.6933 179.196 66.816 179.196ZM77.0258 179.196C76.5405 179.196 76.1018 179.112 75.7098 178.944C75.3178 178.767 75.0051 178.515 74.7718 178.188C74.5478 177.861 74.4358 177.46 74.4358 176.984C74.4358 176.517 74.5478 176.125 74.7718 175.808C75.0051 175.491 75.3225 175.253 75.7238 175.094C76.1251 174.926 76.5825 174.842 77.0958 174.842H79.0978V174.422C79.0978 174.058 78.9858 173.764 78.7618 173.54C78.5378 173.307 78.1878 173.19 77.7118 173.19C77.2451 173.19 76.8905 173.302 76.6478 173.526C76.4145 173.741 76.2605 174.021 76.1858 174.366L74.7018 173.876C74.8138 173.512 74.9911 173.181 75.2338 172.882C75.4858 172.583 75.8171 172.345 76.2278 172.168C76.6385 171.981 77.1425 171.888 77.7398 171.888C78.6451 171.888 79.3545 172.117 79.8678 172.574C80.3905 173.022 80.6518 173.675 80.6518 174.534V177.25C80.6518 177.53 80.7825 177.67 81.0438 177.67H81.6318V179H80.4978C80.1618 179 79.8865 178.916 79.6718 178.748C79.4572 178.58 79.3498 178.351 79.3498 178.062V178.034H79.1118C79.0558 178.165 78.9578 178.323 78.8178 178.51C78.6778 178.697 78.4632 178.86 78.1738 179C77.8938 179.131 77.5112 179.196 77.0258 179.196ZM77.2918 177.88C77.8238 177.88 78.2578 177.731 78.5938 177.432C78.9298 177.124 79.0978 176.713 79.0978 176.2V176.06H77.1938C76.8485 176.06 76.5685 176.135 76.3538 176.284C76.1391 176.433 76.0318 176.653 76.0318 176.942C76.0318 177.222 76.1438 177.451 76.3678 177.628C76.5918 177.796 76.8998 177.88 77.2918 177.88ZM82.9639 179V172.084H84.5459V173.05H84.7839C84.9052 172.789 85.1246 172.541 85.4419 172.308C85.7592 172.075 86.2399 171.958 86.8839 171.958C87.4159 171.958 87.8872 172.079 88.2979 172.322C88.7086 172.565 89.0259 172.901 89.2499 173.33C89.4832 173.759 89.5999 174.268 89.5999 174.856V179H87.9899V174.982C87.9899 174.422 87.8499 174.007 87.5699 173.736C87.2992 173.456 86.9119 173.316 86.4079 173.316C85.8386 173.316 85.3906 173.507 85.0639 173.89C84.7372 174.263 84.5739 174.8 84.5739 175.5V179H82.9639ZM94.4052 179.196C93.8452 179.196 93.3225 179.061 92.8372 178.79C92.3518 178.51 91.9645 178.104 91.6752 177.572C91.3858 177.04 91.2412 176.401 91.2412 175.654V175.43C91.2412 174.683 91.3858 174.044 91.6752 173.512C91.9645 172.98 92.3472 172.579 92.8232 172.308C93.3085 172.028 93.8358 171.888 94.4052 171.888C94.8345 171.888 95.1985 171.939 95.4972 172.042C95.7958 172.145 96.0338 172.275 96.2112 172.434C96.3978 172.593 96.5425 172.765 96.6452 172.952H96.8832V169.2H98.4792V179H96.9112V178.09H96.6732C96.5052 178.37 96.2485 178.627 95.9032 178.86C95.5578 179.084 95.0585 179.196 94.4052 179.196ZM94.8812 177.796C95.4598 177.796 95.9405 177.609 96.3232 177.236C96.7058 176.853 96.8972 176.312 96.8972 175.612V175.472C96.8972 174.763 96.7058 174.221 96.3232 173.848C95.9498 173.475 95.4692 173.288 94.8812 173.288C94.3025 173.288 93.8172 173.475 93.4252 173.848C93.0425 174.221 92.8512 174.763 92.8512 175.472V175.612C92.8512 176.312 93.0425 176.853 93.4252 177.236C93.8172 177.609 94.3025 177.796 94.8812 177.796ZM103.751 175.57V175.36C103.751 174.632 103.896 174.011 104.185 173.498C104.474 172.975 104.862 172.579 105.347 172.308C105.832 172.028 106.364 171.888 106.943 171.888C107.596 171.888 108.091 172.005 108.427 172.238C108.772 172.471 109.024 172.723 109.183 172.994H109.421V172.084H110.989V180.316C110.989 180.773 110.858 181.133 110.597 181.394C110.336 181.665 109.981 181.8 109.533 181.8H104.885V180.4H108.987C109.258 180.4 109.393 180.26 109.393 179.98V177.978H109.155C109.052 178.137 108.912 178.3 108.735 178.468C108.558 178.627 108.324 178.762 108.035 178.874C107.746 178.986 107.382 179.042 106.943 179.042C106.364 179.042 105.832 178.907 105.347 178.636C104.862 178.356 104.474 177.959 104.185 177.446C103.896 176.923 103.751 176.298 103.751 175.57ZM107.391 177.628C107.97 177.628 108.45 177.446 108.833 177.082C109.216 176.709 109.407 176.191 109.407 175.528V175.388C109.407 174.716 109.216 174.198 108.833 173.834C108.46 173.47 107.979 173.288 107.391 173.288C106.812 173.288 106.327 173.47 105.935 173.834C105.552 174.198 105.361 174.716 105.361 175.388V175.528C105.361 176.191 105.552 176.709 105.935 177.082C106.327 177.446 106.812 177.628 107.391 177.628ZM116.192 179.196C115.502 179.196 114.89 179.051 114.358 178.762C113.836 178.463 113.425 178.048 113.126 177.516C112.837 176.975 112.692 176.345 112.692 175.626V175.458C112.692 174.73 112.837 174.1 113.126 173.568C113.416 173.036 113.822 172.625 114.344 172.336C114.867 172.037 115.469 171.888 116.15 171.888C116.822 171.888 117.41 172.037 117.914 172.336C118.418 172.625 118.81 173.036 119.09 173.568C119.37 174.1 119.51 174.721 119.51 175.43V176.004H114.316C114.335 176.545 114.526 176.979 114.89 177.306C115.254 177.633 115.702 177.796 116.234 177.796C116.757 177.796 117.144 177.684 117.396 177.46C117.648 177.227 117.84 176.965 117.97 176.676L119.3 177.362C119.17 177.614 118.978 177.885 118.726 178.174C118.484 178.454 118.157 178.697 117.746 178.902C117.336 179.098 116.818 179.196 116.192 179.196ZM114.33 174.786H117.872C117.835 174.329 117.658 173.965 117.34 173.694C117.032 173.423 116.631 173.288 116.136 173.288C115.623 173.288 115.212 173.423 114.904 173.694C114.596 173.965 114.405 174.329 114.33 174.786ZM123.563 179C123.115 179 122.755 178.869 122.485 178.608C122.223 178.337 122.093 177.973 122.093 177.516V173.414H120.287V172.084H122.093V169.858H123.703V172.084H125.691V173.414H123.703V177.25C123.703 177.53 123.833 177.67 124.095 177.67H125.481V179H123.563ZM130.897 179V172.084H132.479V173.05H132.717C132.839 172.789 133.058 172.541 133.375 172.308C133.693 172.075 134.173 171.958 134.817 171.958C135.349 171.958 135.821 172.079 136.231 172.322C136.642 172.565 136.959 172.901 137.183 173.33C137.417 173.759 137.533 174.268 137.533 174.856V179H135.923V174.982C135.923 174.422 135.783 174.007 135.503 173.736C135.233 173.456 134.845 173.316 134.341 173.316C133.772 173.316 133.324 173.507 132.997 173.89C132.671 174.263 132.507 174.8 132.507 175.5V179H130.897ZM142.787 179.196C142.096 179.196 141.475 179.056 140.925 178.776C140.383 178.487 139.954 178.081 139.637 177.558C139.329 177.026 139.175 176.391 139.175 175.654V175.43C139.175 174.693 139.329 174.058 139.637 173.526C139.954 172.994 140.383 172.588 140.925 172.308C141.475 172.028 142.096 171.888 142.787 171.888C143.477 171.888 144.093 172.028 144.635 172.308C145.176 172.588 145.601 172.994 145.909 173.526C146.226 174.058 146.385 174.693 146.385 175.43V175.654C146.385 176.391 146.226 177.026 145.909 177.558C145.601 178.081 145.176 178.487 144.635 178.776C144.093 179.056 143.477 179.196 142.787 179.196ZM142.787 177.768C143.375 177.768 143.855 177.581 144.229 177.208C144.602 176.825 144.789 176.293 144.789 175.612V175.472C144.789 174.791 144.602 174.263 144.229 173.89C143.855 173.507 143.375 173.316 142.787 173.316C142.199 173.316 141.718 173.507 141.345 173.89C140.971 174.263 140.785 174.791 140.785 175.472V175.612C140.785 176.293 140.971 176.825 141.345 177.208C141.718 177.581 142.199 177.768 142.787 177.768ZM150.496 179C150.048 179 149.689 178.869 149.418 178.608C149.157 178.337 149.026 177.973 149.026 177.516V173.414H147.22V172.084H149.026V169.858H150.636V172.084H152.624V173.414H150.636V177.25C150.636 177.53 150.767 177.67 151.028 177.67H152.414V179H150.496ZM154.263 179V172.084H155.873V179H154.263ZM155.061 171.202C154.771 171.202 154.519 171.109 154.305 170.922C154.099 170.726 153.997 170.469 153.997 170.152C153.997 169.835 154.099 169.583 154.305 169.396C154.519 169.2 154.771 169.102 155.061 169.102C155.369 169.102 155.621 169.2 155.817 169.396C156.022 169.583 156.125 169.835 156.125 170.152C156.125 170.469 156.022 170.726 155.817 170.922C155.621 171.109 155.369 171.202 155.061 171.202ZM159.117 179V173.414H157.269V172.084H159.117V170.684C159.117 170.227 159.248 169.867 159.509 169.606C159.78 169.335 160.134 169.2 160.573 169.2H162.253V170.53H161.105C160.844 170.53 160.713 170.67 160.713 170.95V172.084H163.667V173.414H160.713V179H159.117ZM163.667 179V172.084H165.263V179H163.667ZM164.465 171.258C164.166 171.258 163.914 171.16 163.709 170.964C163.504 170.768 163.401 170.511 163.401 170.194C163.401 169.886 163.504 169.634 163.709 169.438C163.914 169.242 164.166 169.144 164.465 169.144C164.773 169.144 165.025 169.242 165.221 169.438C165.426 169.634 165.529 169.886 165.529 170.194C165.529 170.511 165.426 170.768 165.221 170.964C165.025 171.16 164.773 171.258 164.465 171.258ZM170.47 179.196C169.779 179.196 169.168 179.051 168.636 178.762C168.113 178.463 167.702 178.048 167.404 177.516C167.114 176.975 166.97 176.345 166.97 175.626V175.458C166.97 174.73 167.114 174.1 167.404 173.568C167.693 173.036 168.099 172.625 168.622 172.336C169.144 172.037 169.746 171.888 170.428 171.888C171.1 171.888 171.688 172.037 172.192 172.336C172.696 172.625 173.088 173.036 173.368 173.568C173.648 174.1 173.788 174.721 173.788 175.43V176.004H168.594C168.612 176.545 168.804 176.979 169.168 177.306C169.532 177.633 169.98 177.796 170.512 177.796C171.034 177.796 171.422 177.684 171.674 177.46C171.926 177.227 172.117 176.965 172.248 176.676L173.578 177.362C173.447 177.614 173.256 177.885 173.004 178.174C172.761 178.454 172.434 178.697 172.024 178.902C171.613 179.098 171.095 179.196 170.47 179.196ZM168.608 174.786H172.15C172.112 174.329 171.935 173.965 171.618 173.694C171.31 173.423 170.908 173.288 170.414 173.288C169.9 173.288 169.49 173.423 169.182 173.694C168.874 173.965 168.682 174.329 168.608 174.786ZM178.268 179.196C177.708 179.196 177.186 179.061 176.7 178.79C176.215 178.51 175.828 178.104 175.538 177.572C175.249 177.04 175.104 176.401 175.104 175.654V175.43C175.104 174.683 175.249 174.044 175.538 173.512C175.828 172.98 176.21 172.579 176.686 172.308C177.172 172.028 177.699 171.888 178.268 171.888C178.698 171.888 179.062 171.939 179.36 172.042C179.659 172.145 179.897 172.275 180.074 172.434C180.261 172.593 180.406 172.765 180.508 172.952H180.746V169.2H182.342V179H180.774V178.09H180.536C180.368 178.37 180.112 178.627 179.766 178.86C179.421 179.084 178.922 179.196 178.268 179.196ZM178.744 177.796C179.323 177.796 179.804 177.609 180.186 177.236C180.569 176.853 180.76 176.312 180.76 175.612V175.472C180.76 174.763 180.569 174.221 180.186 173.848C179.813 173.475 179.332 173.288 178.744 173.288C178.166 173.288 177.68 173.475 177.288 173.848C176.906 174.221 176.714 174.763 176.714 175.472V175.612C176.714 176.312 176.906 176.853 177.288 177.236C177.68 177.609 178.166 177.796 178.744 177.796ZM30.2809 197L28.0129 190.084H29.7209L31.4289 195.824H31.6669L33.3889 190.084H35.0969L32.8289 197H30.2809ZM36.3975 197V190.084H38.0075V197H36.3975ZM37.1955 189.202C36.9062 189.202 36.6542 189.109 36.4395 188.922C36.2342 188.726 36.1315 188.469 36.1315 188.152C36.1315 187.835 36.2342 187.583 36.4395 187.396C36.6542 187.2 36.9062 187.102 37.1955 187.102C37.5035 187.102 37.7555 187.2 37.9515 187.396C38.1568 187.583 38.2595 187.835 38.2595 188.152C38.2595 188.469 38.1568 188.726 37.9515 188.922C37.7555 189.109 37.5035 189.202 37.1955 189.202ZM42.1899 197.196C41.7045 197.196 41.2659 197.112 40.8739 196.944C40.4819 196.767 40.1692 196.515 39.9359 196.188C39.7119 195.861 39.5999 195.46 39.5999 194.984C39.5999 194.517 39.7119 194.125 39.9359 193.808C40.1692 193.491 40.4865 193.253 40.8879 193.094C41.2892 192.926 41.7465 192.842 42.2599 192.842H44.2619V192.422C44.2619 192.058 44.1499 191.764 43.9259 191.54C43.7019 191.307 43.3519 191.19 42.8759 191.19C42.4092 191.19 42.0545 191.302 41.8119 191.526C41.5785 191.741 41.4245 192.021 41.3499 192.366L39.8659 191.876C39.9779 191.512 40.1552 191.181 40.3979 190.882C40.6499 190.583 40.9812 190.345 41.3919 190.168C41.8025 189.981 42.3065 189.888 42.9039 189.888C43.8092 189.888 44.5185 190.117 45.0319 190.574C45.5545 191.022 45.8159 191.675 45.8159 192.534V195.25C45.8159 195.53 45.9465 195.67 46.2079 195.67H46.7959V197H45.6619C45.3259 197 45.0505 196.916 44.8359 196.748C44.6212 196.58 44.5139 196.351 44.5139 196.062V196.034H44.2759C44.2199 196.165 44.1219 196.323 43.9819 196.51C43.8419 196.697 43.6272 196.86 43.3379 197C43.0579 197.131 42.6752 197.196 42.1899 197.196ZM42.4559 195.88C42.9879 195.88 43.4219 195.731 43.7579 195.432C44.0939 195.124 44.2619 194.713 44.2619 194.2V194.06H42.3579C42.0125 194.06 41.7325 194.135 41.5179 194.284C41.3032 194.433 41.1959 194.653 41.1959 194.942C41.1959 195.222 41.3079 195.451 41.5319 195.628C41.7559 195.796 42.0639 195.88 42.4559 195.88ZM51.6403 197V187.2H57.8843V188.726H53.3343V191.302H57.4923V192.828H53.3343V195.474H57.9543V197H51.6403ZM59.4756 197V190.084H61.0576V190.854H61.2956C61.4169 190.621 61.6176 190.415 61.8976 190.238C62.1869 190.051 62.5696 189.958 63.0456 189.958C63.5496 189.958 63.9556 190.061 64.2636 190.266C64.5716 190.471 64.8049 190.733 64.9636 191.05H65.1876C65.3463 190.733 65.5749 190.471 65.8736 190.266C66.1723 190.061 66.5969 189.958 67.1476 189.958C67.5769 189.958 67.9643 190.051 68.3096 190.238C68.6643 190.425 68.9443 190.7 69.1496 191.064C69.3643 191.428 69.4716 191.881 69.4716 192.422V197H67.8616V192.534C67.8616 192.133 67.7543 191.829 67.5396 191.624C67.3249 191.409 67.0263 191.302 66.6436 191.302C66.2236 191.302 65.8876 191.442 65.6356 191.722C65.3929 191.993 65.2716 192.385 65.2716 192.898V197H63.6756V192.534C63.6756 192.133 63.5683 191.829 63.3536 191.624C63.1389 191.409 62.8403 191.302 62.4576 191.302C62.0283 191.302 61.6923 191.442 61.4496 191.722C61.2069 191.993 61.0856 192.385 61.0856 192.898V197H59.4756ZM73.5942 197.196C73.1088 197.196 72.6702 197.112 72.2782 196.944C71.8862 196.767 71.5735 196.515 71.3402 196.188C71.1162 195.861 71.0042 195.46 71.0042 194.984C71.0042 194.517 71.1162 194.125 71.3402 193.808C71.5735 193.491 71.8908 193.253 72.2922 193.094C72.6935 192.926 73.1508 192.842 73.6642 192.842H75.6662V192.422C75.6662 192.058 75.5542 191.764 75.3302 191.54C75.1062 191.307 74.7562 191.19 74.2802 191.19C73.8135 191.19 73.4588 191.302 73.2162 191.526C72.9828 191.741 72.8288 192.021 72.7542 192.366L71.2702 191.876C71.3822 191.512 71.5595 191.181 71.8022 190.882C72.0542 190.583 72.3855 190.345 72.7962 190.168C73.2068 189.981 73.7108 189.888 74.3082 189.888C75.2135 189.888 75.9228 190.117 76.4362 190.574C76.9588 191.022 77.2202 191.675 77.2202 192.534V195.25C77.2202 195.53 77.3508 195.67 77.6122 195.67H78.2002V197H77.0662C76.7302 197 76.4548 196.916 76.2402 196.748C76.0255 196.58 75.9182 196.351 75.9182 196.062V196.034H75.6802C75.6242 196.165 75.5262 196.323 75.3862 196.51C75.2462 196.697 75.0315 196.86 74.7422 197C74.4622 197.131 74.0795 197.196 73.5942 197.196ZM73.8602 195.88C74.3922 195.88 74.8262 195.731 75.1622 195.432C75.4982 195.124 75.6662 194.713 75.6662 194.2V194.06H73.7622C73.4168 194.06 73.1368 194.135 72.9222 194.284C72.7075 194.433 72.6002 194.653 72.6002 194.942C72.6002 195.222 72.7122 195.451 72.9362 195.628C73.1602 195.796 73.4682 195.88 73.8602 195.88ZM79.5323 197V190.084H81.1423V197H79.5323ZM80.3303 189.202C80.0409 189.202 79.7889 189.109 79.5743 188.922C79.3689 188.726 79.2663 188.469 79.2663 188.152C79.2663 187.835 79.3689 187.583 79.5743 187.396C79.7889 187.2 80.0409 187.102 80.3303 187.102C80.6383 187.102 80.8903 187.2 81.0863 187.396C81.2916 187.583 81.3943 187.835 81.3943 188.152C81.3943 188.469 81.2916 188.726 81.0863 188.922C80.8903 189.109 80.6383 189.202 80.3303 189.202ZM83.1826 197V187.2H84.7926V197H83.1826ZM93.6774 197.196C92.9867 197.196 92.3661 197.056 91.8154 196.776C91.2741 196.487 90.8447 196.081 90.5274 195.558C90.2194 195.026 90.0654 194.391 90.0654 193.654V193.43C90.0654 192.693 90.2194 192.058 90.5274 191.526C90.8447 190.994 91.2741 190.588 91.8154 190.308C92.3661 190.028 92.9867 189.888 93.6774 189.888C94.3681 189.888 94.9841 190.028 95.5254 190.308C96.0667 190.588 96.4914 190.994 96.7994 191.526C97.1167 192.058 97.2754 192.693 97.2754 193.43V193.654C97.2754 194.391 97.1167 195.026 96.7994 195.558C96.4914 196.081 96.0667 196.487 95.5254 196.776C94.9841 197.056 94.3681 197.196 93.6774 197.196ZM93.6774 195.768C94.2654 195.768 94.7461 195.581 95.1194 195.208C95.4927 194.825 95.6794 194.293 95.6794 193.612V193.472C95.6794 192.791 95.4927 192.263 95.1194 191.89C94.7461 191.507 94.2654 191.316 93.6774 191.316C93.0894 191.316 92.6087 191.507 92.2354 191.89C91.8621 192.263 91.6754 192.791 91.6754 193.472V193.612C91.6754 194.293 91.8621 194.825 92.2354 195.208C92.6087 195.581 93.0894 195.768 93.6774 195.768ZM98.9873 197V190.084H100.569V190.882H100.807C100.91 190.593 101.083 190.383 101.325 190.252C101.568 190.121 101.857 190.056 102.193 190.056H103.033V191.484H102.165C101.699 191.484 101.321 191.61 101.031 191.862C100.742 192.105 100.597 192.483 100.597 192.996V197H98.9873ZM109.868 197V188.726H106.942V187.2H114.474V188.726H111.548V197H109.868ZM117.669 197.196C116.978 197.196 116.367 197.051 115.835 196.762C115.312 196.463 114.902 196.048 114.603 195.516C114.314 194.975 114.169 194.345 114.169 193.626V193.458C114.169 192.73 114.314 192.1 114.603 191.568C114.892 191.036 115.298 190.625 115.821 190.336C116.344 190.037 116.946 189.888 117.627 189.888C118.299 189.888 118.887 190.037 119.391 190.336C119.895 190.625 120.287 191.036 120.567 191.568C120.847 192.1 120.987 192.721 120.987 193.43V194.004H115.793C115.812 194.545 116.003 194.979 116.367 195.306C116.731 195.633 117.179 195.796 117.711 195.796C118.234 195.796 118.621 195.684 118.873 195.46C119.125 195.227 119.316 194.965 119.447 194.676L120.777 195.362C120.646 195.614 120.455 195.885 120.203 196.174C119.96 196.454 119.634 196.697 119.223 196.902C118.812 197.098 118.294 197.196 117.669 197.196ZM115.807 192.786H119.349C119.312 192.329 119.134 191.965 118.817 191.694C118.509 191.423 118.108 191.288 117.613 191.288C117.1 191.288 116.689 191.423 116.381 191.694C116.073 191.965 115.882 192.329 115.807 192.786ZM122.64 197V187.2H124.25V197H122.64ZM129.454 197.196C128.763 197.196 128.152 197.051 127.62 196.762C127.097 196.463 126.687 196.048 126.388 195.516C126.099 194.975 125.954 194.345 125.954 193.626V193.458C125.954 192.73 126.099 192.1 126.388 191.568C126.677 191.036 127.083 190.625 127.606 190.336C128.129 190.037 128.731 189.888 129.412 189.888C130.084 189.888 130.672 190.037 131.176 190.336C131.68 190.625 132.072 191.036 132.352 191.568C132.632 192.1 132.772 192.721 132.772 193.43V194.004H127.578C127.597 194.545 127.788 194.979 128.152 195.306C128.516 195.633 128.964 195.796 129.496 195.796C130.019 195.796 130.406 195.684 130.658 195.46C130.91 195.227 131.101 194.965 131.232 194.676L132.562 195.362C132.431 195.614 132.24 195.885 131.988 196.174C131.745 196.454 131.419 196.697 131.008 196.902C130.597 197.098 130.079 197.196 129.454 197.196ZM127.592 192.786H131.134C131.097 192.329 130.919 191.965 130.602 191.694C130.294 191.423 129.893 191.288 129.398 191.288C128.885 191.288 128.474 191.423 128.166 191.694C127.858 191.965 127.667 192.329 127.592 192.786ZM134.089 193.57V193.36C134.089 192.632 134.233 192.011 134.523 191.498C134.812 190.975 135.199 190.579 135.685 190.308C136.17 190.028 136.702 189.888 137.281 189.888C137.934 189.888 138.429 190.005 138.765 190.238C139.11 190.471 139.362 190.723 139.521 190.994H139.759V190.084H141.327V198.316C141.327 198.773 141.196 199.133 140.935 199.394C140.673 199.665 140.319 199.8 139.871 199.8H135.223V198.4H139.325C139.595 198.4 139.731 198.26 139.731 197.98V195.978H139.493C139.39 196.137 139.25 196.3 139.073 196.468C138.895 196.627 138.662 196.762 138.373 196.874C138.083 196.986 137.719 197.042 137.281 197.042C136.702 197.042 136.17 196.907 135.685 196.636C135.199 196.356 134.812 195.959 134.523 195.446C134.233 194.923 134.089 194.298 134.089 193.57ZM137.729 195.628C138.307 195.628 138.788 195.446 139.171 195.082C139.553 194.709 139.745 194.191 139.745 193.528V193.388C139.745 192.716 139.553 192.198 139.171 191.834C138.797 191.47 138.317 191.288 137.729 191.288C137.15 191.288 136.665 191.47 136.273 191.834C135.89 192.198 135.699 192.716 135.699 193.388V193.528C135.699 194.191 135.89 194.709 136.273 195.082C136.665 195.446 137.15 195.628 137.729 195.628ZM143.366 197V190.084H144.948V190.882H145.186C145.289 190.593 145.462 190.383 145.704 190.252C145.947 190.121 146.236 190.056 146.572 190.056H147.412V191.484H146.544C146.078 191.484 145.7 191.61 145.41 191.862C145.121 192.105 144.976 192.483 144.976 192.996V197H143.366ZM150.799 197.196C150.314 197.196 149.875 197.112 149.483 196.944C149.091 196.767 148.779 196.515 148.545 196.188C148.321 195.861 148.209 195.46 148.209 194.984C148.209 194.517 148.321 194.125 148.545 193.808C148.779 193.491 149.096 193.253 149.497 193.094C149.899 192.926 150.356 192.842 150.869 192.842H152.871V192.422C152.871 192.058 152.759 191.764 152.535 191.54C152.311 191.307 151.961 191.19 151.485 191.19C151.019 191.19 150.664 191.302 150.421 191.526C150.188 191.741 150.034 192.021 149.959 192.366L148.475 191.876C148.587 191.512 148.765 191.181 149.007 190.882C149.259 190.583 149.591 190.345 150.001 190.168C150.412 189.981 150.916 189.888 151.513 189.888C152.419 189.888 153.128 190.117 153.641 190.574C154.164 191.022 154.425 191.675 154.425 192.534V195.25C154.425 195.53 154.556 195.67 154.817 195.67H155.405V197H154.271C153.935 197 153.66 196.916 153.445 196.748C153.231 196.58 153.123 196.351 153.123 196.062V196.034H152.885C152.829 196.165 152.731 196.323 152.591 196.51C152.451 196.697 152.237 196.86 151.947 197C151.667 197.131 151.285 197.196 150.799 197.196ZM151.065 195.88C151.597 195.88 152.031 195.731 152.367 195.432C152.703 195.124 152.871 194.713 152.871 194.2V194.06H150.967C150.622 194.06 150.342 194.135 150.127 194.284C149.913 194.433 149.805 194.653 149.805 194.942C149.805 195.222 149.917 195.451 150.141 195.628C150.365 195.796 150.673 195.88 151.065 195.88ZM156.737 197V190.084H158.319V190.854H158.557C158.679 190.621 158.879 190.415 159.159 190.238C159.449 190.051 159.831 189.958 160.307 189.958C160.811 189.958 161.217 190.061 161.525 190.266C161.833 190.471 162.067 190.733 162.225 191.05H162.449C162.608 190.733 162.837 190.471 163.135 190.266C163.434 190.061 163.859 189.958 164.409 189.958C164.839 189.958 165.226 190.051 165.571 190.238C165.926 190.425 166.206 190.7 166.411 191.064C166.626 191.428 166.733 191.881 166.733 192.422V197H165.123V192.534C165.123 192.133 165.016 191.829 164.801 191.624C164.587 191.409 164.288 191.302 163.905 191.302C163.485 191.302 163.149 191.442 162.897 191.722C162.655 191.993 162.533 192.385 162.533 192.898V197H160.937V192.534C160.937 192.133 160.83 191.829 160.615 191.624C160.401 191.409 160.102 191.302 159.719 191.302C159.29 191.302 158.954 191.442 158.711 191.722C158.469 191.993 158.347 192.385 158.347 192.898V197H156.737ZM169.708 197.196C169.353 197.196 169.055 197.079 168.812 196.846C168.579 196.613 168.462 196.314 168.462 195.95C168.462 195.595 168.579 195.301 168.812 195.068C169.055 194.835 169.353 194.718 169.708 194.718C170.063 194.718 170.357 194.835 170.59 195.068C170.823 195.301 170.94 195.6 170.94 195.964C170.94 196.328 170.823 196.627 170.59 196.86C170.357 197.084 170.063 197.196 169.708 197.196Z" fill="white"/>
</svg>
