<svg preserveAspectRatio="none" width="100%" height="100%" overflow="visible" style="display: block;" viewBox="0 0 240 200" fill="none" xmlns="http://www.w3.org/2000/svg">
<path id="Vector" d="M32.3834 132.144C30.9753 132.16 29.5347 132.079 28.0942 131.901C12.7985 130.019 0.837112 117.126 0.0440031 101.703C-0.910965 83.182 13.802 67.856 32.0759 67.856H32.1568C36.6565 67.856 40.3793 64.3367 40.3793 59.8281V34.82C40.3793 25.2027 44.2639 16.4937 50.544 10.1849C56.8403 3.89231 65.5322 0 75.1304 0L212.112 0C211.416 0.129744 210.704 0.259488 209.991 0.340577C226.938 2.64353 240 17.191 240 34.82L240 165.18C240 184.415 224.445 200 205.249 200H75.1466C55.9501 200 40.3955 184.415 40.3955 165.18L40.3955 140.156C40.3955 135.728 36.8022 132.095 32.3834 132.144Z" fill="var(--fill-0, #E4EAF2)"/>
</svg>
