<svg width="640" height="1024" viewBox="0 0 640 1024" fill="none" xmlns="http://www.w3.org/2000/svg">
<path d="M242.543 23.4862L230.024 31.315L237.848 46.9724L251.932 56.3669L253.496 64.1957L302.005 45.4067L297.311 31.315L242.543 23.4862Z" fill="#2F5DC0"/>
<path d="M358.337 37.5779L356.773 50.1039L370.856 54.8012V42.2752L364.597 36.0122L358.337 37.5779Z" fill="#2F5DC0"/>
<path d="M444.401 72.0244L400.587 75.1559L419.364 98.6422L438.142 133.089L441.271 169.101L436.577 206.679L477.262 212.942L483.521 189.456V153.443H474.132L472.567 148.746V136.22L480.391 134.654L469.438 101.774L460.049 100.208V90.8134L449.095 82.9847L444.401 72.0244Z" fill="#2F5DC0"/>
<path d="M159.609 131.523L158.044 187.89L159.609 194.153L168.998 231.731L183.081 259.914L272.274 394.569L289.487 397.7L316.088 383.609L294.181 347.596L250.367 283.401L225.33 248.954L212.812 222.336L200.293 191.021L198.729 156.575L206.553 122.128L220.636 97.0764L212.812 87.6819L179.951 86.1162L159.609 131.523Z" fill="#2F5DC0"/>
<path d="M435.012 211.376L416.235 245.823L397.457 277.138L417.8 281.835L433.447 295.927L455.355 261.48L447.531 256.783L453.79 237.994L452.225 225.468L435.012 211.376Z" fill="#2F5DC0"/>
<path d="M381.809 300.624L369.291 319.413L373.985 320.979L372.421 335.07L356.773 358.557L353.643 389.872L356.773 394.569H369.291L419.364 316.281L381.809 300.624Z" fill="#2F5DC0"/>
<path d="M10.9535 427.45L3.12958 449.37V590.287L15.6479 618.471L31.2958 630.997L68.8509 635.694L95.4523 630.997L115.795 638.826L128.313 652.917L133.007 667.009L131.443 685.798L114.23 709.284L103.276 713.982L68.8509 712.416L62.5917 720.245H39.1198L34.4254 715.547L21.9071 721.81L7.82395 740.599L3.12958 756.257V876.82L14.0831 906.569L34.4254 925.358L50.0733 930.055L53.2029 925.358L90.7579 917.529V911.266L81.3692 903.437V892.477H78.2396H62.5917L43.8142 875.254V789.138L45.379 756.257L53.2029 751.56L62.5917 754.691L98.5819 757.823L125.183 749.994L153.35 729.639L168.998 704.587L173.692 660.746L167.433 638.826L142.396 607.511L118.924 593.419L93.8875 588.722L59.4621 593.419L45.379 588.722L43.8142 507.303H31.2958L25.0367 501.04V485.382L43.8142 482.251L45.379 450.936L56.3325 439.976L75.11 435.278L71.9804 394.569L50.0733 396.135L29.731 407.095L10.9535 427.45Z" fill="#2F5DC0"/>
<path d="M607.139 447.804H594.621L597.751 472.856L607.139 474.422L616.528 486.948V555.841L610.269 560.538L613.399 585.59H638.435V454.067H629.047L616.528 441.541L607.139 447.804Z" fill="#2F5DC0"/>
<path d="M284.792 450.936L292.616 472.856L297.311 471.29V455.633L284.792 450.936Z" fill="#2F5DC0"/>
<path d="M334.866 480.685L342.69 485.382L350.513 466.593H341.125L334.866 472.856V480.685Z" fill="#2F5DC0"/>
<path d="M597.751 757.823V773.48H607.139V757.823H597.751Z" fill="#2F5DC0"/>
<path d="M610.269 867.425L597.751 870.557L586.797 889.346L572.714 892.477L569.584 917.529L575.844 933.187H578.973L605.575 925.358L624.352 906.569L619.658 903.437V887.78L625.917 875.254L610.269 867.425Z" fill="#2F5DC0"/>
<path d="M176.822 912.832L170.562 920.661H197.164L194.034 911.266L176.822 912.832Z" fill="#2F5DC0"/>
<path d="M215.941 923.792V933.187H223.765V937.884L230.024 961.37L242.543 983.291L262.885 1003.65L284.792 1014.61L291.051 1017.74L297.311 1019.3L311.394 1020.87L312.958 1013.04H323.912L327.042 1020.87L347.384 1017.74L366.161 1008.34L367.726 997.382L380.245 986.422L388.068 991.119L403.716 973.896L416.235 939.45L417.8 933.187V926.924L378.68 923.792L364.597 958.239L342.69 975.462L328.606 981.725H311.394L295.746 973.896L275.403 958.239L267.579 944.147H258.191L231.589 925.358L215.941 923.792Z" fill="#2F5DC0"/>
<path d="M341.125 3.13147L295.746 4.69722L273.839 7.82872L242.543 23.4862L297.311 31.315L302.005 45.4067L330.171 43.841L356.773 50.1039L358.337 37.578L364.597 36.0122L370.856 42.2752V54.8012L400.587 75.1559L444.401 72.0244L449.095 82.9847L460.049 90.8134V100.208L469.438 101.774L461.614 82.9847L433.447 46.9725L402.152 23.4862L359.902 7.82872L341.125 3.13147Z" fill="#2F59C0"/>
<path d="M197.164 57.9327L179.951 86.1162L212.812 87.6819L220.636 97.0764L253.496 64.1957L251.932 56.3669L237.848 46.9725L230.024 31.315L197.164 57.9327Z" fill="#2F59C0"/>
<path d="M474.132 153.443H483.521V147.18L481.956 140.917L480.391 134.654L472.567 136.22V148.746L474.132 153.443Z" fill="#2F59C0"/>
<path d="M436.577 206.679L435.012 211.376L452.225 225.468L453.79 237.994L447.531 256.783L455.355 261.48L471.002 234.862L477.262 212.942L436.577 206.679Z" fill="#2F59C0"/>
<path d="M397.457 277.138L381.809 300.624L419.364 316.281L433.447 295.927L417.8 281.835L397.457 277.138Z" fill="#2F59C0"/>
<path d="M289.487 397.7L272.274 394.569H71.9804L75.11 435.278L176.822 436.844H194.034H247.237H276.968L284.792 450.936L297.311 455.633V471.29L292.616 472.856V475.988L303.57 504.171L311.394 488.514H333.301L339.56 494.777L342.69 485.382L334.866 480.685V472.856L341.125 466.593H350.513L359.902 439.976L375.55 435.278H409.976H447.531H472.567H503.863H535.159L572.714 436.844L594.621 447.804H607.139L616.528 441.541L629.047 454.067H638.435V452.502L625.917 421.187L607.139 403.963L589.927 396.135L369.291 394.569H356.773L353.643 389.872H330.171L323.912 385.174L316.088 383.609L289.487 397.7Z" fill="#2F59C0"/>
<path d="M31.2959 507.303H43.8142V482.251L25.0367 485.382V501.04L31.2959 507.303Z" fill="#2F59C0"/>
<path d="M610.269 663.878L607.139 757.823V773.48L613.399 784.44L610.269 867.425L625.917 875.254L619.658 887.78V903.437L624.352 906.569L635.306 889.346L638.435 873.688V872.122V585.59H613.399L616.528 648.22L610.269 663.878Z" fill="#2F59C0"/>
<path d="M50.0734 710.85L34.4254 715.547L39.1198 720.245H62.5917L68.8509 712.416L67.2861 710.85H50.0734Z" fill="#2F59C0"/>
<path d="M53.2029 925.358L50.0734 930.055L57.8973 933.187H70.4157H84.4988H215.941V923.792L197.164 920.661H170.562L90.758 917.529L53.2029 925.358Z" fill="#2F59C0"/>
<path d="M433.447 920.661L417.8 926.924V933.187H428.753H542.983H569.584H575.844L569.584 917.529H538.289L521.076 923.792L433.447 920.661Z" fill="#2F59C0"/>
<path d="M367.726 997.382L366.161 1008.34L388.068 991.119L380.245 986.422L367.726 997.382Z" fill="#2F59C0"/>
<path d="M312.958 1013.04L311.394 1020.87H316.088H327.042L323.912 1013.04H312.958Z" fill="#2F59C0"/>
<path d="M369.291 319.413L358.337 331.939L323.912 385.174L330.171 389.872H353.643L356.773 358.557L372.421 335.07L373.985 320.979L369.291 319.413Z" fill="#2F59C3"/>
<path d="M597.751 472.856V519.829V604.379V757.823H607.139L610.269 663.878L616.528 648.22L613.399 585.59L610.269 560.538L616.528 555.841V486.948L607.139 474.422L597.751 472.856Z" fill="#2F59C3"/>
<path d="M311.394 488.514L303.57 504.171V508.868L311.394 518.263L319.218 519.829L333.301 513.566L339.56 494.777L333.301 488.514H311.394Z" fill="#2F59C3"/>
<path d="M597.751 773.48V870.557L610.269 867.425L613.399 784.44L607.139 773.48H597.751Z" fill="#2F59C3"/>
<path d="M90.7579 911.266V917.529L170.562 920.661L176.822 912.832L194.034 911.266L197.164 920.661L215.941 923.792L231.589 925.358L258.191 944.147H267.579V941.015L261.32 923.792L259.756 897.174L240.978 892.477H212.812H187.775H153.35H122.054H81.3692V903.437L90.7579 911.266Z" fill="#2F59C3"/>
<path d="M381.809 895.609L378.68 923.792L417.8 926.924L433.447 920.661L521.076 923.792L538.289 917.529H569.584L572.714 892.477H444.401H406.846L381.809 895.609Z" fill="#2F59C3"/>
<path fill-rule="evenodd" clip-rule="evenodd" d="M638.435 452.502L640 872.122H638.435V452.502ZM70.4156 936.318L57.8973 933.187H70.4156V936.318ZM84.4988 936.318V933.187H223.765V937.884L84.4988 936.318ZM428.753 936.318V933.187H542.983V936.318H428.753Z" fill="#050919" fill-opacity="0.99"/>
<path d="M3.12958 449.37L0 452.502V588.722L3.12958 590.287V449.37Z" fill="#090718" fill-opacity="0.6"/>
<path d="M3.12958 756.257L1.56479 875.254L3.12958 876.82V756.257Z" fill="#090718" fill-opacity="0.6"/>
<path d="M640 872.122H638.435V873.688H640V872.122Z" fill="#090718" fill-opacity="0.6"/>
<path d="M297.311 1019.3V1020.87L303.57 1024H316.088V1020.87H311.394L297.311 1019.3Z" fill="#090718" fill-opacity="0.6"/>
<path fill-rule="evenodd" clip-rule="evenodd" d="M50.0734 710.85L65.7213 707.719L67.2861 710.85H50.0734ZM297.311 1020.87L291.051 1017.74L297.311 1019.3V1020.87ZM327.042 1020.87L347.384 1017.74L336.43 1024H316.088V1020.87H327.042Z" fill="#120F25" fill-opacity="0.69"/>
<path d="M173.692 554.275L142.396 607.511L167.433 638.826L175.257 637.26L181.516 621.602L192.469 613.774V605.945L203.423 596.55L212.812 571.498L231.589 552.709L237.848 533.92L255.061 516.697L258.191 504.171L270.709 491.645L275.403 479.119L292.616 475.988V472.856L284.792 450.936L276.968 436.844H247.237L244.108 461.896L190.905 527.657V533.92L173.692 554.275Z" fill="#65DDDE"/>
<path d="M98.5819 757.823L62.5917 754.691V767.217L54.7677 773.48L53.2029 784.44L43.8142 789.138V875.254L62.5917 892.477H78.2396V878.385L84.4988 862.728L92.3227 856.465L93.8875 839.242L104.841 825.15V815.755L114.23 807.927L115.795 793.835L123.619 782.875L128.313 764.086L125.183 749.994L98.5819 757.823Z" fill="#65DDDE"/>
<path d="M159.609 505.737L136.137 524.526L114.23 555.841L93.8875 573.064V588.722L118.924 593.419L142.396 607.511L173.692 554.275L190.905 533.92V527.657L244.108 461.896L247.237 436.844H194.034L189.34 463.462L159.609 505.737Z" fill="#72E0E1"/>
<path d="M45.379 756.257L43.8142 789.138L53.2029 784.44L54.7677 773.48L62.5917 767.217V754.691L53.2029 751.56L45.379 756.257Z" fill="#72E0E1"/>
<path d="M70.4156 933.187V936.318H84.4988V933.187H70.4156Z" fill="#1A1444" fill-opacity="0.99"/>
<path d="M542.983 933.187V936.318H568.02L569.584 933.187H542.983Z" fill="#1A1444" fill-opacity="0.99"/>
<path d="M417.799 933.187L416.235 939.45L428.753 936.318V933.187H417.799Z" fill="#090A13" fill-opacity="0.81"/>
<path d="M569.584 933.187L568.02 936.318L578.973 933.187H575.843H569.584Z" fill="#090A13" fill-opacity="0.81"/>
<path d="M295.746 0V4.69725L341.125 3.1315L359.902 7.82875L353.643 0H295.746Z" fill="#0B0A12" fill-opacity="0.27"/>
<path d="M330.171 43.8409L302.005 45.4067L253.496 64.1957L220.636 97.0764L206.553 122.128L198.729 156.575H230.024L295.746 137.786H316.088L331.736 128.391H356.773L367.726 118.997L413.105 109.602L419.364 98.6422L400.587 75.1559L370.856 54.8012L356.773 50.1039L330.171 43.8409Z" fill="#B196F4"/>
<path d="M230.024 156.575H198.729L200.293 191.021L212.812 222.336L278.533 209.81L298.875 200.416L331.736 195.719L334.866 191.021L373.985 186.324L388.068 176.93L441.271 169.101L438.142 133.089L419.364 98.6422L413.105 109.602L367.726 118.997L356.773 128.391H331.736L316.088 137.786H295.746L230.024 156.575Z" fill="#A68FF4"/>
<path d="M278.533 209.81L212.812 222.336L225.33 248.954L250.367 283.401L258.191 275.572H276.968L300.44 266.177L325.477 263.046L336.43 253.651H355.208L386.504 241.125H413.105L416.235 245.823L435.012 211.376L436.577 206.679L441.271 169.101L388.068 176.93L373.985 186.324L334.866 191.021L331.736 195.719L298.875 200.416L278.533 209.81Z" fill="#9C88F4"/>
<path d="M258.191 275.572L250.367 283.401L294.181 347.596L316.088 331.939L355.208 328.807L358.337 331.939L369.291 319.413L381.809 300.624L397.457 277.138L416.235 245.823L413.105 241.125H386.504L355.208 253.651H336.43L325.477 263.046L300.44 266.177L276.968 275.572H258.191Z" fill="#9281F4"/>
<path d="M316.088 331.939L294.181 347.596L316.088 383.609L323.912 385.174L358.337 331.939L355.208 328.807L316.088 331.939Z" fill="#8D77F4"/>
<path d="M45.379 450.936L43.8142 482.251V507.303L45.379 588.722L59.4621 593.419L93.8875 588.722V573.064L114.23 555.841L136.137 524.526L164.303 472.856L175.257 461.896L176.822 436.844L75.11 435.278L56.3325 439.976L45.379 450.936Z" fill="#82E2E4"/>
<path d="M359.902 439.976L350.513 466.593L342.689 485.382L339.56 494.777L333.301 513.566L319.218 519.829V530.789L306.699 544.881V554.275L291.051 580.893V588.722L250.367 659.18L248.802 671.706L230.024 706.153L217.506 746.862L198.729 779.743L186.21 817.321L170.562 836.11L168.998 851.768L153.35 879.951V892.477H187.775L189.34 872.122L212.812 825.15L215.941 807.927L225.33 800.098L234.719 767.217L244.108 756.257L248.802 732.771L264.45 707.719L283.227 656.049L289.487 651.352L302.005 616.905L314.523 599.682L316.088 587.156L372.421 477.554L375.55 435.278L359.902 439.976Z" fill="#5AB6E8"/>
<path d="M189.34 872.122L187.775 892.477H212.812L225.33 847.07L234.719 837.676L244.108 809.492L253.496 798.532L262.885 764.086L284.792 712.416L305.134 679.535L312.958 649.786L399.022 486.948L409.976 457.199V435.278H375.55L372.421 477.554L316.088 587.156L314.523 599.682L302.005 616.905L289.487 651.352L283.227 656.049L264.45 707.719L248.802 732.771L244.108 756.257L234.719 767.217L225.33 800.098L215.941 807.927L212.812 825.15L189.34 872.122Z" fill="#5BADEA"/>
<path d="M225.33 847.07L212.812 892.477H240.978L244.108 868.991L259.756 848.636L272.274 804.795L284.792 786.006L297.311 745.297L320.782 707.719L334.866 665.443L345.819 652.917L347.384 637.26L375.55 593.419L394.328 548.012L409.976 527.658L411.54 516.697L438.142 475.988L439.707 461.896L447.531 455.633V435.278H409.976V457.199L399.022 486.948L312.958 649.786L305.134 679.535L284.792 712.416L262.885 764.086L253.496 798.532L244.108 809.492L234.719 837.676L225.33 847.07Z" fill="#5BA3EB"/>
<path d="M244.108 868.991L240.978 892.477L259.755 897.174L278.533 868.991L291.051 826.716L298.875 817.321V804.795L312.958 781.309V771.914L328.606 745.297L330.171 734.336L337.995 729.639L341.125 712.416L352.078 695.193L353.643 682.667L364.597 670.141L369.291 649.786L380.244 635.694L391.198 605.945L402.152 596.55L411.54 568.367L425.623 551.144L435.012 526.092L458.484 491.645V482.251L464.743 477.554L472.567 455.633V435.278H447.531V455.633L439.707 461.896L438.142 475.988L411.54 516.697L409.976 527.658L394.328 548.012L375.55 593.419L347.384 637.26L345.819 652.917L334.866 665.443L320.782 707.719L297.31 745.297L284.792 786.006L272.274 804.795L259.755 848.636L244.108 868.991Z" fill="#5C98ED"/>
<path d="M278.533 868.991L259.755 897.174L261.32 923.792L267.579 941.015L278.533 934.752V923.792L292.616 903.437L295.746 884.648L309.829 865.859L316.088 831.413L341.125 776.612L344.254 757.823L355.208 743.731L356.773 732.771L364.597 726.508V717.113L389.633 674.838L408.411 626.3L433.447 590.287L441.271 576.196V565.236L453.79 554.275L475.697 507.303L494.474 483.817L505.428 454.067L503.863 435.278H472.567V455.633L464.743 477.554L458.484 482.251V491.645L435.012 526.092L425.623 551.144L411.54 568.367L402.152 596.55L391.198 605.945L380.244 635.694L369.291 649.786L364.597 670.141L353.643 682.667L352.078 695.193L341.125 712.416L337.995 729.639L330.171 734.336L328.606 745.297L312.958 771.914V781.309L298.875 804.795V817.321L291.051 826.716L278.533 868.991Z" fill="#5C90EE"/>
<path d="M278.533 934.752L267.58 941.015V944.147L275.403 958.239L295.746 973.896L312.959 951.976L319.218 919.095L327.042 909.7L328.606 889.346L342.69 872.122L344.254 845.505L353.643 829.847L356.773 809.492L366.161 800.098V790.703L394.328 721.81L414.67 687.364V679.535L427.188 665.443L444.401 616.905L472.567 577.762L485.086 543.315L500.734 527.658L527.335 482.251L528.9 468.159L533.594 465.028L535.159 435.278H503.863L505.428 454.067L494.474 483.817L475.697 507.303L453.79 554.275L441.271 565.236V576.196L433.448 590.288L408.411 626.3L389.633 674.838L364.597 717.113V726.508L356.773 732.771L355.208 743.731L344.254 757.823L341.125 776.612L316.088 831.413L309.829 865.859L295.746 884.648L292.616 903.437L278.533 923.792V934.752Z" fill="#5C88EE"/>
<path d="M312.958 951.976L295.746 973.896L311.394 981.725H328.606L342.69 975.462L341.125 958.239L347.384 950.41V930.055L353.643 923.792L359.902 892.477L372.421 868.991L381.809 823.584L414.67 754.691L428.753 707.719L438.142 698.324L456.919 656.049L464.743 649.786L477.262 610.642L491.345 598.116L494.474 584.024L513.252 563.67L525.77 533.921L538.289 522.96L539.853 510.434L566.455 477.554L572.714 465.028V436.844L535.159 435.278L533.594 465.028L528.9 468.159L527.335 482.251L500.734 527.658L485.086 543.315L472.567 577.761L444.401 616.905L427.188 665.443L414.67 679.535V687.364L394.328 721.81L366.161 790.703V800.098L356.773 809.492L353.643 829.847L344.254 845.505L342.69 872.122L328.606 889.346L327.042 909.7L319.218 919.095L312.958 951.976Z" fill="#5B81EF"/>
<path d="M164.303 472.856L136.137 524.526L159.609 505.737L189.34 463.462L194.034 436.844H176.822L175.257 461.896L164.303 472.856Z" fill="#79E2DA"/>
<path d="M341.125 958.239L342.69 975.462L364.597 958.239L378.68 923.792L381.809 895.609L406.846 892.477V876.82L411.54 873.688L414.67 851.768L424.059 834.544L425.624 817.321L483.521 676.404L510.122 640.391L516.381 618.471L532.029 601.248V591.853L547.677 576.196L575.844 526.092L582.103 519.829H597.751V472.856L594.621 447.804L572.714 436.844V465.027L566.455 477.553L539.853 510.434L538.289 522.96L525.77 533.92L513.252 563.67L494.474 584.024L491.345 598.116L477.262 610.642L464.743 649.786L456.919 656.049L438.142 698.324L428.753 707.719L414.67 754.691L381.809 823.584L372.421 868.991L359.902 892.477L353.643 923.792L347.384 930.055V950.41L341.125 958.239Z" fill="#5B78EF"/>
<path d="M175.257 637.26L167.433 638.826L173.692 660.746L168.998 704.587L153.35 729.639L125.183 749.994L128.313 764.086L123.619 782.875L136.137 781.309L139.267 768.783L161.174 743.731V729.639L181.516 707.719L198.729 660.746L209.682 648.22L228.46 605.945L240.978 587.156L253.496 579.327L258.191 577.761L287.922 522.96L303.57 508.869V504.171L292.616 475.988L275.403 479.119L270.709 491.645L258.191 504.171L255.061 516.697L237.848 533.921L231.589 552.71L212.812 571.498L203.423 596.55L192.469 605.945V613.774L181.516 621.602L175.257 637.26Z" fill="#5CD5DF"/>
<path d="M258.191 577.761L253.496 579.327L250.367 598.116L233.154 624.734L226.895 646.654L215.941 659.18V673.272L198.729 701.456L186.21 746.862L170.562 768.783L168.998 789.138L150.22 823.584V836.11H170.562L186.21 817.321L198.729 779.743L217.506 746.862L230.024 706.153L248.802 671.706L250.367 659.18L291.051 588.722V580.893L306.699 554.275V544.881L319.218 530.789V519.829L311.394 518.263L303.57 508.869L287.922 522.96L258.191 577.761Z" fill="#59C6E4"/>
<path d="M406.846 876.82V892.477H444.401V884.648L456.919 870.557L472.567 815.755L478.826 812.624V793.835L485.086 787.572V778.177L491.345 775.046L494.474 760.954L511.687 739.034L519.511 709.284L528.9 701.456L530.465 682.667L539.853 676.404L541.418 667.009L555.501 657.615L560.196 635.694L577.408 607.511L597.751 604.379V519.829H582.103L575.844 526.092L547.677 576.196L532.029 591.853V601.248L516.381 618.471L510.122 640.391L483.521 676.404L425.623 817.321L424.059 834.544L414.67 851.768L411.54 873.688L406.846 876.82Z" fill="#5B71EF"/>
<path d="M136.137 781.309L123.619 782.875L115.795 793.835L114.23 807.927L104.841 815.755V825.15L93.8875 839.242L92.3228 856.465L84.4988 862.728L78.2396 878.385V892.477H81.3692H122.054L126.748 867.425L139.267 842.373L150.22 836.11V823.584L168.998 789.138L170.562 768.783L186.21 746.862L198.729 701.456L215.941 673.272V659.18L226.895 646.654L233.154 624.734L250.367 598.116L253.496 579.327L240.978 587.156L228.46 605.945L209.682 648.22L198.729 660.746L181.516 707.719L161.174 729.639V743.731L139.267 768.783L136.137 781.309Z" fill="#5CD3E7"/>
<path d="M444.401 884.648V892.477H572.714L586.797 889.346L597.751 870.557V773.48V757.823V604.379L577.408 607.511L560.196 635.694L555.501 657.615L541.418 667.009L539.853 676.404L530.465 682.667L528.9 701.456L519.511 709.284L511.687 739.034L494.474 760.954L491.345 775.046L485.086 778.177V787.572L478.826 793.835V812.624L472.567 815.755L456.919 870.557L444.401 884.648Z" fill="#5D67F0"/>
<path d="M7.82396 740.599L0 742.165V875.254H1.56479L3.12958 756.257L7.82396 740.599Z" fill="#070916" fill-opacity="0.14"/>
<path d="M126.748 867.425L122.054 892.477H153.35V879.951L168.998 851.768L170.562 836.11H150.22L139.267 842.373L126.748 867.425Z" fill="#5AC7EE"/>
</svg>
