<svg width="178" height="36" viewBox="0 0 178 36" fill="none" xmlns="http://www.w3.org/2000/svg">
<path d="M5.07714 23.7421C5.33748 23.7742 5.59781 23.7888 5.85229 23.7859C6.65084 23.7772 7.30021 24.4311 7.30021 25.228V29.7324C7.30021 33.1946 10.1112 36 13.5804 36H37.0923C40.5615 36 43.3725 33.1946 43.3725 29.7324V6.2676C43.3725 3.09439 41.0119 0.475835 37.9494 0.0613039C38.0781 0.0467078 38.2068 0.0233539 38.3326 0H13.5775C11.8429 0 10.2721 0.700616 9.13425 1.83328C7.99931 2.96886 7.29729 4.53649 7.29729 6.2676V10.7691C7.29729 11.5806 6.62452 12.2141 5.81134 12.2141C5.80549 12.2141 5.79964 12.2141 5.79672 12.2141C2.49428 12.2141 -0.164628 14.9728 0.00795219 18.3065C0.151282 21.0827 2.31293 23.4035 5.07714 23.7421ZM25.5996 3.2929C25.5996 3.2929 35.27 3.2929 35.3343 3.2929C35.3343 3.2929 35.3343 3.2929 35.3372 3.2929C35.3372 3.2929 35.3373 3.2929 35.3402 3.2929C36.9724 3.2929 38.4086 4.11612 39.2569 5.37139C39.7717 6.12747 40.073 7.04119 40.0759 8.02498C40.0759 8.18261 40.0671 8.33733 40.0525 8.49205C40.0525 8.50081 40.0525 8.50957 40.0525 8.51541C39.8448 10.4917 38.4174 12.1002 36.5365 12.5877C36.5307 12.5877 36.5219 12.5907 36.5161 12.5936C36.478 12.6023 36.4429 12.6111 36.4049 12.6199C36.3084 12.6432 36.2119 12.6607 36.1124 12.6782C36.0919 12.6812 36.0744 12.687 36.0539 12.6899C36.0071 12.6987 35.9603 12.7045 35.9106 12.7103C35.8872 12.7103 35.8638 12.7162 35.8404 12.7191C35.6766 12.7366 35.5098 12.7454 35.3431 12.7454C35.3431 12.7454 35.3402 12.7454 35.3372 12.7454L35.2056 12.7512C32.418 12.8884 30.1218 15.1187 30.0721 17.9037C30.0194 20.8492 32.3946 23.2517 35.3314 23.2517C37.885 23.2517 39.9648 25.266 40.0642 27.7882C40.0642 27.8524 40.0671 27.9137 40.0671 27.9779C40.0671 30.5877 37.9464 32.7042 35.3314 32.7042C35.2671 32.7042 15.7303 32.7042 15.7303 32.7042C12.8959 32.7042 10.5997 30.4126 10.5997 27.5838V21.2374V14.7597V7.40026C11.0356 5.06195 13.0861 3.2929 15.5578 3.2929" fill="#2050F2"/>
<path d="M50.6706 31.5394V4.46062C50.6706 4.41392 50.7086 4.37305 50.7583 4.37305H61.9059C63.6229 4.37305 65.1381 4.71752 66.4515 5.40354C67.7649 6.09248 68.7916 7.05874 69.5345 8.30526C70.2746 9.55177 70.6461 11.0318 70.6461 12.7425V13.2884C70.6461 14.9757 70.2629 16.4499 69.4965 17.7081C68.7301 18.9663 67.6888 19.9413 66.3754 20.6273C65.0621 21.3163 63.5732 21.6578 61.9088 21.6578H55.9094C55.8626 21.6578 55.8217 21.6958 55.8217 21.7454V31.5394C55.8217 31.5861 55.7837 31.627 55.7339 31.627H50.7583C50.7115 31.627 50.6706 31.5891 50.6706 31.5394ZM55.8188 16.8995C55.8188 16.9462 55.8568 16.9871 55.9065 16.9871H61.3969C62.6196 16.9871 63.6083 16.6513 64.363 15.9741C65.1176 15.2997 65.495 14.3773 65.495 13.2096V12.8213C65.495 11.6536 65.1176 10.7311 64.363 10.0568C63.6083 9.38245 62.6196 9.04382 61.3969 9.04382H55.9065C55.8597 9.04382 55.8188 9.08177 55.8188 9.1314V16.8995Z" fill="#2050F2"/>
<path d="M76.8473 10.0568C75.9639 10.0568 75.2151 9.77073 74.6037 9.20148C73.9924 8.63223 73.6882 7.87907 73.6882 6.94491C73.6882 6.01076 73.9924 5.25759 74.6037 4.68834C75.2151 4.11909 75.961 3.83301 76.8473 3.83301C77.7336 3.83301 78.5117 4.11909 79.1084 4.68834C79.7051 5.26051 80.0064 6.01076 80.0064 6.94491C80.0064 7.87907 79.708 8.63223 79.1084 9.20148C78.5087 9.77365 77.757 10.0568 76.8473 10.0568ZM74.3873 31.5395V12.401C74.3873 12.3543 74.4253 12.3134 74.475 12.3134H79.2166C79.2634 12.3134 79.3044 12.3513 79.3044 12.401V31.5365C79.3044 31.5833 79.2663 31.6241 79.2166 31.6241H74.475C74.4282 31.6241 74.3873 31.5862 74.3873 31.5365V31.5395Z" fill="#2050F2"/>
<path d="M84.7655 31.5394V12.4009C84.7655 12.3542 84.8035 12.3134 84.8533 12.3134H89.5159C89.5627 12.3134 89.6036 12.3513 89.6036 12.4009V14.7597C89.6036 14.8064 89.6416 14.8473 89.6914 14.8473H90.253C90.2852 14.8473 90.3144 14.8297 90.329 14.8005C90.6449 14.1437 91.2241 13.5161 92.0607 12.9206C92.9177 12.3104 94.2194 12.0068 95.9628 12.0068C97.4721 12.0068 98.7913 12.3513 99.9233 13.0373C101.055 13.7263 101.933 14.6721 102.556 15.8807C103.179 17.0863 103.492 18.4963 103.492 20.1048V31.5424C103.492 31.5891 103.454 31.6299 103.404 31.6299H98.6626C98.6158 31.6299 98.5749 31.592 98.5749 31.5424V20.493C98.5749 19.0393 98.218 17.9504 97.5014 17.2235C96.7847 16.4966 95.7668 16.1346 94.4388 16.1346C92.9294 16.1346 91.7594 16.6338 90.9287 17.6322C90.095 18.6306 89.6797 20.026 89.6797 21.8184V31.5424C89.6797 31.5891 89.6416 31.6299 89.5919 31.6299H84.8503C84.8035 31.6299 84.7626 31.592 84.7626 31.5424L84.7655 31.5394Z" fill="#2050F2"/>
<path d="M115.66 31.627C114.385 31.627 113.352 31.2329 112.56 30.4389C111.767 29.6478 111.369 28.591 111.369 27.2657V16.4528C111.369 16.4061 111.331 16.3653 111.281 16.3653H106.619C106.572 16.3653 106.531 16.3273 106.531 16.2777V12.4009C106.531 12.3542 106.569 12.3134 106.619 12.3134H111.281C111.328 12.3134 111.369 12.2754 111.369 12.2258V6.40191C111.369 6.3552 111.407 6.31433 111.457 6.31433H116.199C116.245 6.31433 116.286 6.35228 116.286 6.40191V12.2258C116.286 12.2725 116.324 12.3134 116.374 12.3134H121.505C121.551 12.3134 121.592 12.3513 121.592 12.4009V16.2777C121.592 16.3244 121.554 16.3653 121.505 16.3653H117.392C116.781 16.3653 116.286 16.8586 116.286 17.4687V26.4103C116.286 27.1898 116.649 27.578 117.377 27.578H121.037C121.083 27.578 121.124 27.616 121.124 27.6656V31.5424C121.124 31.5891 121.086 31.6299 121.037 31.6299H115.663L115.66 31.627Z" fill="#2050F2"/>
<path d="M173.083 31.5394V4.46062C173.083 4.41392 173.121 4.37305 173.171 4.37305H177.912C177.959 4.37305 178 4.411 178 4.46062V31.5394C178 31.5861 177.962 31.627 177.912 31.627H173.171C173.124 31.627 173.083 31.5891 173.083 31.5394Z" fill="#2050F2"/>
<path d="M165.29 11.4609C165.364 11.4522 165.437 11.4405 165.51 11.4288H151.247C150.247 11.4288 149.343 11.8317 148.688 12.4856C148.65 12.5235 148.614 12.5644 148.579 12.6024C148.024 11.9952 147.263 11.5777 146.406 11.4609C146.479 11.4522 146.552 11.4405 146.625 11.4288H132.363C131.362 11.4288 130.458 11.8317 129.803 12.4856C129.148 13.1395 128.744 14.0415 128.744 15.0399V17.6322C128.744 18.1022 128.358 18.4671 127.887 18.4642H127.878C125.974 18.4642 124.444 20.0552 124.544 21.976C124.626 23.5758 125.872 24.9128 127.463 25.1084C127.615 25.1259 127.764 25.1346 127.911 25.1317C128.37 25.1317 128.744 25.5054 128.744 25.9637V28.5589C128.744 30.5527 130.365 32.17 132.363 32.17H145.912C146.968 32.17 147.918 31.7146 148.579 30.9935C149.24 31.7146 150.188 32.17 151.247 32.17H164.796C166.794 32.17 168.414 30.5527 168.414 28.5589V15.0399C168.414 13.2096 167.054 11.7003 165.29 11.4609ZM147.629 16.1434C147.626 16.2047 147.626 16.2631 147.62 16.3215C147.62 16.3273 147.62 16.3302 147.617 16.3361C147.509 17.387 146.795 18.2511 145.833 18.5985C145.745 18.6247 145.657 18.6539 145.572 18.689C145.555 18.6919 145.534 18.6977 145.517 18.7006C145.458 18.7123 145.403 18.724 145.347 18.7328C145.335 18.7357 145.324 18.7386 145.315 18.7415C145.286 18.7415 145.259 18.7474 145.23 18.7532C145.218 18.7532 145.204 18.7561 145.192 18.7561C145.096 18.7649 145.002 18.7736 144.905 18.7736C144.905 18.7736 144.905 18.7707 144.9 18.7707L144.824 18.7765C143.218 18.8554 141.896 20.1398 141.866 21.7454C141.837 23.4415 143.206 24.8252 144.897 24.8252C145.137 24.8252 145.368 24.8573 145.587 24.9157C145.689 24.9536 145.795 24.9887 145.903 25.0179C146.88 25.4032 147.582 26.3374 147.623 27.4408C147.626 27.4759 147.626 27.5138 147.626 27.5488C147.626 29.0523 146.406 30.2725 144.897 30.2725H133.603C131.971 30.2725 130.646 28.9501 130.646 27.3211V15.6909C130.897 14.3451 132.079 13.3263 133.503 13.3263H144.905C145.844 13.3263 146.672 13.7993 147.161 14.5232C147.447 14.9436 147.617 15.4486 147.629 15.9916V16.1434ZM163.784 24.8252C165.255 24.8252 166.452 25.9871 166.51 27.4408V27.5488C166.51 29.0523 165.29 30.2725 163.784 30.2725H152.487C150.855 30.2725 149.533 28.9501 149.533 27.3211V15.6909C149.782 14.3451 150.963 13.3263 152.388 13.3263H163.79C164.729 13.3263 165.557 13.7993 166.048 14.5232C166.343 14.9582 166.519 15.4866 166.519 16.0529C166.519 16.1434 166.513 16.2339 166.504 16.3215V16.3361C166.384 17.4746 165.56 18.4 164.477 18.6831C164.471 18.6831 164.469 18.6861 164.466 18.6861C164.442 18.6919 164.422 18.6977 164.401 18.7006C164.346 18.7123 164.29 18.724 164.232 18.7328C164.22 18.7357 164.211 18.7386 164.199 18.7415C164.17 18.7415 164.144 18.7474 164.115 18.7532C164.103 18.7532 164.088 18.7561 164.077 18.7561C163.983 18.7649 163.886 18.7736 163.79 18.7736C163.787 18.7736 163.787 18.7707 163.787 18.7707L163.711 18.7765C162.105 18.8554 160.78 20.1398 160.751 21.7454C160.721 23.4415 162.09 24.8252 163.784 24.8252Z" fill="#2050F2"/>
<path d="M163.79 14.2021C164.404 14.2021 164.977 14.5057 165.323 15.0136C165.533 15.3231 165.641 15.6821 165.641 16.0529C165.641 16.1054 165.639 16.1667 165.63 16.2339V16.2747C165.539 16.987 165.033 17.5884 164.349 17.8073H164.293L164.199 17.8453C164.167 17.8511 164.132 17.8599 164.1 17.8657H164.079L163.72 17.8978L163.655 17.9037C161.57 18.0117 159.911 19.6902 159.873 21.7308C159.856 22.7875 160.253 23.783 160.993 24.5332C161.734 25.2864 162.725 25.7009 163.784 25.7009C164.776 25.7009 165.586 26.4716 165.633 27.4612V27.5488C165.633 28.5676 164.802 29.3967 163.784 29.3967H152.487C151.341 29.3967 150.41 28.4654 150.41 27.3211V15.7785C150.615 14.8618 151.434 14.2021 152.388 14.2021H163.79ZM163.79 13.3263H152.388C150.963 13.3263 149.782 14.3451 149.533 15.6909V27.3211C149.533 28.95 150.855 30.2724 152.487 30.2724H163.784C165.29 30.2724 166.51 29.0522 166.51 27.5488V27.4408C166.452 25.987 165.255 24.8252 163.784 24.8252C162.09 24.8252 160.721 23.4414 160.751 21.7454C160.78 20.1398 162.105 18.8553 163.711 18.7765L163.787 18.7707C163.787 18.7707 163.787 18.7736 163.79 18.7736C163.886 18.7736 163.983 18.7648 164.077 18.7561C164.088 18.7561 164.103 18.7531 164.115 18.7531C164.144 18.7473 164.17 18.7444 164.199 18.7415C164.211 18.7386 164.22 18.7356 164.232 18.7327C164.29 18.724 164.346 18.7123 164.401 18.7006C164.422 18.6977 164.442 18.6918 164.466 18.686C164.468 18.686 164.471 18.6831 164.477 18.6831C165.56 18.3999 166.384 17.4745 166.504 16.336V16.3214C166.513 16.2339 166.519 16.1434 166.519 16.0529C166.519 15.4865 166.343 14.9581 166.048 14.5232C165.557 13.7992 164.729 13.3263 163.79 13.3263Z" fill="#2050F2"/>
<path d="M144.905 14.2021C145.52 14.2021 146.09 14.5057 146.435 15.0165C146.634 15.3055 146.742 15.6471 146.751 16.0032V16.1755C146.751 16.1755 146.751 16.193 146.751 16.2047L146.745 16.2484C146.675 16.9315 146.21 17.5242 145.555 17.7694C145.47 17.7956 145.394 17.8219 145.321 17.8482H145.315C145.28 17.8569 145.245 17.8628 145.213 17.8686L145.175 17.8745L145.154 17.8803C145.154 17.8803 145.134 17.8803 145.125 17.8832H145.107C145.063 17.8891 145.022 17.892 144.984 17.8949H144.835L144.771 17.9037C142.688 18.0117 141.03 19.6902 140.992 21.7308C140.974 22.7875 141.372 23.783 142.112 24.5362C142.852 25.2893 143.844 25.7038 144.9 25.7038C145.043 25.7038 145.189 25.7214 145.33 25.7564C145.432 25.7943 145.529 25.8235 145.622 25.8527C146.283 26.1301 146.722 26.7635 146.748 27.4787V27.4933V27.5138C146.748 27.5284 146.748 27.543 146.748 27.5546C146.748 28.5735 145.918 29.4025 144.897 29.4025H133.603C132.456 29.4025 131.523 28.4713 131.523 27.3269V15.7843C131.731 14.8647 132.55 14.2079 133.503 14.2079H144.905M144.905 13.3263H133.503C132.079 13.3263 130.897 14.3451 130.646 15.6909V27.3211C130.646 28.95 131.971 30.2724 133.603 30.2724H144.897C146.406 30.2724 147.626 29.0522 147.626 27.5488C147.626 27.5138 147.626 27.4758 147.623 27.4408C147.582 26.3373 146.88 25.4032 145.903 25.0178C145.795 24.9886 145.689 24.9536 145.587 24.9157C145.368 24.8573 145.137 24.8252 144.897 24.8252C143.206 24.8252 141.837 23.4414 141.866 21.7454C141.896 20.1398 143.218 18.8553 144.824 18.7765L144.9 18.7707C144.9 18.7707 144.903 18.7736 144.905 18.7736C145.002 18.7736 145.096 18.7648 145.192 18.7561C145.204 18.7561 145.218 18.7531 145.23 18.7531C145.259 18.7473 145.286 18.7444 145.315 18.7415C145.324 18.7386 145.335 18.7356 145.347 18.7327C145.403 18.724 145.458 18.7123 145.517 18.7006C145.534 18.6977 145.555 18.6918 145.572 18.6889C145.657 18.6539 145.745 18.6247 145.833 18.5984C146.795 18.251 147.509 17.3869 147.617 16.336C147.62 16.3302 147.62 16.3273 147.62 16.3214C147.626 16.263 147.626 16.2047 147.629 16.1434V15.9916C147.617 15.4486 147.447 14.9435 147.161 14.5232C146.672 13.7992 145.844 13.3263 144.905 13.3263Z" fill="#2050F2"/>
</svg>
