<svg width="190" height="40" viewBox="0 0 190 40" fill="none" xmlns="http://www.w3.org/2000/svg">
<path d="M5.61982 26.3801C5.90798 26.4158 6.19614 26.432 6.47783 26.4288C7.36173 26.4191 8.08051 27.1456 8.08051 28.0311V33.036C8.08051 36.8829 11.192 40 15.032 40H41.057C44.897 40 48.0085 36.8829 48.0085 33.036V6.964C48.0085 3.43821 45.3956 0.528706 42.0057 0.0681155C42.1481 0.0518975 42.2906 0.0259487 42.4298 0H15.0287C13.1087 0 11.3701 0.778463 10.1106 2.03698C8.85434 3.29874 8.07728 5.04054 8.07728 6.964V11.9656C8.07728 12.8673 7.33259 13.5712 6.4325 13.5712C6.42602 13.5712 6.41955 13.5712 6.41631 13.5712C2.76089 13.5712 -0.182225 16.6364 0.00880218 20.3406C0.167452 23.4252 2.56015 26.0039 5.61982 26.3801ZM28.3359 3.65877C28.3359 3.65877 39.0399 3.65877 39.1111 3.65877C39.1111 3.65877 39.1111 3.65877 39.1144 3.65877C39.1144 3.65877 39.1144 3.65877 39.1176 3.65877C40.9243 3.65877 42.514 4.57347 43.4529 5.96821C44.0228 6.8083 44.3563 7.82355 44.3595 8.91664C44.3595 9.09179 44.3498 9.2637 44.3336 9.43561C44.3336 9.44535 44.3336 9.45508 44.3336 9.46156C44.1037 11.6575 42.5237 13.4447 40.4418 13.9864C40.4354 13.9864 40.4256 13.9896 40.4192 13.9929C40.3771 14.0026 40.3382 14.0123 40.2961 14.0221C40.1893 14.048 40.0824 14.0675 39.9724 14.0869C39.9497 14.0902 39.9303 14.0967 39.9076 14.0999C39.8558 14.1096 39.804 14.1161 39.749 14.1226C39.7231 14.1226 39.6972 14.1291 39.6712 14.1323C39.4899 14.1518 39.3054 14.1615 39.1208 14.1615C39.1208 14.1615 39.1176 14.1615 39.1144 14.1615L38.9687 14.168C35.8831 14.3205 33.3414 16.7986 33.2864 19.893C33.2281 23.1657 35.8572 25.8352 39.1079 25.8352C41.9344 25.8352 44.2365 28.0733 44.3466 30.8758C44.3466 30.9471 44.3498 31.0152 44.3498 31.0866C44.3498 33.9864 42.0024 36.338 39.1079 36.338C39.0367 36.338 17.4117 36.338 17.4117 36.338C14.2743 36.338 11.7327 33.7918 11.7327 30.6487V23.5971V16.3996V8.22251C12.2151 5.62439 14.4848 3.65877 17.2207 3.65877" fill="#2050F2"/>
<path d="M177.13 12.3549C177.211 12.3452 177.292 12.3322 177.373 12.3192H161.585C160.478 12.3192 159.478 12.7668 158.752 13.4934C158.71 13.5356 158.672 13.581 158.633 13.6231C158.017 12.9485 157.176 12.4846 156.227 12.3549C156.308 12.3452 156.389 12.3322 156.47 12.3192H140.683C139.575 12.3192 138.575 12.7668 137.85 13.4934C137.124 14.22 136.677 15.2222 136.677 16.3315V19.2119C136.677 19.7341 136.25 20.1395 135.729 20.1363H135.719C133.611 20.1363 131.918 21.904 132.028 24.0383C132.119 25.8158 133.498 27.3014 135.259 27.5187C135.428 27.5382 135.593 27.5479 135.755 27.5446C136.263 27.5446 136.677 27.9598 136.677 28.4691V31.3526C136.677 33.568 138.471 35.365 140.683 35.365H155.68C156.849 35.365 157.901 34.8589 158.633 34.0578C159.364 34.8589 160.413 35.365 161.585 35.365H176.583C178.794 35.365 180.588 33.568 180.588 31.3526V16.3315C180.588 14.2978 179.082 12.6209 177.13 12.3549ZM154.556 32.2835H142.055C140.786 32.2835 139.753 31.2488 139.753 29.9773V17.1522C139.983 16.1304 140.89 15.4006 141.945 15.4006H154.566C155.246 15.4006 155.877 15.738 156.259 16.3056C156.48 16.6267 156.599 17.0062 156.609 17.4019V17.5933C156.609 17.5933 156.609 17.6128 156.609 17.6257L156.603 17.6744C156.525 18.4334 156.01 19.0918 155.285 19.3643C155.191 19.3935 155.107 19.4227 155.026 19.4519H155.019C154.98 19.4616 154.942 19.4681 154.906 19.4746L154.864 19.4811L154.841 19.4876C154.841 19.4876 154.819 19.4876 154.809 19.4908H154.789C154.741 19.4973 154.696 19.5005 154.653 19.5038H154.488L154.417 19.5135C152.112 19.6335 150.276 21.4986 150.234 23.7659C150.215 24.94 150.655 26.0461 151.474 26.8829C152.293 27.7198 153.391 28.1804 154.56 28.1804C154.718 28.1804 154.88 28.1998 155.036 28.2388C155.149 28.2809 155.256 28.3134 155.359 28.3458C156.091 28.654 156.577 29.3578 156.606 30.1525V30.1687V30.1914C156.606 30.2076 156.606 30.2239 156.606 30.2368C156.606 31.3688 155.686 32.29 154.556 32.29V32.2835ZM160.659 29.9773V17.1522C160.886 16.1337 161.793 15.4006 162.848 15.4006H175.469C176.149 15.4006 176.783 15.738 177.166 16.3023C177.399 16.6462 177.518 17.0451 177.518 17.4571C177.518 17.5155 177.515 17.5836 177.506 17.6582V17.7036C177.405 18.495 176.845 19.1632 176.087 19.4065H176.026L175.922 19.4486C175.887 19.4551 175.848 19.4649 175.812 19.4713H175.79L175.391 19.507L175.32 19.5135C173.012 19.6335 171.176 21.4986 171.134 23.7659C171.114 24.94 171.555 26.0461 172.374 26.8797C173.193 27.7166 174.29 28.1771 175.462 28.1771C176.56 28.1771 177.457 29.0335 177.509 30.133V30.2303C177.509 31.3624 176.589 32.2835 175.462 32.2835H162.958C161.689 32.2835 160.659 31.2488 160.659 29.9773Z" fill="#2050F2"/>
<path d="M56.0866 35.3649V4.63513H68.7074C70.6338 4.63513 72.3369 5.02436 73.8133 5.79958C75.2865 6.5748 76.4424 7.66465 77.2745 9.06912C78.1066 10.4736 78.5242 12.1408 78.5242 14.074V14.687C78.5242 16.591 78.0936 18.2517 77.2324 19.6692C76.3711 21.0899 75.2023 22.1862 73.7259 22.9614C72.2495 23.7367 70.5788 24.1259 68.7074 24.1259H61.8725V35.3649H56.0898H56.0866ZM61.8725 18.8583H68.1375C69.5103 18.8583 70.6209 18.4788 71.4692 17.7165C72.3175 16.9543 72.7384 15.9164 72.7384 14.5995V14.1616C72.7384 12.8447 72.3142 11.8067 71.4692 11.0445C70.6209 10.2822 69.5136 9.90273 68.1375 9.90273H61.8725V18.8583Z" fill="#2050F2"/>
<path d="M83.9442 11.6932C82.9502 11.6932 82.1117 11.3721 81.4253 10.7266C80.7388 10.0844 80.3956 9.23458 80.3956 8.18041C80.3956 7.12625 80.7388 6.27967 81.4253 5.63419C82.1117 4.99196 82.9502 4.6676 83.9442 4.6676C84.9382 4.6676 85.8124 4.98872 86.4859 5.63419C87.1561 6.27967 87.4928 7.12625 87.4928 8.18041C87.4928 9.23458 87.1561 10.0844 86.4859 10.7266C85.8124 11.3721 84.9673 11.6932 83.9442 11.6932ZM81.1857 35.365V13.5907H86.706V35.365H81.1857Z" fill="#2050F2"/>
<path d="M90.0021 35.3649V13.5907H95.435V16.445H96.225C96.5747 15.6828 97.232 14.9595 98.1968 14.2718C99.1617 13.5842 100.622 13.2404 102.577 13.2404C104.271 13.2404 105.754 13.6296 107.026 14.4048C108.295 15.18 109.283 16.2472 109.982 17.6095C110.682 18.9718 111.034 20.5579 111.034 22.3711V35.3649H105.514V22.809C105.514 21.1709 105.113 19.9416 104.31 19.121C103.507 18.3036 102.361 17.8917 100.871 17.8917C99.1778 17.8917 97.8633 18.4561 96.9276 19.5816C95.9919 20.7071 95.5257 22.2803 95.5257 24.301V35.3617H90.0053L90.0021 35.3649Z" fill="#2050F2"/>
<path d="M120.107 35.3649V13.8242C120.107 11.6608 118.355 9.90597 116.195 9.90597H111.17V4.63513H134.832V9.90273H130.014C127.738 9.90273 125.893 11.7516 125.893 14.0318V35.3617H120.11L120.107 35.3649Z" fill="#2050F2"/>
<path d="M184.48 35.3649V4.63513H190V35.3617H184.48V35.3649Z" fill="#2050F2"/>
</svg>
