<svg width="26" height="21" viewBox="0 0 26 21" fill="none" xmlns="http://www.w3.org/2000/svg">
<g clip-path="url(#clip0_74_133)">
<path d="M4.41337 15.4806C4.56424 15.3266 4.77168 15.2368 4.9917 15.2368H24.9439C25.3085 15.2368 25.4908 15.686 25.2331 15.949L21.2917 19.9721C21.1408 20.1261 20.9334 20.216 20.7133 20.216H0.761124C0.396528 20.216 0.214229 19.7668 0.471961 19.5037L4.41337 15.4806Z" fill="#E4EAF2"/>
<path d="M4.41345 0.459889C4.5706 0.305894 4.77805 0.216064 4.99178 0.216064H24.944C25.3086 0.216064 25.4909 0.665214 25.2332 0.928288L21.2918 4.95139C21.1409 5.10538 20.9334 5.19521 20.7134 5.19521H0.7612C0.396604 5.19521 0.214306 4.74606 0.472038 4.48299L4.41345 0.459889Z" fill="#E4EAF2"/>
<path d="M21.2917 7.92229C21.1408 7.7683 20.9334 7.67847 20.7133 7.67847H0.761124C0.396528 7.67847 0.214229 8.12762 0.471961 8.39069L4.41337 12.4138C4.56424 12.5678 4.77168 12.6576 4.9917 12.6576H24.9439C25.3085 12.6576 25.4908 12.2085 25.2331 11.9454L21.2917 7.92229Z" fill="#E4EAF2"/>
</g>
<defs>
<clipPath id="clip0_74_133">
<rect width="25" height="20" fill="white" transform="translate(0.352524 0.216064)"/>
</clipPath>
</defs>
</svg>
