<svg version="1.1" id="Layer_1" xmlns="http://www.w3.org/2000/svg" xmlns:xlink="http://www.w3.org/1999/xlink" x="0px" y="0px"
	 width="100%" viewBox="550 450 1800 250" enable-background="new 0 0 2786 1120" xml:space="preserve">
<path fill="#000000" opacity="1.000000" stroke="none" 
	d="
M1854.000000,610.000000 
	C1854.000000,581.523743 1854.000000,553.547485 1854.000000,525.285889 
	C1862.629272,525.285889 1871.044067,525.285889 1880.035278,525.285889 
	C1880.817871,530.680603 1881.622314,536.225769 1882.558594,542.680176 
	C1892.432495,529.628967 1904.684082,522.020325 1921.002441,521.949707 
	C1936.973267,521.880493 1950.461914,525.947205 1957.700684,542.349060 
	C1960.219971,539.638428 1962.615356,537.067017 1965.004395,534.489624 
	C1978.101318,520.360168 2008.070190,517.670898 2023.522827,528.800537 
	C2031.168091,534.306885 2034.663940,541.973633 2036.906616,550.499695 
	C2037.765625,553.765015 2037.944336,557.282166 2037.955200,560.686096 
	C2038.037109,586.351379 2038.000000,612.016968 2038.000000,637.682495 
	C2038.000000,639.309998 2038.000000,640.937500 2038.000000,642.998962 
	C2028.204468,642.998962 2018.755127,642.945801 2009.306885,643.025818 
	C2005.654175,643.056763 2005.994385,640.629700 2005.995239,638.254883 
	C2006.003174,615.255920 2005.954590,592.256897 2006.025879,569.258118 
	C2006.049194,561.732239 2004.658569,554.531860 1997.245605,551.264099 
	C1987.549194,546.989624 1978.945312,548.844055 1971.486572,555.077759 
	C1964.671387,560.773743 1961.964111,568.339111 1961.983887,577.091431 
	C1962.032959,598.892395 1962.000000,620.693542 1962.000000,642.998169 
	C1952.114746,642.998169 1942.507324,643.036072 1932.900635,642.979309 
	C1929.130127,642.957031 1930.027344,640.007019 1930.023804,637.848694 
	C1929.985352,614.683167 1929.928711,591.517151 1930.041870,568.352112 
	C1930.077637,561.047791 1927.502197,554.531250 1921.311523,551.417480 
	C1914.499023,547.990845 1906.722656,547.909668 1899.502686,551.992188 
	C1889.924805,557.407776 1886.004272,565.843628 1886.001709,576.481140 
	C1885.996216,598.459412 1886.000000,620.437744 1886.000000,642.707703 
	C1875.391724,642.707703 1864.985474,642.707703 1854.000000,642.707703 
	C1854.000000,632.028870 1854.000000,621.264465 1854.000000,610.000000 
z"/>
<path fill="#000000" opacity="1.000000" stroke="none" 
	d="
M685.008118,611.074402 
	C692.441101,625.877197 691.884338,640.305359 683.411011,653.788574 
	C679.156494,660.558533 671.097961,663.157410 663.496338,664.849060 
	C657.334839,666.220215 650.901733,666.784363 644.573425,666.908630 
	C629.932617,667.196167 615.282349,667.000000 600.318237,667.000000 
	C600.318237,639.449463 600.318237,612.052124 600.318237,584.253418 
	C611.871704,584.253418 623.618103,584.253418 634.760071,584.253418 
	C628.265076,581.011963 621.245483,577.973267 614.698730,574.129578 
	C605.490540,568.723328 601.405457,559.621338 600.199280,549.582397 
	C599.445984,543.312927 600.560120,536.806152 600.960144,530.413635 
	C601.785156,517.230408 615.386719,508.124084 627.190918,507.187042 
	C647.903687,505.542816 668.707520,505.046417 689.760742,504.055664 
	C689.760742,532.710449 689.760742,560.106873 689.760742,587.836121 
	C678.633728,587.836121 667.555298,587.836121 656.476929,587.836121 
	C668.266479,592.779175 678.669434,599.140320 685.008118,611.074402 
z"/>
<path fill="#000000" opacity="1.000000" stroke="none" 
	d="
M703.000000,591.000000 
	C703.000000,562.139587 703.000000,533.779114 703.000000,505.208099 
	C723.441528,505.208099 744.506042,505.208099 765.967834,505.208099 
	C765.967834,513.428040 765.967834,521.505554 765.967834,529.964844 
	C781.095276,529.964844 795.833130,529.964844 811.960999,529.964844 
	C810.863708,540.508850 811.130127,550.899841 808.486694,560.488708 
	C803.854065,577.292969 787.228394,589.520996 769.407227,589.003662 
	C768.439026,588.975525 767.469238,589.000061 766.114746,589.000061 
	C766.114746,615.006714 766.114746,640.743530 766.114746,667.076538 
	C747.812256,666.103088 729.878235,665.923889 716.467834,651.025024 
	C709.050659,642.784668 705.352173,632.849426 704.171265,622.210449 
	C703.044006,612.055359 703.333313,601.743164 703.000000,591.000000 
z"/>
<path fill="#000000" opacity="1.000000" stroke="none" 
	d="
M1160.000000,658.000000 
	C1160.000000,666.473999 1160.000000,674.447998 1160.000000,682.710327 
	C1149.390381,682.710327 1138.988281,682.710327 1128.291870,682.710327 
	C1128.291870,630.408508 1128.291870,578.025208 1128.291870,525.320740 
	C1136.546753,525.320740 1144.952637,525.320740 1153.976074,525.320740 
	C1154.787231,530.283020 1155.638794,535.493042 1156.572876,541.208252 
	C1157.408325,540.521240 1158.358154,540.017761 1158.920288,539.235596 
	C1165.619995,529.913452 1174.608032,524.714905 1185.992432,522.896118 
	C1196.882446,521.156311 1207.318970,521.856079 1217.560303,525.937134 
	C1232.851196,532.030334 1240.752808,544.428833 1243.770752,559.520752 
	C1247.706421,579.201660 1248.284424,599.094360 1239.999878,618.167908 
	C1232.888672,634.539368 1219.579712,644.233459 1201.492554,644.977966 
	C1193.309937,645.314819 1184.927124,645.644592 1177.448608,641.862000 
	C1171.265015,638.734375 1165.667480,634.447937 1160.000000,630.797241 
	C1160.000000,638.787537 1160.000000,648.143799 1160.000000,658.000000 
M1196.876709,616.647644 
	C1204.963745,614.441162 1210.215942,608.944214 1211.821655,601.089539 
	C1213.379028,593.471619 1213.866943,585.528015 1213.880615,577.725830 
	C1213.903076,564.857178 1207.954468,551.535461 1192.457031,549.542236 
	C1177.323975,547.595947 1164.818115,554.618774 1160.965698,569.223633 
	C1158.760254,577.585022 1158.270386,586.070374 1160.138184,594.388245 
	C1162.232788,603.717712 1166.672729,615.083374 1180.217529,616.922241 
	C1185.416260,617.628113 1190.796265,616.998169 1196.876709,616.647644 
z"/>
<path fill="#000000" opacity="1.000000" stroke="none" 
	d="
M1793.000000,566.046570 
	C1792.990112,554.194031 1788.114380,549.187134 1776.936890,546.819519 
	C1769.712036,545.289062 1763.045898,546.620911 1756.254272,548.068298 
	C1750.106567,549.378357 1746.207520,554.351257 1745.868286,560.772278 
	C1735.781372,560.772278 1725.678833,560.772278 1715.575439,560.775146 
	C1711.918457,545.422363 1722.637939,533.497375 1734.952393,528.067139 
	C1749.243774,521.765198 1764.494873,521.238403 1779.706909,522.149048 
	C1789.324463,522.724731 1798.944946,524.522339 1807.600220,529.259155 
	C1817.153442,534.487305 1823.413574,542.445435 1823.875854,553.472168 
	C1824.660889,572.195129 1824.716797,590.950073 1824.978271,609.692932 
	C1825.104370,618.723450 1826.232666,619.985291 1835.082397,619.999695 
	C1836.553223,620.002075 1838.024170,620.000000 1839.999390,620.000000 
	C1839.999390,626.698364 1840.104858,633.144653 1839.895142,639.580750 
	C1839.860352,640.647400 1838.636475,642.329041 1837.645386,642.610229 
	C1826.982666,645.634766 1815.997803,647.362122 1805.894897,641.739746 
	C1801.325928,639.197205 1798.197144,634.066528 1794.450195,630.146729 
	C1789.831909,633.047058 1784.334473,637.501648 1778.072632,640.146606 
	C1771.964478,642.726624 1765.137329,644.310974 1758.513672,644.793945 
	C1749.274048,645.467529 1740.046387,645.243469 1730.849365,642.187988 
	C1714.325562,636.698242 1708.609985,621.696777 1710.633057,605.481812 
	C1712.149292,593.329529 1717.898804,584.616333 1728.377319,579.436340 
	C1737.796631,574.779846 1748.149658,572.369446 1758.732300,572.071045 
	C1769.953247,571.754639 1781.190186,572.000000 1792.704712,572.000000 
	C1792.845825,569.378418 1792.922852,567.946960 1793.000000,566.046570 
M1742.853271,604.664307 
	C1739.611084,611.638489 1744.924561,617.532837 1749.986328,618.837830 
	C1761.057007,621.692078 1771.990601,620.609802 1781.875854,614.534180 
	C1791.404541,608.677856 1794.825073,599.725769 1792.032471,590.103455 
	C1781.048096,591.388733 1769.808350,592.260620 1758.748169,594.171448 
	C1752.547119,595.242676 1746.065308,597.114502 1742.853271,604.664307 
z"/>
<path fill="#000000" opacity="1.000000" stroke="none" 
	d="
M1651.588257,616.787720 
	C1657.385010,612.971069 1662.013306,608.781128 1662.162109,601.262939 
	C1672.523071,601.262939 1682.948486,601.262939 1693.759277,601.262939 
	C1695.011841,609.869934 1691.697266,617.454773 1687.091919,624.197815 
	C1678.603394,636.626343 1665.693604,641.952759 1651.315796,643.947449 
	C1636.454834,646.009277 1621.682739,645.994812 1607.195557,641.069031 
	C1588.163818,634.598083 1577.829468,621.049377 1573.943481,601.744202 
	C1571.286377,588.544617 1571.827759,575.597107 1574.767578,562.495178 
	C1579.205688,542.715210 1591.287109,530.515259 1610.462280,525.036316 
	C1622.744141,521.527100 1635.218506,521.145203 1647.883911,522.930847 
	C1660.057861,524.647278 1671.084961,528.659485 1679.885986,537.464722 
	C1687.312866,544.895081 1691.304810,554.325500 1692.824585,564.466919 
	C1694.108887,573.037964 1693.953003,581.824829 1694.458252,590.943237 
	C1664.242432,590.943237 1634.824829,590.943237 1605.432007,590.943237 
	C1604.535278,607.116394 1613.938599,618.863098 1629.198242,620.226440 
	C1637.069702,620.929626 1644.218872,620.247986 1651.588257,616.787720 
M1616.534790,570.000000 
	C1631.292358,570.000000 1646.049927,570.000000 1660.827148,570.000000 
	C1659.985596,554.927002 1653.500610,547.829956 1635.756714,546.298340 
	C1628.459229,545.668335 1620.541504,547.262695 1614.383179,552.305786 
	C1608.936768,556.765808 1606.491089,562.997864 1605.487427,570.000000 
	C1608.909058,570.000000 1612.229370,570.000000 1616.534790,570.000000 
z"/>
<path fill="#000000" opacity="1.000000" stroke="none" 
	d="
M1321.785645,620.020630 
	C1333.382446,623.380371 1353.325073,614.899475 1353.240967,601.000000 
	C1358.545410,601.000000 1363.852295,601.000000 1369.159180,601.000000 
	C1374.295166,601.000000 1379.431030,601.000000 1385.125854,601.000000 
	C1384.559570,615.694641 1379.037842,627.073303 1366.781128,635.055359 
	C1356.734863,641.597900 1345.638306,644.519897 1333.861816,644.944580 
	C1321.579224,645.387451 1309.274902,645.389404 1297.495483,640.992676 
	C1279.270264,634.190186 1268.699829,621.112122 1264.932495,602.060181 
	C1261.926147,586.856750 1262.335449,571.873901 1267.088745,557.195007 
	C1272.142700,541.587524 1282.569580,531.010132 1298.393677,525.995972 
	C1311.211182,521.934570 1324.260498,520.452148 1337.506958,523.071350 
	C1344.392456,524.432678 1351.395630,525.928223 1357.855591,528.564148 
	C1372.228394,534.428772 1379.846802,546.334839 1382.811157,560.915344 
	C1384.758545,570.493713 1384.901245,580.439026 1385.914429,590.861816 
	C1355.367676,590.861816 1325.828979,590.861816 1296.311401,590.861816 
	C1295.834229,607.364258 1304.914307,620.131042 1321.785645,620.020630 
M1312.503418,570.000000 
	C1325.599976,570.000000 1338.696533,570.000000 1351.810669,570.000000 
	C1351.023071,555.059143 1344.604980,547.839966 1326.773438,546.299500 
	C1319.478760,545.669312 1311.638550,547.347473 1305.373657,552.267273 
	C1299.719849,556.707214 1297.680908,563.088013 1296.417847,570.000000 
	C1301.541748,570.000000 1306.523804,570.000000 1312.503418,570.000000 
z"/>
<path fill="#000000" opacity="1.000000" stroke="none" 
	d="
M865.177734,538.326050 
	C874.177368,528.386108 885.427124,524.392578 898.100586,522.902832 
	C911.591003,521.317017 924.948242,521.107178 938.010620,525.070923 
	C949.971069,528.700317 960.688416,534.275635 964.131042,547.738403 
	C965.085876,551.472229 964.955200,555.483521 965.354187,559.703308 
	C954.743408,559.703308 944.661682,559.703308 934.560608,559.703308 
	C933.016052,551.040344 927.038330,545.862610 917.973511,546.071167 
	C911.282654,546.224976 904.551575,546.670959 897.945068,547.683228 
	C893.940857,548.296753 889.934326,550.390137 890.101807,555.375854 
	C890.255676,559.952332 893.817139,562.014160 897.815247,562.979614 
	C909.219482,565.733643 920.723389,568.097351 932.063538,571.087097 
	C939.310547,572.997742 946.472656,575.408813 953.426758,578.207031 
	C961.767700,581.563171 966.775330,588.667114 967.717346,597.051331 
	C969.234375,610.553040 968.880188,624.160767 956.650085,633.854797 
	C949.235962,639.731323 940.567627,642.852173 931.418701,643.840271 
	C921.748596,644.884644 911.898682,645.399597 902.205750,644.824036 
	C888.479431,644.008972 875.586975,640.142578 864.989197,630.550598 
	C857.422058,623.701660 854.824036,615.324463 856.308655,605.219360 
	C866.437195,605.219360 876.529968,605.219360 886.615723,605.219360 
	C887.733521,616.243286 894.244934,619.700867 903.853821,620.757446 
	C911.612549,621.610474 919.638611,620.654419 927.483582,619.872986 
	C932.356384,619.387573 936.796387,614.801514 936.999878,611.402039 
	C937.336304,605.782043 935.310425,602.733398 928.387207,600.927063 
	C917.035095,597.965149 905.541077,595.535034 894.075378,593.024414 
	C884.691284,590.969604 875.942017,587.491272 868.247131,581.708252 
	C856.904053,573.183472 856.184814,550.937500 863.420837,541.042297 
	C863.984558,540.271423 864.432861,539.416077 865.177734,538.326050 
z"/>
<path fill="#000000" opacity="1.000000" stroke="none" 
	d="
M1052.505493,615.815247 
	C1065.664062,610.148132 1069.784058,599.368042 1069.935669,586.609985 
	C1070.176758,566.291992 1070.000000,545.969055 1070.000000,525.324280 
	C1080.208740,525.324280 1090.283081,525.324280 1100.679932,525.324280 
	C1100.679932,564.222290 1100.679932,603.294006 1100.679932,642.683228 
	C1092.443726,642.683228 1084.036377,642.683228 1075.378418,642.683228 
	C1074.521973,637.038208 1073.639771,631.222839 1072.756958,625.403931 
	C1067.833008,629.659363 1063.455200,634.553467 1058.076660,637.778809 
	C1052.704102,641.000427 1046.474731,643.893555 1040.364380,644.552856 
	C1028.060669,645.880310 1015.626526,646.018127 1004.570435,638.261230 
	C995.824341,632.124939 990.597107,623.561707 990.249084,613.536072 
	C989.234680,584.313599 989.371277,555.051208 989.070068,525.804321 
	C989.068787,525.680481 989.261658,525.554688 989.539612,525.214844 
	C999.767944,525.214844 1010.172852,525.214844 1021.000000,525.214844 
	C1021.000000,533.483276 1021.000000,541.601929 1021.000000,549.720520 
	C1021.000000,566.220093 1021.119934,582.720886 1020.950073,599.218750 
	C1020.863708,607.614624 1026.812256,615.911194 1036.959473,617.278320 
	C1042.394043,618.010559 1047.144043,617.115540 1052.505493,615.815247 
z"/>
<path fill="#000000" opacity="1.000000" stroke="none" 
	d="
M1501.000000,553.166504 
	C1500.056641,551.787415 1499.157593,550.184326 1498.162476,550.122070 
	C1493.686157,549.842407 1489.182373,550.000183 1484.344482,550.000183 
	C1484.344482,541.836365 1484.344482,533.760010 1484.344482,525.000000 
	C1488.680786,525.000000 1493.280884,524.784058 1497.849731,525.069275 
	C1501.414795,525.291809 1502.595703,523.953735 1503.092041,520.485535 
	C1504.488159,510.729919 1506.321533,501.036896 1508.005859,491.182617 
	C1516.346680,491.182617 1524.448120,491.182617 1532.950928,491.182617 
	C1532.950928,502.410919 1532.950928,513.488647 1532.950928,524.959473 
	C1541.084473,524.959473 1548.831787,524.959473 1556.783447,524.959473 
	C1556.783447,533.431213 1556.783447,541.502991 1556.783447,549.976807 
	C1548.896851,549.976807 1541.150391,549.976807 1533.000000,549.976807 
	C1533.000000,568.326294 1533.367920,586.287720 1532.875732,604.225586 
	C1532.525513,616.990967 1536.385986,620.552673 1548.984863,620.015198 
	C1551.459717,619.909607 1553.942993,620.000000 1556.998535,620.000000 
	C1556.998535,626.796143 1557.160156,633.403992 1556.834351,639.987793 
	C1556.781982,641.046082 1554.640015,642.719666 1553.316895,642.877869 
	C1545.688354,643.790161 1538.024780,644.742981 1530.355713,644.918152 
	C1512.032715,645.336670 1501.421753,632.632935 1501.094482,615.649536 
	C1500.696411,594.990723 1501.000000,574.318420 1501.000000,553.166504 
z"/>
<path fill="#000000" opacity="1.000000" stroke="none" 
	d="
M1426.850830,525.000000 
	C1433.844238,525.006470 1433.710571,525.013489 1434.050781,531.488037 
	C1434.251099,535.303284 1434.956055,539.092041 1435.544678,543.771362 
	C1438.083252,539.789734 1440.036865,536.421570 1442.281006,533.259583 
	C1451.371338,520.450562 1465.923706,520.470398 1476.717529,523.451416 
	C1477.685303,523.718628 1478.878174,525.438171 1478.900024,526.505066 
	C1479.077271,535.138733 1478.999512,543.777527 1478.999512,552.463745 
	C1472.799561,552.986694 1466.794434,553.438416 1460.800781,554.010742 
	C1450.144653,555.028137 1441.125854,563.515381 1440.108765,574.379272 
	C1439.249268,583.560059 1439.155273,592.827026 1439.042358,602.059753 
	C1438.877686,615.518982 1439.000000,628.981750 1439.000000,642.720947 
	C1428.372070,642.720947 1417.973755,642.720947 1407.286621,642.720947 
	C1407.286621,603.739441 1407.286621,564.696960 1407.286621,525.000000 
	C1413.535767,525.000000 1419.953613,525.000000 1426.850830,525.000000 
z"/>
<path fill="#B5B5B5" opacity="1.000000" stroke="none" 
	d="
M2303.954346,511.974487 
	C2303.666992,515.749329 2303.362305,519.522949 2303.101807,523.299622 
	C2303.010254,524.626648 2303.000977,525.961182 2302.997803,527.292358 
	C2302.984863,532.842651 2302.867188,538.396118 2303.012695,543.942505 
	C2303.261719,553.435547 2303.808105,562.922119 2303.960205,572.415710 
	C2304.018066,576.016541 2303.029785,579.631775 2303.060547,583.235840 
	C2303.099609,587.845886 2304.020996,592.454956 2303.968994,597.057739 
	C2303.855713,607.050171 2303.365723,617.038330 2302.782715,627.692261 
	C2301.371582,629.252441 2300.207520,630.148499 2299.029297,630.658691 
	C2298.997803,629.502075 2298.980469,628.731262 2298.968750,627.494263 
	C2298.982910,588.686218 2298.991455,550.344360 2299.005371,511.569885 
	C2298.980957,509.138763 2298.951416,507.140228 2299.321533,505.125366 
	C2300.478516,506.112579 2301.319580,507.065033 2301.971191,508.133087 
	C2302.719482,509.360138 2303.300537,510.689545 2303.954346,511.974487 
z"/>
<path fill="#A2A2A3" opacity="1.000000" stroke="none" 
	d="
M2228.966064,636.895508 
	C2224.769531,637.553528 2220.546875,638.079346 2216.381104,638.894226 
	C2203.016846,641.508179 2189.706055,644.407227 2176.309814,646.839233 
	C2168.698975,648.220825 2160.984375,649.468628 2153.276611,649.774292 
	C2141.141357,650.255554 2128.972656,649.917419 2116.818604,649.847412 
	C2115.557861,649.840149 2114.300049,649.300293 2113.282715,648.569580 
	C2116.597168,648.086670 2119.710449,648.311096 2122.723633,647.863586 
	C2123.921875,647.685547 2124.899170,646.019592 2126.447754,645.004272 
	C2137.825684,644.965088 2148.733398,644.964661 2159.640869,644.929749 
	C2161.705566,644.923157 2164.274414,645.518799 2164.412598,641.980225 
	C2166.864502,641.943909 2168.882568,641.907410 2171.357910,641.922241 
	C2172.967529,641.977600 2174.138672,642.119019 2175.269531,641.963989 
	C2184.887695,640.645935 2194.507812,639.332336 2204.094238,637.807373 
	C2204.866211,637.684570 2205.389160,635.996277 2206.393066,635.020325 
	C2207.489014,634.987427 2208.219971,634.969666 2209.408203,634.985107 
	C2212.895996,634.989868 2215.926514,634.961365 2219.408203,634.951050 
	C2222.894775,635.611328 2225.930420,636.253418 2228.966064,636.895508 
z"/>
<path fill="#8B8890" opacity="1.000000" stroke="none" 
	d="
M2303.791016,632.060608 
	C2303.791016,634.836243 2303.791016,637.611877 2303.791016,641.211121 
	C2281.915039,637.599121 2260.647949,632.683105 2238.115479,635.491577 
	C2235.640137,634.181152 2231.804199,636.589417 2232.497803,632.073608 
	C2237.263184,631.996033 2241.568115,631.931274 2246.318115,631.911987 
	C2251.327637,631.641052 2255.910156,631.470886 2260.441406,630.894226 
	C2261.438232,630.767395 2262.251465,629.197510 2263.582520,628.247131 
	C2266.629395,628.225586 2269.243164,628.249023 2271.914062,628.658569 
	C2272.596436,629.682678 2273.166748,630.801025 2273.855713,630.879822 
	C2277.929932,631.346252 2282.031738,631.571350 2286.540039,631.890869 
	C2288.613525,631.977356 2290.270996,632.050598 2291.953125,632.531128 
	C2294.852783,636.220398 2299.470947,635.877197 2303.791016,632.060608 
z"/>
<path fill="#666683" opacity="1.000000" stroke="none" 
	d="
M2093.260010,581.917236 
	C2093.207764,568.583862 2093.155273,555.250549 2093.380859,541.140869 
	C2093.776367,529.857910 2093.894043,519.351318 2094.011475,508.844666 
	C2106.956543,510.533569 2119.871826,512.539551 2132.860596,513.767700 
	C2138.695801,514.319458 2144.676270,513.276855 2150.594238,513.037781 
	C2153.080322,512.937317 2155.574951,513.044250 2158.532227,513.397827 
	C2158.986572,514.126709 2158.974365,514.514771 2158.531494,514.935608 
	C2156.086670,515.019531 2154.072510,515.070618 2151.588623,515.070251 
	C2139.050537,515.069092 2126.982178,515.119446 2114.465088,515.140869 
	C2110.723145,515.031738 2107.430176,514.951538 2104.086670,514.476685 
	C2101.457520,513.136353 2098.879150,512.190674 2095.881592,511.091370 
	C2095.881592,535.638672 2095.881592,558.765808 2095.554688,581.926392 
	C2094.571777,581.945618 2093.915771,581.931396 2093.260010,581.917236 
z"/>
<path fill="#8B8890" opacity="1.000000" stroke="none" 
	d="
M2093.165527,582.383972 
	C2093.915771,581.931396 2094.571777,581.945618 2095.598145,582.404663 
	C2095.975342,599.211487 2095.988281,615.573425 2095.986328,631.935425 
	C2095.985596,638.983398 2098.772705,641.725525 2106.493652,641.881470 
	C2107.570312,641.915894 2108.288330,641.934143 2109.017578,642.370850 
	C2110.232422,643.521851 2111.386475,644.763977 2112.649170,644.886169 
	C2115.753662,645.186462 2118.907715,644.971680 2122.435791,644.970520 
	C2123.878662,644.994934 2124.927979,645.012939 2125.977051,645.030945 
	C2124.899170,646.019592 2123.921875,647.685547 2122.723633,647.863586 
	C2119.710449,648.311096 2116.597168,648.086670 2113.031006,648.256165 
	C2106.997559,647.242310 2101.215820,646.707092 2096.048584,644.637207 
	C2094.248291,643.916077 2093.251953,639.435974 2093.127441,636.617920 
	C2092.778564,628.711426 2093.075684,620.776489 2093.299805,612.326904 
	C2093.376221,611.529785 2093.270996,611.258484 2093.165771,610.987244 
	C2093.134277,601.608398 2093.102783,592.229553 2093.165527,582.383972 
z"/>
<path fill="#C5A19E" opacity="1.000000" stroke="none" 
	d="
M2304.000977,511.548279 
	C2303.300537,510.689545 2302.719482,509.360138 2301.971191,508.133087 
	C2301.319580,507.065033 2300.478516,506.112579 2298.926758,505.085724 
	C2294.188477,504.056000 2290.258057,502.245514 2286.298340,502.179901 
	C2267.354004,501.866241 2248.401611,501.973755 2229.453857,502.140106 
	C2228.266602,502.150543 2227.094727,503.936554 2225.458496,504.912415 
	C2221.016602,505.057587 2216.090820,503.763672 2213.258057,505.635956 
	C2208.521484,508.766510 2203.903076,508.780792 2198.918213,508.325439 
	C2198.946289,507.288544 2198.950928,506.597107 2198.955322,505.905640 
	C2210.332031,503.914581 2221.648193,500.819672 2233.099854,500.187866 
	C2250.836670,499.209290 2268.668213,499.774475 2286.455566,499.995850 
	C2290.986084,500.052246 2295.623779,500.850464 2299.990723,502.088593 
	C2304.362061,503.327850 2304.439453,507.309296 2304.000977,511.548279 
z"/>
<path fill="#8B8890" opacity="1.000000" stroke="none" 
	d="
M2198.539062,505.934906 
	C2198.950928,506.597107 2198.946289,507.288544 2198.544434,508.415314 
	C2193.074707,509.874237 2188.014893,510.967896 2182.923340,511.885132 
	C2181.033936,512.225525 2178.670166,511.549591 2178.313965,514.715454 
	C2173.929688,514.861206 2169.984375,514.987244 2165.599854,515.064453 
	C2163.094482,514.978027 2161.028320,514.940369 2158.962402,514.902771 
	C2158.974365,514.514771 2158.986572,514.126709 2158.988770,513.447632 
	C2172.027100,510.759125 2185.074707,508.361664 2198.539062,505.934906 
z"/>
<path fill="#8B8890" opacity="1.000000" stroke="none" 
	d="
M2093.794922,508.566589 
	C2093.894043,519.351318 2093.776367,529.857910 2093.381348,540.670898 
	C2092.812744,537.930664 2092.321777,534.887573 2092.270020,531.837097 
	C2092.157715,525.214355 2092.205078,518.586365 2092.346924,511.963959 
	C2092.373535,510.730621 2093.148682,509.513306 2093.794922,508.566589 
z"/>
<path fill="#B5B5B5" opacity="1.000000" stroke="none" 
	d="
M2232.037109,632.086426 
	C2231.804199,636.589417 2235.640137,634.181152 2237.688965,635.513550 
	C2235.252930,636.182129 2232.552002,636.595459 2229.408691,636.952148 
	C2225.930420,636.253418 2222.894775,635.611328 2219.427002,634.593384 
	C2218.993408,633.498108 2218.991699,632.778809 2219.453613,632.029785 
	C2223.892578,631.890442 2227.868408,631.780823 2231.896240,631.773193 
	C2231.948242,631.875305 2232.037109,632.086426 2232.037109,632.086426 
z"/>
<path fill="#A2A2A3" opacity="1.000000" stroke="none" 
	d="
M2303.867676,631.692505 
	C2299.470947,635.877197 2294.852783,636.220398 2292.377930,632.490417 
	C2294.866455,631.709778 2296.955078,631.377136 2299.043457,631.044556 
	C2300.207520,630.148499 2301.371582,629.252441 2302.815918,628.140869 
	C2303.378906,629.058350 2303.661865,630.191406 2303.867676,631.692505 
z"/>
<path fill="#A2A2A3" opacity="1.000000" stroke="none" 
	d="
M2093.123291,611.245117 
	C2093.270996,611.258484 2093.376221,611.529785 2093.345459,611.905273 
	C2093.166748,611.840637 2093.123779,611.671814 2093.123291,611.245117 
z"/>
<path fill="#D7D7D7" opacity="1.000000" stroke="none" 
	d="
M2299.000000,512.002441 
	C2298.991455,550.344360 2298.982910,588.686218 2298.517822,627.509155 
	C2295.082520,627.582886 2292.048340,627.407349 2289.139404,626.709717 
	C2285.523438,625.842529 2282.029053,623.692566 2278.450195,623.617371 
	C2271.979492,623.481445 2265.484619,624.472961 2259.038818,624.634033 
	C2260.385742,619.978333 2261.735352,615.694275 2262.982910,611.380615 
	C2263.530273,609.487366 2263.868408,607.533569 2264.304443,605.607910 
	C2265.202148,601.644226 2266.737061,597.703186 2266.876465,593.713196 
	C2267.242432,583.253113 2267.143555,572.769226 2266.961914,562.299500 
	C2266.756348,550.449341 2268.651611,538.363159 2263.249023,527.016846 
	C2262.658936,525.778015 2263.204590,524.044922 2262.974854,522.580139 
	C2262.031006,516.568970 2261.728760,510.211487 2254.963867,507.160217 
	C2254.427002,506.917999 2254.311523,505.741211 2254.466309,504.992249 
	C2265.080078,504.116241 2274.137939,506.196350 2281.022461,514.832031 
	C2281.484131,514.279053 2281.982910,513.861816 2282.254395,513.328735 
	C2285.723877,506.519714 2291.088379,505.846222 2296.664062,511.453247 
	C2297.142578,511.934601 2298.207520,511.833099 2299.000000,512.002441 
z"/>
<path fill="#C3C3C4" opacity="1.000000" stroke="none" 
	d="
M2299.005371,511.569885 
	C2298.207520,511.833099 2297.142578,511.934601 2296.664062,511.453247 
	C2291.088379,505.846222 2285.723877,506.519714 2282.254395,513.328735 
	C2281.982910,513.861816 2281.484131,514.279053 2281.022461,514.832031 
	C2274.137939,506.196350 2265.080078,504.116241 2253.997803,504.988190 
	C2245.711670,504.998383 2238.360840,505.006195 2230.586426,505.004822 
	C2228.747559,504.962585 2227.331543,504.929535 2225.915771,504.896484 
	C2227.094727,503.936554 2228.266602,502.150543 2229.453857,502.140106 
	C2248.401611,501.973755 2267.354004,501.866241 2286.298340,502.179901 
	C2290.258057,502.245514 2294.188477,504.056000 2298.527344,505.102051 
	C2298.951416,507.140228 2298.980957,509.138763 2299.005371,511.569885 
z"/>
<path fill="#C3C3C4" opacity="1.000000" stroke="none" 
	d="
M2259.000000,624.993774 
	C2265.484619,624.472961 2271.979492,623.481445 2278.450195,623.617371 
	C2282.029053,623.692566 2285.523438,625.842529 2289.139404,626.709717 
	C2292.048340,627.407349 2295.082520,627.582886 2298.512207,627.975281 
	C2298.980469,628.731262 2298.997803,629.502075 2299.029297,630.658691 
	C2296.955078,631.377136 2294.866455,631.709778 2292.353271,632.083130 
	C2290.270996,632.050598 2288.613525,631.977356 2286.484375,631.501160 
	C2285.443604,630.431885 2284.929443,629.249756 2284.296875,629.182800 
	C2280.164307,628.744629 2276.006592,628.548035 2271.856934,628.272522 
	C2269.243164,628.249023 2266.629395,628.225586 2263.124268,628.157715 
	C2259.498291,628.088074 2256.763916,628.062866 2254.021973,627.660400 
	C2254.022461,626.531494 2254.030518,625.779785 2254.452148,625.027344 
	C2256.243408,625.015686 2257.621826,625.004761 2259.000000,624.993774 
z"/>
<path fill="#E1E1E1" opacity="1.000000" stroke="none" 
	d="
M2170.900879,641.870972 
	C2168.882568,641.907410 2166.864502,641.943909 2163.946777,641.960449 
	C2153.375977,641.938049 2143.704590,641.935486 2134.015625,641.568726 
	C2133.510986,640.409912 2133.210938,639.200745 2132.508789,638.883911 
	C2123.807861,634.958679 2121.035156,627.714661 2120.984131,618.846252 
	C2120.975586,617.365601 2121.292236,615.491577 2120.542969,614.473145 
	C2116.926514,609.558716 2118.129150,604.000244 2118.029541,598.635010 
	C2117.906250,591.992126 2117.564453,585.309937 2118.101318,578.708435 
	C2118.929443,568.522461 2115.156738,557.890625 2120.908691,548.143005 
	C2121.276123,547.520630 2120.820312,546.466309 2121.026367,545.686584 
	C2122.484131,540.166504 2123.646973,534.525635 2125.669922,529.215088 
	C2126.760986,526.350708 2129.346191,524.319458 2133.190674,524.922607 
	C2135.783936,525.329529 2138.542480,525.281006 2141.129150,524.849365 
	C2142.215088,524.668152 2143.047852,522.970947 2144.365723,521.965332 
	C2145.476074,521.966187 2146.216064,521.964722 2147.405029,521.978027 
	C2150.235840,521.996826 2152.617920,522.000854 2154.947510,522.393311 
	C2153.912842,523.515198 2152.749268,525.036011 2151.977051,524.858032 
	C2145.562500,523.379333 2144.279785,528.173889 2142.365479,532.310608 
	C2141.749023,533.642517 2140.905273,534.872253 2140.326172,536.217712 
	C2138.188477,541.183228 2134.875244,546.031921 2134.270264,551.190369 
	C2132.827637,563.499573 2132.558105,575.955017 2132.028809,588.360535 
	C2131.328369,604.775513 2134.261963,620.268311 2143.490967,634.316528 
	C2145.332031,637.119019 2146.959961,638.149475 2150.150391,638.065735 
	C2157.138672,637.882141 2164.136719,638.070618 2171.103027,638.485046 
	C2171.017090,639.865662 2170.958984,640.868286 2170.900879,641.870972 
z"/>
<path fill="#C3C3C4" opacity="1.000000" stroke="none" 
	d="
M2134.033203,641.932983 
	C2143.704590,641.935486 2153.375977,641.938049 2163.513184,641.960327 
	C2164.274414,645.518799 2161.705566,644.923157 2159.640869,644.929749 
	C2148.733398,644.964661 2137.825684,644.965088 2126.447754,645.004272 
	C2124.927979,645.012939 2123.878662,644.994934 2122.414062,644.602417 
	C2121.998779,643.488708 2121.999268,642.749573 2122.269043,641.719238 
	C2126.369629,641.596252 2130.201416,641.764587 2134.033203,641.932983 
z"/>
<path fill="#C3C3C4" opacity="1.000000" stroke="none" 
	d="
M2171.357910,641.922241 
	C2170.958984,640.868286 2171.017090,639.865662 2171.556885,638.474609 
	C2176.596191,638.052002 2181.169678,638.215088 2185.700684,637.850952 
	C2186.899170,637.754700 2187.966797,636.033752 2189.521973,635.061401 
	C2191.962646,635.028931 2193.975586,634.993896 2196.443359,634.981262 
	C2199.941162,635.014221 2202.984619,635.024780 2206.027832,635.035400 
	C2205.389160,635.996277 2204.866211,637.684570 2204.094238,637.807373 
	C2194.507812,639.332336 2184.887695,640.645935 2175.269531,641.963989 
	C2174.138672,642.119019 2172.967529,641.977600 2171.357910,641.922241 
z"/>
<path fill="#EBEBEB" opacity="1.000000" stroke="none" 
	d="
M2206.392822,635.020264 
	C2202.984619,635.024780 2199.941162,635.014221 2196.461426,634.580933 
	C2198.081787,631.554749 2204.733154,630.441406 2208.996338,632.358826 
	C2208.984863,633.470459 2208.968018,634.211182 2208.951172,634.951843 
	C2208.219971,634.969666 2207.489014,634.987427 2206.392822,635.020264 
z"/>
<path fill="#C3C3C4" opacity="1.000000" stroke="none" 
	d="
M2209.408203,634.985107 
	C2208.968018,634.211182 2208.984863,633.470459 2209.394531,632.366150 
	C2210.846924,631.957458 2211.906006,631.912354 2213.395752,631.913818 
	C2215.552246,631.906372 2217.278076,631.852295 2219.005859,631.863770 
	C2219.007568,631.929382 2218.990234,632.059448 2218.990234,632.059448 
	C2218.991699,632.778809 2218.993408,633.498108 2218.976074,634.575195 
	C2215.926514,634.961365 2212.895996,634.989868 2209.408203,634.985107 
z"/>
<path fill="#A2A2A3" opacity="1.000000" stroke="none" 
	d="
M2254.029297,628.037598 
	C2256.763916,628.062866 2259.498291,628.088074 2262.691162,628.202759 
	C2262.251465,629.197510 2261.438232,630.767395 2260.441406,630.894226 
	C2255.910156,631.470886 2251.327637,631.641052 2246.355957,631.555176 
	C2245.986084,630.185974 2246.023926,629.219116 2246.498535,628.200867 
	C2249.300049,628.112244 2251.664795,628.074951 2254.029297,628.037598 
z"/>
<path fill="#C3C3C4" opacity="1.000000" stroke="none" 
	d="
M2246.061523,628.252197 
	C2246.023926,629.219116 2245.986084,630.185974 2245.910645,631.509705 
	C2241.568115,631.931274 2237.263184,631.996033 2232.497803,632.073608 
	C2232.037109,632.086426 2231.948242,631.875305 2231.942627,631.423950 
	C2231.985840,630.009155 2232.034912,629.045593 2232.473633,628.071411 
	C2233.910645,628.050293 2234.957275,628.039795 2236.253174,628.298157 
	C2239.668213,628.359314 2242.833984,628.151550 2246.015137,628.020996 
	C2246.030273,628.098145 2246.061523,628.252197 2246.061523,628.252197 
z"/>
<path fill="#A2A2A3" opacity="1.000000" stroke="none" 
	d="
M2271.914062,628.658569 
	C2276.006592,628.548035 2280.164307,628.744629 2284.296875,629.182800 
	C2284.929443,629.249756 2285.443604,630.431885 2286.068359,631.487915 
	C2282.031738,631.571350 2277.929932,631.346252 2273.855713,630.879822 
	C2273.166748,630.801025 2272.596436,629.682678 2271.914062,628.658569 
z"/>
<path fill="#C3C3C4" opacity="1.000000" stroke="none" 
	d="
M2146.956299,521.963257 
	C2146.216064,521.964722 2145.476074,521.966187 2144.097412,521.685425 
	C2131.876221,521.601318 2120.290039,522.040161 2108.712402,521.879028 
	C2104.086670,521.814697 2102.871826,523.164185 2102.897949,527.738037 
	C2103.087891,561.019592 2102.998535,594.302734 2103.000732,627.585388 
	C2103.001221,635.976562 2104.527344,637.477539 2112.790771,638.071533 
	C2115.350586,638.255554 2118.854492,637.626404 2118.601318,641.973938 
	C2115.116211,641.983459 2112.061279,641.967957 2109.006348,641.952393 
	C2108.288330,641.934143 2107.570312,641.915894 2106.442871,641.520508 
	C2105.773682,640.556274 2105.677246,639.680847 2105.228516,639.426331 
	C2100.579590,636.790161 2098.863281,633.028992 2098.895996,627.556335 
	C2099.108398,592.137329 2099.007812,556.716492 2099.009766,521.296204 
	C2099.010010,519.362427 2099.009766,517.428650 2099.009766,515.408020 
	C2101.197266,515.179077 2102.667236,515.025208 2104.137207,514.871338 
	C2107.430176,514.951538 2110.723145,515.031738 2114.511475,515.541199 
	C2116.437012,516.657227 2117.852295,517.901367 2119.299805,517.940002 
	C2128.564941,518.186829 2137.836914,518.169067 2147.073975,518.604370 
	C2147.012939,519.968140 2146.984619,520.965698 2146.956299,521.963257 
z"/>
<path fill="#A2A2A3" opacity="1.000000" stroke="none" 
	d="
M2104.086670,514.476685 
	C2102.667236,515.025208 2101.197266,515.179077 2099.009766,515.408020 
	C2099.009766,517.428650 2099.010010,519.362427 2099.009766,521.296204 
	C2099.007812,556.716492 2099.108398,592.137329 2098.895996,627.556335 
	C2098.863281,633.028992 2100.579590,636.790161 2105.228516,639.426331 
	C2105.677246,639.680847 2105.773682,640.556274 2106.083984,641.504395 
	C2098.772705,641.725525 2095.985596,638.983398 2095.986328,631.935425 
	C2095.988281,615.573425 2095.975342,599.211487 2095.925049,582.371216 
	C2095.881592,558.765808 2095.881592,535.638672 2095.881592,511.091370 
	C2098.879150,512.190674 2101.457520,513.136353 2104.086670,514.476685 
z"/>
<path fill="#A2A2A3" opacity="1.000000" stroke="none" 
	d="
M2147.106689,518.238220 
	C2137.836914,518.169067 2128.564941,518.186829 2119.299805,517.940002 
	C2117.852295,517.901367 2116.437012,516.657227 2114.960449,515.570190 
	C2126.982178,515.119446 2139.050537,515.069092 2151.567627,515.435425 
	C2152.018555,516.590027 2152.020508,517.327881 2151.609375,518.056030 
	C2149.833252,518.110352 2148.469971,518.174255 2147.106689,518.238220 
z"/>
<path fill="#C3C3C4" opacity="1.000000" stroke="none" 
	d="
M2152.022461,518.065735 
	C2152.020508,517.327881 2152.018555,516.590027 2152.037598,515.486938 
	C2154.072510,515.070618 2156.086670,515.019531 2158.531494,514.935608 
	C2161.028320,514.940369 2163.094482,514.978027 2165.585205,515.424683 
	C2166.006592,516.557800 2166.003174,517.281921 2165.601807,518.004639 
	C2164.143066,518.016968 2163.082520,518.030640 2161.613525,518.038818 
	C2158.144287,518.044128 2155.083252,518.054932 2152.022461,518.065735 
z"/>
<path fill="#A2A2A3" opacity="1.000000" stroke="none" 
	d="
M2109.017578,642.370850 
	C2112.061279,641.967957 2115.116211,641.983459 2118.971191,641.994873 
	C2120.514404,641.997314 2121.257080,642.003906 2122.000000,642.010498 
	C2121.999268,642.749573 2121.998779,643.488708 2122.020020,644.595947 
	C2118.907715,644.971680 2115.753662,645.186462 2112.649170,644.886169 
	C2111.386475,644.763977 2110.232422,643.521851 2109.017578,642.370850 
z"/>
<path fill="#D7D7D7" opacity="1.000000" stroke="none" 
	d="
M2225.458496,504.912415 
	C2227.331543,504.929535 2228.747559,504.962585 2230.582520,505.377594 
	C2231.000977,506.505951 2231.000488,507.252380 2230.540039,507.999512 
	C2226.400391,508.018677 2222.720703,508.037109 2218.634766,508.045349 
	C2215.991943,509.683990 2211.387451,506.928528 2210.523682,511.951721 
	C2207.390869,512.320496 2204.695557,512.680664 2201.576172,513.030945 
	C2197.111084,513.688354 2193.070312,514.355652 2188.572754,515.013062 
	C2185.090332,515.015747 2182.064941,515.028320 2178.965576,514.956421 
	C2178.891846,514.871948 2178.753174,514.695618 2178.753174,514.695618 
	C2178.670166,511.549591 2181.033936,512.225525 2182.923340,511.885132 
	C2188.014893,510.967896 2193.074707,509.874237 2198.520752,508.760742 
	C2203.903076,508.780792 2208.521484,508.766510 2213.258057,505.635956 
	C2216.090820,503.763672 2221.016602,505.057587 2225.458496,504.912415 
z"/>
<path fill="#D7D7D7" opacity="1.000000" stroke="none" 
	d="
M2166.000000,518.005981 
	C2166.003174,517.281921 2166.006592,516.557800 2166.024658,515.473511 
	C2169.984375,514.987244 2173.929688,514.861206 2178.313965,514.715454 
	C2178.753174,514.695618 2178.891846,514.871948 2178.951172,515.327209 
	C2179.013672,516.527222 2179.016602,517.271912 2179.019043,518.025513 
	C2179.018555,518.034424 2179.029297,518.049072 2178.583008,518.033630 
	C2175.770752,518.032471 2173.404785,518.046753 2170.688477,518.078125 
	C2168.891846,518.065491 2167.446045,518.035767 2166.000000,518.005981 
z"/>
<path fill="#E1E1E1" opacity="1.000000" stroke="none" 
	d="
M2232.083740,628.082092 
	C2232.034912,629.045593 2231.985840,630.009155 2231.890625,631.321899 
	C2227.868408,631.780823 2223.892578,631.890442 2219.453613,632.029785 
	C2218.990234,632.059448 2219.007568,631.929382 2219.001465,631.492432 
	C2219.006592,630.049011 2219.018066,629.042480 2219.490967,628.030090 
	C2223.996338,628.043518 2228.040039,628.062805 2232.083740,628.082092 
z"/>
<path fill="#E1E1E1" opacity="1.000000" stroke="none" 
	d="
M2231.000000,507.998779 
	C2231.000488,507.252380 2231.000977,506.505951 2231.005859,505.386780 
	C2238.360840,505.006195 2245.711670,504.998383 2253.531250,504.994690 
	C2254.311523,505.741211 2254.427002,506.917999 2254.963867,507.160217 
	C2261.728760,510.211487 2262.031006,516.568970 2262.974854,522.580139 
	C2263.204590,524.044922 2262.658936,525.778015 2263.249023,527.016846 
	C2268.651611,538.363159 2266.756348,550.449341 2266.961914,562.299500 
	C2267.143555,572.769226 2267.242432,583.253113 2266.876465,593.713196 
	C2266.737061,597.703186 2265.202148,601.644226 2264.304443,605.607910 
	C2263.868408,607.533569 2263.530273,609.487366 2262.982910,611.380615 
	C2261.735352,615.694275 2260.385742,619.978333 2259.038818,624.634094 
	C2257.621826,625.004761 2256.243408,625.015686 2254.018555,625.015503 
	C2251.444824,624.998840 2249.717529,624.993347 2247.999756,624.605103 
	C2249.906738,618.285339 2252.162109,612.432190 2253.579834,606.382751 
	C2254.584229,602.097900 2253.903809,597.414368 2254.935791,593.140625 
	C2258.221436,579.531677 2258.017334,565.683533 2256.213379,552.158630 
	C2254.740234,541.114380 2254.036133,529.858276 2250.253174,518.996765 
	C2247.174316,510.156311 2246.155029,508.004730 2236.980469,508.006134 
	C2234.987061,508.006439 2232.993408,508.001343 2231.000000,507.998779 
z"/>
<path fill="#D7D7D7" opacity="1.000000" stroke="none" 
	d="
M2247.990234,624.987793 
	C2249.717529,624.993347 2251.444824,624.998840 2253.605469,625.016235 
	C2254.030518,625.779785 2254.022461,626.531494 2254.021973,627.660400 
	C2251.664795,628.074951 2249.300049,628.112244 2246.498535,628.200867 
	C2246.061523,628.252197 2246.030273,628.098145 2246.015137,627.653931 
	C2246.000000,626.472351 2246.000000,625.734924 2246.331787,624.996277 
	C2247.105713,624.992615 2247.548096,624.990173 2247.990234,624.987793 
z"/>
<path fill="#EBEBEB" opacity="1.000000" stroke="none" 
	d="
M2189.094482,635.058838 
	C2187.966797,636.033752 2186.899170,637.754700 2185.700684,637.850952 
	C2181.169678,638.215088 2176.596191,638.052002 2171.584473,638.096680 
	C2164.136719,638.070618 2157.138672,637.882141 2150.150391,638.065735 
	C2146.959961,638.149475 2145.332031,637.119019 2143.490967,634.316528 
	C2134.261963,620.268311 2131.328369,604.775513 2132.028809,588.360535 
	C2132.558105,575.955017 2132.827637,563.499573 2134.270264,551.190369 
	C2134.875244,546.031921 2138.188477,541.183228 2140.326172,536.217712 
	C2140.905273,534.872253 2141.749023,533.642517 2142.365479,532.310608 
	C2144.279785,528.173889 2145.562500,523.379333 2151.977051,524.858032 
	C2152.749268,525.036011 2153.912842,523.515198 2155.383789,522.391907 
	C2157.906494,521.991638 2159.940430,521.981140 2162.414795,521.980957 
	C2164.903320,521.994934 2166.951660,521.998718 2168.993896,522.369141 
	C2166.083252,526.536804 2163.001953,530.217346 2160.308350,534.162231 
	C2153.408203,544.267273 2148.843750,555.201721 2148.984375,567.725586 
	C2149.068604,575.221558 2149.193848,582.725525 2148.951416,590.214600 
	C2148.642090,599.766785 2149.387939,609.144226 2154.124023,617.598450 
	C2157.399170,623.444641 2160.636719,629.836060 2165.555908,634.032593 
	C2168.327881,636.397278 2174.472656,634.850220 2179.100586,634.983154 
	C2182.429932,635.078857 2185.762939,635.038574 2189.094482,635.058838 
z"/>
<path fill="#D7D7D7" opacity="1.000000" stroke="none" 
	d="
M2122.269043,641.719238 
	C2121.257080,642.003906 2120.514404,641.997314 2119.401367,641.969849 
	C2118.854492,637.626404 2115.350586,638.255554 2112.790771,638.071533 
	C2104.527344,637.477539 2103.001221,635.976562 2103.000732,627.585388 
	C2102.998535,594.302734 2103.087891,561.019592 2102.897949,527.738037 
	C2102.871826,523.164185 2104.086670,521.814697 2108.712402,521.879028 
	C2120.290039,522.040161 2131.876221,521.601318 2143.727539,521.683105 
	C2143.047852,522.970947 2142.215088,524.668152 2141.129150,524.849365 
	C2138.542480,525.281006 2135.783936,525.329529 2133.190674,524.922607 
	C2129.346191,524.319458 2126.760986,526.350708 2125.669922,529.215088 
	C2123.646973,534.525635 2122.484131,540.166504 2121.026367,545.686584 
	C2120.820312,546.466309 2121.276123,547.520630 2120.908691,548.143005 
	C2115.156738,557.890625 2118.929443,568.522461 2118.101318,578.708435 
	C2117.564453,585.309937 2117.906250,591.992126 2118.029541,598.635010 
	C2118.129150,604.000244 2116.926514,609.558716 2120.542969,614.473145 
	C2121.292236,615.491577 2120.975586,617.365601 2120.984131,618.846252 
	C2121.035156,627.714661 2123.807861,634.958679 2132.508789,638.883911 
	C2133.210938,639.200745 2133.510986,640.409912 2134.015625,641.568726 
	C2130.201416,641.764587 2126.369629,641.596252 2122.269043,641.719238 
z"/>
<path fill="#D7D7D7" opacity="1.000000" stroke="none" 
	d="
M2161.974609,521.970703 
	C2159.940430,521.981140 2157.906494,521.991638 2155.436035,522.003479 
	C2152.617920,522.000854 2150.235840,521.996826 2147.405029,521.978027 
	C2146.984619,520.965698 2147.012939,519.968140 2147.073975,518.604370 
	C2148.469971,518.174255 2149.833252,518.110352 2151.609375,518.056030 
	C2155.083252,518.054932 2158.144287,518.044128 2161.607422,518.430664 
	C2161.998047,519.875549 2161.986328,520.923157 2161.974609,521.970703 
z"/>
<path fill="#F6F4F4" opacity="1.000000" stroke="none" 
	d="
M2189.521973,635.061401 
	C2185.762939,635.038574 2182.429932,635.078857 2179.100586,634.983154 
	C2174.472656,634.850220 2168.327881,636.397278 2165.555908,634.032593 
	C2160.636719,629.836060 2157.399170,623.444641 2154.124023,617.598450 
	C2149.387939,609.144226 2148.642090,599.766785 2148.951416,590.214600 
	C2149.193848,582.725525 2149.068604,575.221558 2148.984375,567.725586 
	C2148.843750,555.201721 2153.408203,544.267273 2160.308350,534.162231 
	C2163.001953,530.217346 2166.083252,526.536804 2169.327148,522.367676 
	C2170.111084,521.998047 2170.555420,521.996582 2171.441650,521.998474 
	C2174.591064,521.273193 2179.361816,524.273926 2179.029297,518.049072 
	C2179.029297,518.049072 2179.018555,518.034424 2179.469238,518.025940 
	C2181.862549,518.010681 2183.904541,518.368347 2185.712891,517.872742 
	C2186.983398,517.524658 2187.935303,516.014343 2189.029297,515.022949 
	C2193.070312,514.355652 2197.111084,513.688354 2201.664062,513.416748 
	C2207.235596,516.151489 2210.736328,515.507324 2212.437012,512.002930 
	C2214.909424,511.993958 2216.944824,511.987000 2219.449707,511.986603 
	C2224.405518,511.995636 2228.899414,512.154663 2233.376709,511.950165 
	C2236.838135,511.792053 2238.654785,513.557556 2239.656982,516.479553 
	C2244.390625,530.280273 2247.223389,544.405273 2247.023193,559.076538 
	C2246.898193,568.214233 2247.569092,577.400940 2246.837402,586.481384 
	C2246.128662,595.277954 2244.240234,603.997437 2242.554199,612.689514 
	C2241.744141,616.863464 2240.205322,620.896057 2238.623535,625.003540 
	C2237.501953,626.019348 2236.753174,627.024414 2236.004150,628.029358 
	C2234.957275,628.039795 2233.910645,628.050293 2232.473633,628.071411 
	C2228.040039,628.062805 2223.996338,628.043518 2219.082031,628.018555 
	C2215.411621,627.866760 2212.793701,627.968506 2212.965332,631.867249 
	C2211.906006,631.912354 2210.846924,631.957458 2209.389404,631.995178 
	C2204.733154,630.441406 2198.081787,631.554749 2196.006836,634.558533 
	C2193.975586,634.993896 2191.962646,635.028931 2189.521973,635.061401 
M2235.580322,584.434998 
	C2235.640137,581.173035 2235.699951,577.911011 2235.637695,573.976624 
	C2235.704102,573.301331 2235.770508,572.625977 2236.662354,571.952698 
	C2237.430420,570.497925 2238.662842,569.077026 2238.772705,567.574158 
	C2238.828369,566.811279 2236.860596,565.900574 2235.594238,564.423828 
	C2235.633545,563.761353 2235.673096,563.098938 2235.926514,561.516724 
	C2234.555908,556.423767 2233.269775,551.304626 2231.706299,546.271484 
	C2231.514160,545.652039 2229.842529,545.492004 2228.106934,544.996521 
	C2227.410889,544.682129 2226.387451,544.561279 2226.069824,544.023438 
	C2222.877930,538.618652 2217.304932,536.953003 2211.964844,534.042725 
	C2209.627197,531.394531 2198.198975,530.951538 2196.179932,533.475891 
	C2195.919922,533.801086 2196.038086,534.429077 2196.045898,534.978149 
	C2196.045898,534.978149 2195.997070,535.052917 2195.138916,534.918762 
	C2190.967041,536.395203 2186.675537,537.617615 2182.691406,539.492859 
	C2181.387939,540.106445 2180.883057,542.417114 2179.731689,544.650085 
	C2174.373779,547.647888 2170.164551,551.601562 2167.989014,557.837585 
	C2163.314209,561.100891 2161.225830,565.467834 2162.213623,571.650391 
	C2162.213623,571.650391 2162.046875,572.095520 2161.216309,572.073059 
	C2160.552734,572.461365 2159.322266,572.833862 2159.311035,573.240417 
	C2159.154053,578.868835 2159.073975,584.505005 2159.265625,590.129395 
	C2159.286377,590.735291 2161.122559,591.279358 2162.181641,591.826233 
	C2162.181641,591.826233 2162.246582,591.852600 2162.016113,592.660950 
	C2161.876709,595.513062 2161.401611,598.494385 2164.975586,600.683228 
	C2166.359131,602.638489 2167.452393,604.914001 2169.185303,606.483704 
	C2173.016357,609.954285 2176.015869,614.828918 2182.181885,615.813049 
	C2182.763184,616.483582 2183.328613,617.719177 2183.928223,617.736145 
	C2189.235352,617.885559 2194.552734,617.926331 2199.853760,617.693298 
	C2200.601074,617.660400 2201.275635,615.978027 2202.782715,614.957703 
	C2204.509033,614.049011 2206.170898,612.979614 2207.973145,612.260803 
	C2214.319336,609.729248 2219.973145,606.546387 2223.349121,600.092957 
	C2224.452393,597.983582 2226.978027,596.618286 2229.632324,594.927490 
	C2231.421631,591.626465 2233.210693,588.325500 2235.580322,584.434998 
z"/>
<path fill="#EBEBEB" opacity="1.000000" stroke="none" 
	d="
M2213.395752,631.913818 
	C2212.793701,627.968506 2215.411621,627.866760 2218.620605,628.024414 
	C2219.018066,629.042480 2219.006592,630.049011 2218.999756,631.426880 
	C2217.278076,631.852295 2215.552246,631.906372 2213.395752,631.913818 
z"/>
<path fill="#E1E1E1" opacity="1.000000" stroke="none" 
	d="
M2236.253174,628.298218 
	C2236.753174,627.024414 2237.501953,626.019348 2239.061523,625.006897 
	C2241.914795,624.998779 2243.957275,624.998169 2246.000000,624.997559 
	C2246.000000,625.734924 2246.000000,626.472351 2246.000000,627.576782 
	C2242.833984,628.151550 2239.668213,628.359314 2236.253174,628.298218 
z"/>
<path fill="#E1E1E1" opacity="1.000000" stroke="none" 
	d="
M2171.000000,521.995117 
	C2170.555420,521.996582 2170.111084,521.998047 2169.333252,522.000977 
	C2166.951660,521.998718 2164.903320,521.994934 2162.414795,521.980957 
	C2161.986328,520.923157 2161.998047,519.875549 2162.015869,518.436157 
	C2163.082520,518.030640 2164.143066,518.016968 2165.601807,518.004639 
	C2167.446045,518.035767 2168.891846,518.065491 2170.676270,518.469727 
	C2171.010010,519.894592 2171.004883,520.944824 2171.000000,521.995117 
z"/>
<path fill="#EDEDED" opacity="1.000000" stroke="none" 
	d="
M2246.331787,624.996277 
	C2243.957275,624.998169 2241.914795,624.998779 2239.434326,624.996094 
	C2240.205322,620.896057 2241.744141,616.863464 2242.554199,612.689514 
	C2244.240234,603.997437 2246.128662,595.277954 2246.837402,586.481384 
	C2247.569092,577.400940 2246.898193,568.214233 2247.023193,559.076538 
	C2247.223389,544.405273 2244.390625,530.280273 2239.656982,516.479553 
	C2238.654785,513.557556 2236.838135,511.792053 2233.376709,511.950165 
	C2228.899414,512.154663 2224.405518,511.995636 2219.455078,511.593811 
	C2219.007812,510.148132 2219.024414,509.101837 2219.041016,508.055542 
	C2222.720703,508.037109 2226.400391,508.018677 2230.540039,507.999512 
	C2232.993408,508.001343 2234.987061,508.006439 2236.980469,508.006134 
	C2246.155029,508.004730 2247.174316,510.156311 2250.253174,518.996765 
	C2254.036133,529.858276 2254.740234,541.114380 2256.213379,552.158630 
	C2258.017334,565.683533 2258.221436,579.531677 2254.935791,593.140625 
	C2253.903809,597.414368 2254.584229,602.097900 2253.579834,606.382751 
	C2252.162109,612.432190 2249.906738,618.285339 2247.999756,624.605103 
	C2247.548096,624.990173 2247.105713,624.992615 2246.331787,624.996277 
z"/>
<path fill="#E1E1E1" opacity="1.000000" stroke="none" 
	d="
M2188.572754,515.013062 
	C2187.935303,516.014343 2186.983398,517.524658 2185.712891,517.872742 
	C2183.904541,518.368347 2181.862549,518.010681 2179.469727,518.017090 
	C2179.016602,517.271912 2179.013672,516.527222 2179.024902,515.411743 
	C2182.064941,515.028320 2185.090332,515.015747 2188.572754,515.013062 
z"/>
<path fill="#EDEDED" opacity="1.000000" stroke="none" 
	d="
M2212.000000,512.004883 
	C2210.736328,515.507324 2207.235596,516.151489 2202.087891,513.426636 
	C2204.695557,512.680664 2207.390869,512.320496 2210.783447,511.971985 
	C2211.653564,511.990692 2211.826904,511.997772 2212.000000,512.004883 
z"/>
<path fill="#E1E1E1" opacity="1.000000" stroke="none" 
	d="
M2212.437012,512.002930 
	C2211.826904,511.997772 2211.653564,511.990692 2211.220703,511.963318 
	C2211.387451,506.928528 2215.991943,509.683990 2218.634766,508.045349 
	C2219.024414,509.101837 2219.007812,510.148132 2218.985840,511.587219 
	C2216.944824,511.987000 2214.909424,511.993958 2212.437012,512.002930 
z"/>
<path fill="#EBEBEB" opacity="1.000000" stroke="none" 
	d="
M2171.441650,521.998474 
	C2171.004883,520.944824 2171.010010,519.894592 2171.026855,518.452637 
	C2173.404785,518.046753 2175.770752,518.032471 2178.583008,518.033630 
	C2179.361816,524.273926 2174.591064,521.273193 2171.441650,521.998474 
z"/>
<path fill="#C4294D" opacity="1.000000" stroke="none" 
	d="
M2235.837158,571.950684 
	C2235.770508,572.625977 2235.704102,573.301331 2235.382812,574.477905 
	C2234.262451,578.322388 2233.396973,581.665588 2232.341797,585.352661 
	C2231.052490,588.768555 2229.952637,591.840576 2228.853027,594.912598 
	C2226.978027,596.618286 2224.452393,597.983582 2223.349121,600.092957 
	C2219.973145,606.546387 2214.319336,609.729248 2207.973145,612.260803 
	C2206.170898,612.979614 2204.509033,614.049011 2201.923828,614.929810 
	C2194.725830,614.942139 2188.387207,614.982422 2182.048340,615.022705 
	C2176.015869,614.828918 2173.016357,609.954285 2169.185303,606.483704 
	C2167.452393,604.914001 2166.359131,602.638489 2165.229004,600.140015 
	C2165.894531,596.392578 2166.084961,593.280762 2162.246582,591.852600 
	C2162.246582,591.852600 2162.181641,591.826233 2162.221191,591.388428 
	C2162.189209,584.665649 2162.117920,578.380554 2162.046875,572.095520 
	C2162.046875,572.095520 2162.213623,571.650391 2162.596680,571.324585 
	C2164.897217,566.621338 2166.814697,562.243835 2168.731934,557.866394 
	C2170.164551,551.601562 2174.373779,547.647888 2180.177002,544.215820 
	C2185.508301,541.650391 2190.417236,539.567810 2195.246338,537.314575 
	C2195.740479,537.083923 2195.758301,535.831299 2195.997070,535.052917 
	C2195.997070,535.052917 2196.045898,534.978149 2196.476074,535.017334 
	C2201.936035,534.989441 2206.965820,534.922241 2211.995361,534.855042 
	C2217.304932,536.953003 2222.877930,538.618652 2226.069824,544.023438 
	C2226.387451,544.561279 2227.410889,544.682129 2228.470215,545.478760 
	C2230.435547,551.020813 2231.987305,556.097839 2233.705322,561.117981 
	C2233.910400,561.716370 2235.021484,562.004456 2235.712646,562.436462 
	C2235.673096,563.098938 2235.633545,563.761353 2235.608887,565.163452 
	C2235.694580,567.918945 2235.765869,569.934814 2235.837158,571.950684 
z"/>
<path fill="#C5A19E" opacity="1.000000" stroke="none" 
	d="
M2195.567871,534.985840 
	C2195.758301,535.831299 2195.740479,537.083923 2195.246338,537.314575 
	C2190.417236,539.567810 2185.508301,541.650391 2180.317627,543.866577 
	C2180.883057,542.417114 2181.387939,540.106445 2182.691406,539.492859 
	C2186.675537,537.617615 2190.967041,536.395203 2195.567871,534.985840 
z"/>
<path fill="#C5A19E" opacity="1.000000" stroke="none" 
	d="
M2182.115234,615.417847 
	C2188.387207,614.982422 2194.725830,614.942139 2201.524170,614.980530 
	C2201.275635,615.978027 2200.601074,617.660400 2199.853760,617.693298 
	C2194.552734,617.926331 2189.235352,617.885559 2183.928223,617.736145 
	C2183.328613,617.719177 2182.763184,616.483582 2182.115234,615.417847 
z"/>
<path fill="#C3C3C4" opacity="1.000000" stroke="none" 
	d="
M2161.631348,572.084290 
	C2162.117920,578.380554 2162.189209,584.665649 2162.188477,591.401367 
	C2161.122559,591.279358 2159.286377,590.735291 2159.265625,590.129395 
	C2159.073975,584.505005 2159.154053,578.868835 2159.311035,573.240417 
	C2159.322266,572.833862 2160.552734,572.461365 2161.631348,572.084290 
z"/>
<path fill="#D7D7D7" opacity="1.000000" stroke="none" 
	d="
M2235.819580,561.976562 
	C2235.021484,562.004456 2233.910400,561.716370 2233.705322,561.117981 
	C2231.987305,556.097839 2230.435547,551.020813 2228.845215,545.540039 
	C2229.842529,545.492004 2231.514160,545.652039 2231.706299,546.271484 
	C2233.269775,551.304626 2234.555908,556.423767 2235.819580,561.976562 
z"/>
<path fill="#D7D7D7" opacity="1.000000" stroke="none" 
	d="
M2211.979980,534.448853 
	C2206.965820,534.922241 2201.936035,534.989441 2196.443848,534.986694 
	C2196.038086,534.429077 2195.919922,533.801086 2196.179932,533.475891 
	C2198.198975,530.951538 2209.627197,531.394531 2211.979980,534.448853 
z"/>
<path fill="#C5A19E" opacity="1.000000" stroke="none" 
	d="
M2168.360352,557.851990 
	C2166.814697,562.243835 2164.897217,566.621338 2162.637451,571.090454 
	C2161.225830,565.467834 2163.314209,561.100891 2168.360352,557.851990 
z"/>
<path fill="#D7D7D7" opacity="1.000000" stroke="none" 
	d="
M2232.531494,585.008789 
	C2233.396973,581.665588 2234.262451,578.322388 2235.444092,574.814148 
	C2235.699951,577.911011 2235.640137,581.173035 2234.980957,584.720215 
	C2233.764893,585.006531 2233.148193,585.007690 2232.531494,585.008789 
z"/>
<path fill="#E1E1E1" opacity="1.000000" stroke="none" 
	d="
M2232.341797,585.352661 
	C2233.148193,585.007690 2233.764893,585.006531 2234.690918,585.014954 
	C2233.210693,588.325500 2231.421631,591.626465 2229.242676,594.920044 
	C2229.952637,591.840576 2231.052490,588.768555 2232.341797,585.352661 
z"/>
<path fill="#C5A19E" opacity="1.000000" stroke="none" 
	d="
M2162.131348,592.256775 
	C2166.084961,593.280762 2165.894531,596.392578 2165.157227,599.784363 
	C2161.401611,598.494385 2161.876709,595.513062 2162.131348,592.256775 
z"/>
<path fill="#E1E1E1" opacity="1.000000" stroke="none" 
	d="
M2236.249756,571.951660 
	C2235.765869,569.934814 2235.694580,567.918945 2235.715332,565.479858 
	C2236.860596,565.900574 2238.828369,566.811279 2238.772705,567.574158 
	C2238.662842,569.077026 2237.430420,570.497925 2236.249756,571.951660 
z"/>
</svg>