<svg width="241" height="200" viewBox="0 0 241 200" fill="none" xmlns="http://www.w3.org/2000/svg">
<path d="M32.8834 132.144C31.4753 132.16 30.0347 132.079 28.5942 131.901C13.2985 130.019 1.33711 117.126 0.544003 101.703C-0.410965 83.182 14.302 67.856 32.5759 67.856H32.6568C37.1565 67.856 40.8793 64.3367 40.8793 59.8281V34.82C40.8793 25.2027 44.7639 16.4937 51.044 10.1849C57.3403 3.89231 66.0322 0 75.6304 0L212.612 0C211.916 0.129744 211.204 0.259488 210.491 0.340577C227.438 2.64353 240.5 17.191 240.5 34.82L240.5 165.18C240.5 184.415 224.945 200 205.749 200L75.6466 200C56.4501 200 40.8955 184.415 40.8955 165.18L40.8955 140.156C40.8955 135.728 37.3022 132.095 32.8834 132.144Z" fill="#2050F2"/>
</svg>
